<svg id="vector" xmlns="http://www.w3.org/2000/svg" width="666.6667" height="666.6667" viewBox="0 0 666.6667 666.6667"><defs><clipPath id="clip_path_0"><path d="M0,0L666.667,0L666.667,666.667L0,666.667Z"/></clipPath><clipPath id="clip_path_1"><path d="M0,666.667L666.667,666.667L666.667,0L0,0Z"/></clipPath><clipPath id="clip_path_2"><path d="m67.38,349.653c0,147.323 119.428,266.749 266.749,266.749l0,-0c147.321,-0 266.751,-119.427 266.751,-266.749l0,-0c0,-147.321 -119.429,-266.749 -266.751,-266.749l0,-0C186.808,82.904 67.38,202.332 67.38,349.653"/></clipPath><clipPath id="clip_path_3"><path d="M0,666.667L666.667,666.667L666.667,0L0,0Z"/></clipPath><clipPath id="clip_path_4"><path d="m210.037,286.064c-6.483,8.429 4.539,66.776 -28.525,127.069l0,-0c-28.493,51.956 20.443,128.155 31.044,148.471l0,-0C218.467,572.935 189.583,623.844 162.872,666.667l0,-0l150.016,-0c8.131,-34.601 22.349,-70.217 47.183,-85.629l0,-0c29.891,-18.549 56.535,-128.967 18.551,-170.481l0,-0c-22.811,-24.933 -66.357,-12.189 -100.34,0.553l0,-0C255.677,419.587 237.304,428.064 232.08,425.451l0,-0c-12.967,-6.483 16.856,-44.733 12.967,-95.949l0,-0c-2.267,-29.839 -21.884,-45.031 -31.109,-45.029l0,-0c-1.721,-0 -3.083,0.529 -3.9,1.592"/></clipPath><clipPath id="clip_path_5"><path d="M0,666.667L666.667,666.667L666.667,0L0,0Z"/></clipPath><clipPath id="clip_path_6"><path d="m379.019,294.839c0,-0 -54.767,85.683 15.016,31.8l0,-0c69.783,-53.884 96.284,-95.4 65.367,-102.465l0,-0c-1.021,-0.235 -2.081,-0.347 -3.177,-0.347l0,-0C428.667,223.831 379.019,294.839 379.019,294.839"/></clipPath><clipPath id="clip_path_7"><path d="M0,666.667L666.667,666.667L666.667,0L0,0Z"/></clipPath><clipPath id="clip_path_8"><path d="m253.879,219.335c-7.921,-0 -14.343,6.421 -14.343,14.343l0,-0 0,279.215c0,7.921 6.421,14.344 14.343,14.344l0,-0l152.193,-0c7.921,-0 14.343,-6.423 14.343,-14.344l0,-0 0,-279.215c0,-7.921 -6.421,-14.343 -14.343,-14.343l0,-0z"/></clipPath><clipPath id="clip_path_9"><path d="M0,666.667L666.667,666.667L666.667,0L0,0Z"/></clipPath><clipPath id="clip_path_10"><path d="M178.271,77.308L178.271,385.996c5.161,4.98 269.697,-0 269.697,-0l0,-0 0,-308.688z"/></clipPath><clipPath id="clip_path_11"><path d="m294.967,378.772 l0.909,9.252c22.459,-0.164 45.576,-0.421 66.783,-0.697l0,-0l2.975,-22.168 -42.143,-6.484c0,-0 -1.685,-0.153 -4.248,-0.153l0,-0c-9.231,-0 -29.859,1.985 -24.276,20.251"/></clipPath><clipPath id="clip_path_12"><path d="M178.271,77.308L178.271,385.996c5.161,4.98 269.697,-0 269.697,-0l0,-0 0,-308.688z"/></clipPath><clipPath id="clip_path_13"><path d="m346.507,263.699c0.861,20.208 1.72,83.48 2.201,123.803l0,-0c11.424,-0.137 22.48,-0.284 32.808,-0.431l0,-0 0,-151.251c0,-0 -5.175,-17.701 -22.367,-29.499l0,-0c0,-0 -13.939,26.905 -12.643,57.377"/></clipPath><clipPath id="clip_path_14"><path d="M178.271,77.308L178.271,385.996c5.161,4.98 269.697,-0 269.697,-0l0,-0 0,-308.688z"/></clipPath><clipPath id="clip_path_15"><path d="M0,666.667L666.667,666.667L666.667,0L0,0Z"/></clipPath><clipPath id="clip_path_16"><path d="m377.697,402.516c0,2.184 1.772,3.955 3.955,3.955l0,-0c2.184,-0 3.955,-1.771 3.955,-3.955l0,-0c0,-2.184 -1.771,-3.956 -3.955,-3.956l0,-0c-2.183,-0 -3.955,1.772 -3.955,3.956"/></clipPath><clipPath id="clip_path_17"><path d="M0,666.667L666.667,666.667L666.667,0L0,0Z"/></clipPath><clipPath id="clip_path_18"><path d="m374.581,416.057l14.38,-0c0,-3.971 -3.219,-7.191 -7.189,-7.191l0,-0c-3.971,-0 -7.191,3.22 -7.191,7.191"/></clipPath></defs><g id="g_0"><g clip-path="url(#clip_path_0)"/></g><g id="g_1"><path fill="#c8e6ff" d="m600.88,349.653c0,147.323 -119.428,266.749 -266.749,266.749 -147.323,-0 -266.751,-119.427 -266.751,-266.749 0,-147.321 119.428,-266.749 266.751,-266.749C481.452,82.904 600.88,202.332 600.88,349.653" stroke="#00000000" fill-rule="nonzero" clip-path="url(#clip_path_1)"/></g><g id="g_2"><g clip-path="url(#clip_path_2)"><path fill="#ffffff" d="M545.454,167.071C540.341,162.507 522.349,145.912 506.241,124.645L617.231,157.063C588.623,164.567 562.53,166.177 562.443,166.187 561.394,166.184 555.033,166.208 545.454,167.071m-78.095,43.368c23.769,-14.5 52.38,-20.571 72.124,-23.052 9.92,8.419 33.595,30.34 48.911,58.623zM586.281,338.885 L430.066,292.248c-3.208,-10.831 -4.115,-22.053 -1.456,-33.273L600.561,310.312c-0.172,0.843 -0.187,1.68 -0.389,2.529 -2.467,10.312 -7.381,18.891 -13.891,26.044m-92.168,34.671c-10.953,-8.411 -44.803,-36.292 -59.811,-69.901L578.054,346.572c-23.857,19.023 -60.264,25.095 -83.941,26.984m37.272,84.609 l-136.101,-40.001c18.895,-13.828 44.552,-22.34 75.193,-24.389 2.049,0.065 8.44,0.191 17.449,-0.256 22.495,20.183 37.224,42.367 43.459,64.647m-0.389,48.841c-3.775,11.883 -10.268,22.511 -18.756,31.372l-151.535,-44.533c-1.264,-12.003 0.004,-24.176 4.139,-35.724 4.46,-12.457 11.78,-23.327 21.48,-32.469l147.428,43.327c2,12.877 1.169,25.681 -2.756,38.028m-75.452,58.461c-15.675,1.584 -30.557,3.927 -44.408,6.692 -6.765,-7.236 -14.008,-14.544 -21.757,-21.797 -13.724,-12.849 -22.764,-28.928 -26.765,-45.839l141.171,41.489c-13.303,10.619 -29.952,17.609 -48.24,19.455m-22.644,63.608 l-77.625,-21.756c13.509,-4.596 30.092,-9.525 48.989,-13.779 11.064,12.449 20.591,24.515 28.636,35.535M457.095,217.539 L594.027,257.781c5.669,13.437 9.103,27.895 8.021,42.829l-170.417,-50.876c0.136,-0.32 0.228,-0.643 0.368,-0.963 5.708,-12.908 14.639,-23.061 25.096,-31.233M681.426,149.297 L669.558,133.919C659.626,141.565 647.125,147.393 634.214,151.896L497.29,111.901c-7.173,-11.047 -13.213,-22.805 -16.341,-34.456L462.187,82.476c9.497,35.397 40.271,69.888 58.605,88.02 -36.345,6.839 -86.26,24.543 -106.571,70.416 -24.172,54.661 21.801,107.477 50.971,133.853 -59.775,5.095 -102.909,32.879 -118.643,76.809 -13.899,38.811 -2.296,83.165 29.551,112.977 4.472,4.184 8.715,8.396 12.852,12.608 -47.42,11.779 -78.455,26.889 -80.256,27.781l8.617,17.412c0.216,-0.107 8.287,-4.032 22.187,-9.352l102.329,28.677c15.096,22.129 22.809,37.459 22.957,37.757l17.407,-8.624c-0.552,-1.116 -6.68,-13.353 -18.524,-31.56l0.404,-1.439 -1.673,-0.469c-8.96,-13.637 -21.013,-30.351 -36.175,-48.191 10.001,-1.749 20.427,-3.257 31.268,-4.352 13.9,-1.407 27.044,-5.257 38.915,-11.131 25.199,-12.471 44.609,-34.071 53.101,-60.775 12.845,-40.413 -0.369,-83.965 -36.232,-121.817 39.575,-5.696 93.601,-22.849 105.796,-73.705 5.129,-21.409 2.397,-41.949 -4.328,-60.593l0.82,-2.784 -2.081,-0.613c-11.316,-28.925 -31.968,-52.963 -47.3,-68.015 14.891,-1.149 78.308,-7.604 115.241,-36.071" stroke-opacity="0.25" stroke="#00000000" fill-rule="nonzero" fill-opacity="0.25"/><path fill="#ffffff" d="m367.136,452.815 l-2.735,9.313 164.883,48.459 2.736,-9.316z" stroke-opacity="0.25" stroke="#00000000" fill-rule="nonzero" fill-opacity="0.25"/></g><g><path fill="#ffffff" d="m349.345,196.836c1.139,2.303 0.196,5.093 -2.105,6.232 -2.304,1.14 -5.092,0.197 -6.232,-2.105 -1.14,-2.303 -0.197,-5.092 2.104,-6.232C345.415,193.591 348.206,194.534 349.345,196.836" stroke-opacity="0.25" stroke="#00000000" fill-rule="nonzero" fill-opacity="0.25"/></g><g><path fill="#ffffff" d="m239.294,218.21c2.659,5.372 0.459,11.883 -4.915,14.541 -5.372,2.659 -11.881,0.46 -14.54,-4.912 -2.66,-5.373 -0.46,-11.884 4.912,-14.543C230.123,210.638 236.634,212.837 239.294,218.21" stroke-opacity="0.25" stroke="#00000000" fill-rule="nonzero" fill-opacity="0.25"/></g><g><path fill="#ffffff" d="m607.958,376.796c2.66,5.373 0.46,11.884 -4.913,14.543 -5.372,2.659 -11.883,0.46 -14.543,-4.913 -2.657,-5.373 -0.459,-11.883 4.915,-14.543C598.789,369.224 605.299,371.424 607.958,376.796" stroke-opacity="0.25" stroke="#00000000" fill-rule="nonzero" fill-opacity="0.25"/></g><g><path fill="#ffffff" d="m224.431,137.134c2.279,4.607 0.393,10.185 -4.212,12.465 -4.605,2.279 -10.185,0.395 -12.465,-4.212 -2.279,-4.604 -0.393,-10.185 4.212,-12.464C216.571,130.645 222.152,132.53 224.431,137.134" stroke-opacity="0.25" stroke="#00000000" fill-rule="nonzero" fill-opacity="0.25"/></g><g><path fill="#ffffff" d="m527.678,508.223c1.52,3.071 0.263,6.792 -2.807,8.311 -3.071,1.519 -6.791,0.261 -8.311,-2.808 -1.52,-3.071 -0.261,-6.791 2.808,-8.309C522.438,503.896 526.158,505.152 527.678,508.223" stroke-opacity="0.25" stroke="#00000000" fill-rule="nonzero" fill-opacity="0.25"/></g><g><path fill="#ffffff" d="m659.381,180.07c3.037,6.14 0.525,13.581 -5.616,16.62 -6.139,3.039 -13.58,0.524 -16.62,-5.616 -3.037,-6.14 -0.524,-13.58 5.616,-16.619C648.901,171.416 656.342,173.93 659.381,180.07" stroke-opacity="0.25" stroke="#00000000" fill-rule="nonzero" fill-opacity="0.25"/></g><g><path fill="#ffffff" d="m329.906,110.635c1.52,3.071 0.263,6.791 -2.807,8.311 -3.071,1.52 -6.791,0.263 -8.311,-2.808 -1.52,-3.071 -0.263,-6.791 2.807,-8.311C324.666,106.307 328.386,107.564 329.906,110.635" stroke-opacity="0.25" stroke="#00000000" fill-rule="nonzero" fill-opacity="0.25"/></g><path fill="#ffffff" d="m382.673,564.217c1.52,3.071 0.263,6.792 -2.805,8.309 -3.071,1.52 -6.792,0.264 -8.312,-2.807 -1.52,-3.069 -0.261,-6.791 2.809,-8.309C377.433,559.891 381.154,561.147 382.673,564.217" stroke="#00000000" fill-rule="nonzero"/><g><path fill="#ffffff" d="M359.045,436.684C360.184,438.987 359.242,441.776 356.94,442.917 354.638,444.056 351.848,443.112 350.708,440.812 349.569,438.508 350.512,435.716 352.813,434.579 355.116,433.437 357.906,434.381 359.045,436.684" stroke-opacity="0.25" stroke="#00000000" fill-rule="nonzero" fill-opacity="0.25"/></g><g><path fill="#ffffff" d="m600.675,292.168c1.52,3.069 0.263,6.791 -2.807,8.309 -3.071,1.52 -6.792,0.263 -8.311,-2.808 -1.52,-3.069 -0.263,-6.789 2.808,-8.308C595.435,287.841 599.155,289.097 600.675,292.168" stroke-opacity="0.25" stroke="#00000000" fill-rule="nonzero" fill-opacity="0.25"/></g><g><path fill="#ffffff" d="m559.852,440.396c2.28,4.605 0.393,10.188 -4.211,12.467 -4.605,2.279 -10.187,0.393 -12.465,-4.213 -2.28,-4.604 -0.393,-10.184 4.211,-12.464C551.992,433.907 557.574,435.792 559.852,440.396" stroke-opacity="0.25" stroke="#00000000" fill-rule="nonzero" fill-opacity="0.25"/></g><g><path fill="#ffffff" d="m666.589,453.313c1.52,3.072 0.263,6.792 -2.807,8.311 -3.071,1.52 -6.791,0.263 -8.311,-2.808 -1.52,-3.069 -0.261,-6.791 2.808,-8.308C661.349,448.988 665.069,450.244 666.589,453.313" stroke-opacity="0.25" stroke="#00000000" fill-rule="nonzero" fill-opacity="0.25"/></g><g><path fill="#ffffff" d="m62.057,307.27c-3.48,0.676 -15.948,2.884 -29.749,2.851l48.116,-35.533C74.55,288.715 67.038,299.962 67.015,299.999 66.686,300.431 64.702,303.057 62.057,307.27m-6.613,45.735c1.477,-14.327 7.943,-28.007 13.107,-36.912 6.572,-1.445 23.013,-4.323 39.453,-1.768zM145.575,344.291 L77.437,393.986c-5.464,-2.073 -10.367,-5.215 -14.153,-9.825l75.003,-54.7c0.293,0.335 0.633,0.603 0.92,0.952 3.471,4.247 5.463,8.957 6.369,13.879M130.973,393.094c-6.893,1.873 -28.976,7.073 -47.512,2.721l62.701,-45.731c0.356,15.78 -8.549,32.669 -15.189,43.009m46.507,11.163 l-59.105,43.495c0.228,-12.111 4.761,-25.339 13.516,-38.593 0.669,-0.823 2.723,-3.416 5.361,-7.263 15.356,-2.937 29.103,-2.052 40.228,2.361m19.984,15.463c3.708,5.276 6.048,11.279 7.037,17.549l-65.805,48.427c-5.336,-3.239 -9.951,-7.575 -13.409,-12.896 -3.731,-5.737 -5.912,-12.156 -6.637,-19.013l64.023,-47.115c5.928,3.211 10.939,7.564 14.792,13.048m0.427,49.373c-4.259,6.951 -7.956,13.811 -11.157,20.377 -5.099,0.517 -10.376,1.212 -15.789,2.128 -9.588,1.624 -19.039,0.309 -27.255,-3.343l61.307,-45.115c0.203,8.804 -2.135,17.847 -7.105,25.952m19.091,29.249 l-33.275,25.139c2.34,-7.001 5.505,-15.371 9.676,-24.483 8.591,-0.655 16.541,-0.796 23.599,-0.656M55.151,359.454 L114.615,315.693c7.307,1.877 14.335,4.992 20.144,10.116l-74.333,54.213c-0.088,-0.156 -0.193,-0.293 -0.28,-0.452 -3.525,-6.393 -4.908,-13.251 -4.995,-20.116m42.187,-113.724 l-10.048,0.067C87.326,252.281 85.809,259.253 83.617,265.978L24.257,309.814c-6.793,-0.508 -13.527,-1.705 -19.303,-4.068l-3.807,9.3c17.547,7.179 41.385,5.316 54.593,3.449 -8.571,17.104 -16.921,43.197 -4.4,65.929 14.929,27.076 51.073,24.697 71.069,20.953 -16.629,26.201 -18.705,52.663 -5.549,72.903 11.621,17.879 33.515,26.999 55.765,23.229 3.123,-0.531 6.185,-0.957 9.216,-1.341 -10.008,23.211 -13.509,40.72 -13.707,41.74l9.867,1.908c0.024,-0.123 0.937,-4.675 3.101,-12.063l43.863,-33.14c13.84,0.719 22.565,2.347 22.736,2.379l1.903,-9.867c-0.633,-0.123 -7.591,-1.435 -18.796,-2.263l-0.465,-0.617 -0.717,0.543c-8.421,-0.585 -19.076,-0.859 -31.169,-0.207 2.412,-4.665 5.057,-9.429 8.004,-14.235 3.775,-6.161 6.308,-12.779 7.608,-19.505 2.761,-14.281 -0.049,-29.039 -8.381,-40.9 -12.612,-17.949 -34.681,-26.152 -61.497,-23.248 10.053,-18.076 19.919,-45.689 2.803,-66.643 -7.207,-8.817 -16.517,-14.128 -26.299,-17.2L119.805,305.641 118.901,306.306C103.447,301.902 87.083,302.873 76.083,304.469 80.275,297.979 97.486,269.851 97.338,245.73" stroke-opacity="0.25" stroke="#00000000" fill-rule="nonzero" fill-opacity="0.25"/><path fill="#ffffff" d="m123.821,470.194 l2.977,4.043 71.603,-52.692 -2.979,-4.045z" stroke-opacity="0.25" stroke="#00000000" fill-rule="nonzero" fill-opacity="0.25"/></g><path fill="#ffffff" d="m127.4,543.368c4.377,0.847 7.24,5.083 6.393,9.46 -0.845,4.377 -5.08,7.239 -9.457,6.395 -4.379,-0.848 -7.241,-5.083 -6.396,-9.46C118.787,545.385 123.021,542.521 127.4,543.368" stroke="#00000000" fill-rule="nonzero"/><g><path fill="#ffffff" d="m214.079,339.87c4.379,0.847 7.241,5.081 6.395,9.459 -0.847,4.377 -5.081,7.24 -9.46,6.395 -4.377,-0.847 -7.24,-5.081 -6.393,-9.459C205.467,341.888 209.702,339.023 214.079,339.87" stroke-opacity="0.25" stroke="#00000000" fill-rule="nonzero" fill-opacity="0.25"/></g><g><path fill="#ffffff" d="m35.966,465.198c3.753,0.725 6.205,4.356 5.48,8.108 -0.725,3.753 -4.353,6.207 -8.107,5.481 -3.752,-0.725 -6.207,-4.355 -5.481,-8.108C28.583,466.928 32.214,464.473 35.966,465.198" stroke-opacity="0.25" stroke="#00000000" fill-rule="nonzero" fill-opacity="0.25"/></g><g><path fill="#ffffff" d="M255.709,446.593C258.21,447.076 259.847,449.497 259.363,451.998 258.879,454.499 256.458,456.134 253.958,455.651 251.455,455.169 249.821,452.747 250.303,450.246 250.787,447.745 253.207,446.109 255.709,446.593" stroke-opacity="0.25" stroke="#00000000" fill-rule="nonzero" fill-opacity="0.25"/></g><g><path fill="#ffffff" d="m120.798,220.813c5.003,0.968 8.275,5.807 7.308,10.811 -0.968,5.003 -5.808,8.275 -10.811,7.308 -5.003,-0.968 -8.275,-5.808 -7.308,-10.811C110.956,223.118 115.796,219.846 120.798,220.813" stroke-opacity="0.25" stroke="#00000000" fill-rule="nonzero" fill-opacity="0.25"/></g><g><path fill="#ffffff" d="M63.429,444.665C65.932,445.149 67.568,447.569 67.084,450.071 66.6,452.571 64.18,454.207 61.679,453.723 59.176,453.241 57.54,450.819 58.024,448.319 58.508,445.817 60.928,444.182 63.429,444.665" stroke-opacity="0.25" stroke="#00000000" fill-rule="nonzero" fill-opacity="0.25"/></g><path fill="#ffffff" d="M223.531,557.646C226.033,558.129 227.67,560.55 227.186,563.05 226.702,565.553 224.282,567.188 221.781,566.705 219.279,566.222 217.643,563.801 218.127,561.3 218.61,558.798 221.03,557.162 223.531,557.646" stroke="#00000000" fill-rule="nonzero"/><g><path fill="#ffffff" d="M137.4,514.181C139.276,514.544 140.504,516.359 140.141,518.236 139.779,520.111 137.963,521.339 136.087,520.976 134.211,520.613 132.983,518.797 133.345,516.923 133.708,515.045 135.524,513.82 137.4,514.181" stroke-opacity="0.25" stroke="#00000000" fill-rule="nonzero" fill-opacity="0.25"/></g><g><path fill="#ffffff" d="M160.705,306.058C163.207,306.542 164.844,308.961 164.36,311.464 163.876,313.965 161.455,315.601 158.955,315.117 156.452,314.634 154.817,312.214 155.3,309.712 155.784,307.21 158.204,305.574 160.705,306.058" stroke-opacity="0.25" stroke="#00000000" fill-rule="nonzero" fill-opacity="0.25"/></g><g><path fill="#ffffff" d="m230.054,396.994c3.753,0.725 6.207,4.356 5.481,8.108 -0.725,3.753 -4.355,6.207 -8.108,5.48 -3.752,-0.725 -6.207,-4.355 -5.481,-8.107C222.673,398.723 226.302,396.269 230.054,396.994" stroke-opacity="0.25" stroke="#00000000" fill-rule="nonzero" fill-opacity="0.25"/></g><g><path fill="#ffffff" d="M285.782,339.635C288.283,340.117 289.919,342.537 289.437,345.04 288.953,347.541 286.533,349.176 284.031,348.693 281.53,348.211 279.893,345.789 280.377,343.288 280.861,340.787 283.281,339.151 285.782,339.635" stroke-opacity="0.25" stroke="#00000000" fill-rule="nonzero" fill-opacity="0.25"/></g></g><g id="g_3"><g clip-path="url(#clip_path_3)"><path fill="#ffffff" d="m281.779,104.739c0,28.817 -23.361,52.179 -52.179,52.179 -28.817,-0 -52.179,-23.361 -52.179,-52.179 0,-28.817 23.361,-52.179 52.179,-52.179C258.417,52.561 281.779,75.922 281.779,104.739" stroke-opacity="0.19999701" stroke="#00000000" fill-rule="nonzero" fill-opacity="0.19999701"/></g><g><path fill="#ffffff" d="m292.086,104.739c0,34.509 -27.976,62.485 -62.485,62.485 -34.511,-0 -62.487,-27.976 -62.487,-62.485 0,-34.509 27.976,-62.485 62.487,-62.485C264.11,42.254 292.086,70.23 292.086,104.739" stroke-opacity="0.42999303" stroke="#00000000" fill-rule="nonzero" fill-opacity="0.42999303"/></g><path fill="#2a229e" d="m229.601,53.137c-28.453,-0 -51.603,23.148 -51.603,51.603 0,28.453 23.149,51.601 51.603,51.601 28.453,-0 51.601,-23.148 51.601,-51.601C281.202,76.285 258.054,53.137 229.601,53.137m0,104.357c-29.089,-0 -52.755,-23.665 -52.755,-52.755 0,-29.089 23.665,-52.755 52.755,-52.755 29.088,-0 52.753,23.665 52.753,52.755 0,29.089 -23.665,52.755 -52.753,52.755" stroke="#00000000" fill-rule="nonzero"/><g><path fill="#ffffff" d="m631.526,290.621c0,28.764 -23.317,52.081 -52.083,52.081 -28.763,-0 -52.08,-23.317 -52.08,-52.081 0,-28.764 23.317,-52.081 52.08,-52.081C608.208,238.54 631.526,261.857 631.526,290.621" stroke-opacity="0.19999701" stroke="#00000000" fill-rule="nonzero" fill-opacity="0.19999701"/></g><g><path fill="#ffffff" d="m641.813,290.621c0,34.445 -27.924,62.369 -62.369,62.369 -34.445,-0 -62.371,-27.924 -62.371,-62.369 0,-34.445 27.925,-62.369 62.371,-62.369C613.889,228.252 641.813,256.176 641.813,290.621" stroke-opacity="0.42999303" stroke="#00000000" fill-rule="nonzero" fill-opacity="0.42999303"/></g><path fill="#2a229e" d="m579.445,239.114c-28.401,-0 -51.508,23.105 -51.508,51.507 0,28.4 23.107,51.505 51.508,51.505 28.4,-0 51.505,-23.105 51.505,-51.505C630.95,262.22 607.845,239.114 579.445,239.114m0,104.164c-29.036,-0 -52.657,-23.623 -52.657,-52.657 0,-29.035 23.621,-52.657 52.657,-52.657 29.033,-0 52.656,23.623 52.656,52.657 0,29.035 -23.623,52.657 -52.656,52.657" stroke="#00000000" fill-rule="nonzero"/><g><path fill="#ffffff" d="m521.223,123.948c0,30.853 -25.012,55.864 -55.864,55.864 -30.853,-0 -55.865,-25.011 -55.865,-55.864 0,-30.853 25.012,-55.864 55.865,-55.864C496.211,68.084 521.223,93.094 521.223,123.948" stroke-opacity="0.19999701" stroke="#00000000" fill-rule="nonzero" fill-opacity="0.19999701"/></g><g><path fill="#ffffff" d="m532.259,123.948c0,36.948 -29.952,66.9 -66.9,66.9 -36.948,-0 -66.9,-29.952 -66.9,-66.9 0,-36.947 29.952,-66.9 66.9,-66.9C502.307,57.048 532.259,87.001 532.259,123.948" stroke-opacity="0.42999303" stroke="#00000000" fill-rule="nonzero" fill-opacity="0.42999303"/></g><path fill="#FF00FF" d="m465.359,68.7c-30.464,-0 -55.248,24.784 -55.248,55.248 0,30.463 24.784,55.247 55.248,55.247 30.465,-0 55.248,-24.784 55.248,-55.247C520.607,93.484 495.824,68.7 465.359,68.7m0,111.729c-31.144,-0 -56.481,-25.339 -56.481,-56.481 0,-31.144 25.337,-56.483 56.481,-56.483 31.144,-0 56.481,25.339 56.481,56.483 0,31.143 -25.337,56.481 -56.481,56.481" stroke="#00000000" fill-rule="nonzero"/><path fill="#FF00FF" d="M239.925,123.103C245.437,126.755 252.867,125.247 256.519,119.735 260.171,114.223 258.663,106.793 253.151,103.141L236.933,92.395 223.706,112.356Z" stroke="#00000000" fill-rule="nonzero"/><path fill="#FF00FF" d="M216.198,99.302C216.883,98.269 218.277,97.986 219.31,98.67 220.343,99.355 220.626,100.749 219.941,101.782 219.255,102.815 217.863,103.098 216.83,102.413 215.797,101.729 215.514,100.335 216.198,99.302m-12.475,-8.267c0.684,-1.033 2.077,-1.316 3.111,-0.632C207.867,91.089 208.15,92.482 207.465,93.515 206.781,94.549 205.387,94.831 204.354,94.146 203.321,93.462 203.038,92.069 203.723,91.035m10.791,-0.031C215.199,89.971 216.593,89.689 217.626,90.374 218.659,91.058 218.942,92.451 218.257,93.485 217.573,94.518 216.179,94.802 215.146,94.117 214.113,93.431 213.83,92.038 214.514,91.005M224.479,92.222C225.165,91.189 226.558,90.906 227.591,91.591 228.625,92.275 228.907,93.669 228.223,94.702 227.538,95.735 226.145,96.018 225.111,95.334 224.078,94.649 223.795,93.255 224.479,92.222m-12.896,-10.34c0.685,-1.035 2.079,-1.317 3.112,-0.632 1.033,0.685 1.316,2.079 0.631,3.111 -0.684,1.033 -2.077,1.317 -3.111,0.632 -1.035,-0.685 -1.317,-2.079 -0.632,-3.111M234.438,90.742 L218.219,79.995C212.707,76.342 205.278,77.85 201.626,83.362 197.974,88.874 199.481,96.303 204.993,99.955L221.211,110.702Z" stroke="#00000000" fill-rule="nonzero"/><g><path fill="#ffffff" d="m161.041,485.21c0,26.437 -21.432,47.868 -47.868,47.868 -26.437,-0 -47.869,-21.431 -47.869,-47.868 0,-26.437 21.432,-47.868 47.869,-47.868C139.609,437.342 161.041,458.773 161.041,485.21" stroke-opacity="0.19999701" stroke="#00000000" fill-rule="nonzero" fill-opacity="0.19999701"/></g><g><path fill="#ffffff" d="m170.496,485.21c0,31.659 -25.665,57.324 -57.324,57.324 -31.66,-0 -57.325,-25.665 -57.325,-57.324 0,-31.66 25.665,-57.324 57.325,-57.324C144.831,427.886 170.496,453.55 170.496,485.21" stroke-opacity="0.42999303" stroke="#00000000" fill-rule="nonzero" fill-opacity="0.42999303"/></g><path fill="#FF00FF" d="m113.172,437.87c-26.104,-0 -47.34,21.236 -47.34,47.34 0,26.103 21.236,47.34 47.34,47.34 26.104,-0 47.34,-21.237 47.34,-47.34C160.512,459.106 139.276,437.87 113.172,437.87m0,95.737c-26.687,-0 -48.397,-21.711 -48.397,-48.397 0,-26.687 21.711,-48.399 48.397,-48.399 26.687,-0 48.397,21.712 48.397,48.399C161.569,511.897 139.859,533.607 113.172,533.607" stroke="#00000000" fill-rule="nonzero"/><path fill="#FF00FF" d="M85.65,508.801L85.65,508.801L93.458,502.025 94.023,502.773Z" stroke="#00000000" fill-rule="nonzero"/><path fill="#FF00FF" d="M116.586,492.494 L114.482,494.081 107.138,484.354 108.354,483.435 119.859,474.747 127.203,484.477 117.239,492.001 118.435,493.153 129.69,484.657 120.649,472.683 94.458,492.458 92.243,503.529 103.498,504.431 118.305,493.251C117.853,493.135 117.245,492.89 116.586,492.494" stroke="#00000000" fill-rule="nonzero"/><path fill="#FF00FF" d="m112.94,487.857 l-4.587,-4.421 -1.216,0.917 7.345,9.728 2.103,-1.587C115.187,491.652 113.594,490.149 112.94,487.857" stroke="#00000000" fill-rule="nonzero"/><path fill="#FF00FF" d="M116.586,492.494C117.245,492.89 117.853,493.135 118.305,493.251L118.435,493.153 117.239,492.001Z" stroke="#00000000" fill-rule="nonzero"/><path fill="#FF00FF" d="M112.773,487.149C112.009,483.025 108.354,483.436 108.354,483.436L112.94,487.857C112.876,487.628 112.818,487.393 112.773,487.149" stroke="#00000000" fill-rule="nonzero"/><path fill="#FF00FF" d="m129.506,485.969 l-10.169,-13.469c-0.312,-0.413 -0.231,-1.001 0.183,-1.313 0.413,-0.312 1.001,-0.231 1.313,0.184L131.003,484.839C131.314,485.253 131.233,485.84 130.819,486.153 130.406,486.465 129.818,486.384 129.506,485.969" stroke="#00000000" fill-rule="nonzero"/><path fill="#FF00FF" d="m139.983,478.059 l-10.169,-13.469c-0.312,-0.413 -0.231,-1.001 0.183,-1.313 0.413,-0.312 1.001,-0.231 1.313,0.184L141.48,476.93C141.791,477.343 141.709,477.931 141.296,478.243 140.883,478.555 140.295,478.474 139.983,478.059" stroke="#00000000" fill-rule="nonzero"/><path fill="#FF00FF" d="M128.643,480.159 L124.689,474.921 133.669,468.141 137.623,473.379Z" stroke="#00000000" fill-rule="nonzero"/><g><path fill="#ffffff" d="m140.482,253.217c0,28.764 -23.317,52.081 -52.081,52.081 -28.764,-0 -52.081,-23.317 -52.081,-52.081 0,-28.764 23.317,-52.083 52.081,-52.083C117.165,201.135 140.482,224.453 140.482,253.217" stroke-opacity="0.19999701" stroke="#00000000" fill-rule="nonzero" fill-opacity="0.19999701"/></g><g><path fill="#ffffff" d="m150.77,253.217c0,34.445 -27.924,62.369 -62.369,62.369 -34.447,-0 -62.371,-27.924 -62.371,-62.369 0,-34.445 27.924,-62.369 62.371,-62.369C122.846,190.848 150.77,218.772 150.77,253.217" stroke-opacity="0.42999303" stroke="#00000000" fill-rule="nonzero" fill-opacity="0.42999303"/></g><path fill="#FF00FF" d="m88.401,201.711c-28.401,-0 -51.507,23.105 -51.507,51.507 0,28.4 23.105,51.505 51.507,51.505 28.4,-0 51.505,-23.105 51.505,-51.505C139.907,224.816 116.801,201.711 88.401,201.711m0,104.163c-29.036,-0 -52.657,-23.621 -52.657,-52.656 0,-29.035 23.621,-52.657 52.657,-52.657 29.035,-0 52.656,23.623 52.656,52.657 0,29.035 -23.621,52.656 -52.656,52.656" stroke="#00000000" fill-rule="nonzero"/><path fill="#FF00FF" d="M92.232,252.043L88.389,252.043L88.389,248.201L84.545,248.201L84.545,252.043l-3.841,-0l0,3.843l3.841,-0l0,3.843l3.844,-0l0,-3.843L92.232,255.886Z" stroke="#00000000" fill-rule="nonzero"/><path fill="#FF00FF" d="m87.044,263.188c-5.093,-0 -9.223,-4.129 -9.223,-9.223 0,-5.093 4.129,-9.223 9.223,-9.223 5.093,-0 9.223,4.129 9.223,9.223C96.267,259.059 92.137,263.188 87.044,263.188m22.063,-26.516l-42.972,-0c-2.46,-0 -4.453,1.993 -4.453,4.453L61.681,267.957c0,2.459 1.993,4.453 4.453,4.453l42.972,-0c2.46,-0 4.453,-1.995 4.453,-4.453l0,-26.832c0,-2.46 -1.993,-4.453 -4.453,-4.453" stroke="#00000000" fill-rule="nonzero"/><path fill="#FF00FF" d="m99.437,238.978l-2.305,-0l0,-2.189c0,-2.308 -0.905,-3.575 -1.205,-3.575l-16.611,-0c-0.3,-0 -1.207,1.267 -1.207,3.575L78.109,238.978l-2.305,-0l0,-2.189c0,-3.352 1.509,-5.881 3.512,-5.881L95.926,230.907C97.928,230.907 99.437,233.436 99.437,236.788Z" stroke="#00000000" fill-rule="nonzero"/><path fill="#FF00FF" d="m455.919,115.422 l8.575,22.148 8.468,-33.873 7.533,24.817L494.132,128.514c1.496,-3.384 2.399,-6.969 2.399,-10.696 0,-10.905 -8.041,-19.747 -17.963,-19.747 -5.14,-0 -9.773,2.377 -13.047,6.183 -3.275,-3.805 -7.908,-6.183 -13.048,-6.183 -9.92,-0 -18.353,8.848 -17.963,19.747 0.123,3.423 1.025,6.755 2.444,9.94l11.915,-0z" stroke="#00000000" fill-rule="nonzero"/><path fill="#FF00FF" d="m473.208,113.624 l-8.171,32.685 -9.58,-24.745 -5.052,8.841l-12.137,-0c8.267,15.127 27.253,26.284 27.253,26.284 0,-0 19.072,-10.469 27.303,-25.528L478.532,131.161Z" stroke="#00000000" fill-rule="nonzero"/><path fill="#FF00FF" d="M597.718,269.655C597.377,268.807 596.209,265.76 595.542,262.265L606.888,272.704C603.025,271.908 599.812,270.557 599.801,270.553 599.676,270.491 598.913,270.119 597.718,269.655m-11.896,0.564c3.699,-0.327 7.476,0.639 9.981,1.511 0.688,1.592 2.22,5.612 2.379,9.897zM592.437,292.599 L576.528,277.788c0.259,-1.484 0.813,-2.879 1.795,-4.061l17.511,16.303c-0.071,0.091 -0.123,0.189 -0.197,0.279 -0.904,1.087 -1.999,1.821 -3.199,2.291m-13.064,-1.307c-0.811,-1.653 -3.207,-6.987 -3.013,-11.891L590.998,293.031c-3.975,0.863 -8.685,-0.565 -11.625,-1.739m-0.551,12.313 l-13.897,-12.828c3.076,-0.536 6.645,-0.035 10.428,1.532 0.24,0.129 0.997,0.521 2.1,1.001 1.495,3.741 1.943,7.264 1.369,10.295m-2.935,5.813c-1.153,1.196 -2.557,2.083 -4.096,2.639L556.318,297.775c0.559,-1.509 1.429,-2.888 2.607,-4.024 1.269,-1.224 2.788,-2.091 4.488,-2.609l15.053,13.896c-0.523,1.657 -1.38,3.137 -2.579,4.381m-12.473,2.523c-1.965,-0.737 -3.883,-1.337 -5.701,-1.827 -0.38,-1.264 -0.813,-2.565 -1.311,-3.891 -0.88,-2.347 -1.009,-4.803 -0.488,-7.06l14.416,13.305c-2.219,0.483 -4.621,0.333 -6.916,-0.528m-6.467,6.261 l-7.988,-7.189c1.885,0.249 4.159,0.641 6.668,1.251 0.585,2.141 1.009,4.147 1.32,5.939m27.229,-47.743 l13.981,12.907c-0.117,1.94 -0.563,3.872 -1.575,5.592L579.23,272.801c0.035,-0.031 0.065,-0.064 0.1,-0.093 1.445,-1.205 3.113,-1.889 4.847,-2.248m30.84,5.112 l-0.508,-2.539C612.869,273.359 611.03,273.316 609.222,273.091L595.226,260.213c-0.203,-1.744 -0.231,-3.505 0.085,-5.083L592.772,254.623C591.813,259.413 593.452,265.355 594.57,268.605c-4.748,-1.332 -11.76,-2.168 -16.899,2.112 -6.121,5.103 -3.752,14.132 -1.825,19.008 -7.444,-2.927 -14.241,-2.157 -18.719,2.161 -3.956,3.816 -5.193,9.801 -3.152,15.248 0.288,0.764 0.547,1.519 0.791,2.267 -6.361,-1.397 -10.965,-1.427 -11.233,-1.427l0,2.589c0.033,-0 1.229,0.008 3.205,0.195l10.531,9.479c0.496,3.536 0.511,5.824 0.511,5.869l2.589,-0.001c0,-0.167 -0.008,-1.991 -0.345,-4.867l0.132,-0.148 -0.172,-0.155c-0.264,-2.16 -0.716,-4.869 -1.472,-7.897 1.297,0.383 2.632,0.819 3.993,1.329 1.743,0.653 3.543,0.971 5.308,0.971 3.748,-0 7.345,-1.433 9.939,-4.121 3.925,-4.069 4.921,-10.056 2.876,-16.699 5.064,1.66 12.535,2.805 17,-2.551 1.879,-2.255 2.767,-4.871 3.065,-7.496l0.263,-0.284 -0.212,-0.197c0.359,-4.125 -0.688,-8.219 -1.629,-10.923 1.847,0.743 9.805,3.721 15.903,2.504" stroke="#00000000" fill-rule="nonzero"/><path fill="#FF00FF" d="m559.514,293.253 l-0.877,0.951 16.836,15.541 0.877,-0.951z" stroke="#00000000" fill-rule="nonzero"/><g><path fill="#ffffff" d="m574.518,516.951c0,28.764 -23.317,52.083 -52.083,52.083 -28.763,-0 -52.08,-23.319 -52.08,-52.083 0,-28.763 23.317,-52.081 52.08,-52.081C551.2,464.87 574.518,488.188 574.518,516.951" stroke-opacity="0.19999701" stroke="#00000000" fill-rule="nonzero" fill-opacity="0.19999701"/></g><g><path fill="#ffffff" d="m584.805,516.951c0,34.447 -27.923,62.369 -62.369,62.369 -34.445,-0 -62.369,-27.923 -62.369,-62.369 0,-34.445 27.924,-62.368 62.369,-62.368C556.883,454.583 584.805,482.506 584.805,516.951" stroke-opacity="0.42999303" stroke="#00000000" fill-rule="nonzero" fill-opacity="0.42999303"/></g><path fill="#FF00FF" d="m522.437,465.446c-28.401,-0 -51.507,23.105 -51.507,51.505 0,28.401 23.105,51.507 51.507,51.507 28.401,-0 51.505,-23.105 51.505,-51.507C573.942,488.551 550.838,465.446 522.437,465.446m0,104.163c-29.036,-0 -52.657,-23.623 -52.657,-52.657 0,-29.035 23.621,-52.656 52.657,-52.656 29.033,-0 52.656,23.621 52.656,52.656 0,29.035 -23.623,52.657 -52.656,52.657" stroke="#00000000" fill-rule="nonzero"/><path fill="#FF00FF" d="m538.695,520.289c-1.673,-0 -3.028,-1.357 -3.028,-3.029 0,-1.672 1.355,-3.029 3.028,-3.029 1.673,-0 3.029,1.357 3.029,3.029C541.724,518.932 540.368,520.289 538.695,520.289m-9.541,27.868c-4.593,-0 -8.329,-3.736 -8.329,-8.331l0,-16.415c3.52,-0.984 7.015,-2.756 10.079,-5.068 0.475,3.437 3.161,6.16 6.581,6.689l0,14.793c0,4.595 -3.737,8.331 -8.331,8.331M546.571,517.26c0,-4.329 -3.492,-7.837 -7.811,-7.873 1.533,-2.837 2.661,-6.284 2.661,-10.301 0,-9.111 -5.6,-12.765 -8.827,-14.113 0.019,-0.141 0.043,-0.28 0.043,-0.428 0,-1.671 -1.357,-3.028 -3.029,-3.028 -1.673,-0 -3.029,1.357 -3.029,3.028 0,1.673 1.356,3.031 3.029,3.031 0.883,-0 1.669,-0.384 2.223,-0.985 2.768,1.1 7.773,4.229 7.773,12.496 0,3.395 -1.089,7.143 -3.193,10.637 -2.895,0.876 -5.077,3.375 -5.505,6.436 -2.952,2.489 -6.629,4.487 -10.991,5.612 -12.789,-3.301 -19.691,-14.121 -19.691,-22.685 0,-9.325 6.375,-12.116 8.715,-12.825 0.545,0.792 1.457,1.315 2.495,1.315 1.673,-0 3.028,-1.357 3.028,-3.031 0,-1.671 -1.355,-3.028 -3.028,-3.028 -1.671,-0 -3.025,1.353 -3.029,3.023 -2.761,0.885 -9.997,4.192 -9.997,14.547 0,7.351 3.763,12.801 6.92,16.079 3.728,3.872 8.679,6.847 13.679,8.244l0,16.419c0,5.596 4.552,10.148 10.148,10.148 5.595,-0 10.148,-4.552 10.148,-10.148l0,-14.721c4.065,-0.311 7.269,-3.7 7.269,-7.845" stroke="#00000000" fill-rule="nonzero"/><path fill="#fca9aa" d="m121.867,729.509c0,-0 101.288,-147.588 90.689,-167.905 -10.601,-20.316 -59.536,-96.515 -31.044,-148.471 33.064,-60.293 22.043,-118.641 28.525,-127.069 5.196,-6.755 32.32,8.029 35.009,43.437 3.889,51.216 -25.933,89.467 -12.967,95.949 13.079,6.539 108.557,-56.413 146.541,-14.896 37.984,41.516 11.34,151.932 -18.551,170.483C304.691,615.407 302.097,750.256 302.097,750.256 302.097,750.256 160.733,771.909 121.867,729.509" stroke="#00000000" fill-rule="nonzero"/></g><g id="g_4"><g clip-path="url(#clip_path_4)"><path fill="#d68085" d="m232.08,291.251c0,-0 -7.132,43.437 -3.889,79.095 3.241,35.656 -26.581,175.044 6.483,185.416 33.064,10.375 138.739,-10.372 142.628,36.307 3.891,46.679 81.688,-57.701 81.688,-57.701l-7.78,-42.14C451.21,492.227 252.178,274.395 232.08,291.251" stroke-opacity="0.16000402" stroke="#00000000" fill-rule="nonzero" fill-opacity="0.16000402"/></g><g><path fill="#d68085" d="M210.739,573.315C211.334,576.509 110.198,772.948 312.471,722.378 514.744,671.81 337.106,797.582 337.106,797.582l-196.437,-41.492 -70.017,-50.568c0,-0 116.155,-153.551 140.088,-132.207" stroke-opacity="0.16000402" stroke="#00000000" fill-rule="nonzero" fill-opacity="0.16000402"/></g></g><g id="g_5"><path fill="#fca9aa" d="M379.019,294.838C379.019,294.838 432.694,218.068 459.402,224.172 490.319,231.238 463.819,272.756 394.035,326.638 324.252,380.521 379.019,294.838 379.019,294.838" stroke="#00000000" fill-rule="nonzero" clip-path="url(#clip_path_5)"/></g><g id="g_6"><g clip-path="url(#clip_path_6)"><path fill="#d68085" d="M423.332,230.958C423.332,230.958 427.222,315.238 471.956,256.89 516.69,198.542 457.693,299.68 457.693,299.68l-45.211,12.169 -4.061,-28.377z" stroke-opacity="0.22999603" stroke="#00000000" fill-rule="nonzero" fill-opacity="0.22999603"/></g></g><g id="g_7"><path fill="#ea98a1" d="M451.216,314.741C451.216,314.741 420.534,306.323 400.218,333.705 379.902,361.088 428.013,359.377 451.216,314.741" stroke="#00000000" fill-rule="nonzero" clip-path="url(#clip_path_7)"/><path fill="#ea98a1" d="M452.697,376.851C452.697,376.851 426.104,364.768 403.713,386.648 381.323,408.527 425.187,413.953 452.697,376.851" stroke="#00000000" fill-rule="nonzero"/><path fill="#ea98a1" d="M447.968,429.342C447.968,429.342 421.564,416.634 399.174,438.512 376.783,460.391 420.459,466.443 447.968,429.342" stroke="#00000000" fill-rule="nonzero"/><path fill="#FF00FF" d="m410.899,556.086l-161.848,-0c-8.656,-0 -15.675,-7.019 -15.675,-15.675l0,-312.904c0,-8.657 7.019,-15.675 15.675,-15.675L410.899,211.833c8.656,-0 15.675,7.017 15.675,15.675L426.574,540.412C426.574,549.068 419.555,556.086 410.899,556.086" stroke="#00000000" fill-rule="nonzero"/><path fill="#FF00FF" d="m422.684,319.776l0,-0 0,-50.568c2.863,-0 5.187,2.321 5.187,5.187L427.871,314.59C427.871,317.454 425.547,319.776 422.684,319.776" stroke="#00000000" fill-rule="nonzero"/><path fill="#FF00FF" d="m237.266,299.679l0,-0 0,50.569c-2.864,-0 -5.187,-2.323 -5.187,-5.188L232.08,304.866C232.08,302.001 234.402,299.679 237.266,299.679" stroke="#00000000" fill-rule="nonzero"/><path fill="#FF00FF" d="M424.11,379.421L422.685,379.421L422.685,352.84L424.11,352.84c2.077,-0 3.76,1.684 3.76,3.761L427.87,375.661C427.87,377.737 426.187,379.421 424.11,379.421" stroke="#00000000" fill-rule="nonzero"/><path fill="#c8e6ff" d="m406.071,527.236l-152.192,-0c-7.921,-0 -14.344,-6.421 -14.344,-14.344l0,-279.215c0,-7.921 6.423,-14.344 14.344,-14.344L406.071,219.334c7.921,-0 14.344,6.423 14.344,14.344L420.415,512.892C420.415,520.815 413.992,527.236 406.071,527.236" stroke="#00000000" fill-rule="nonzero"/></g><g id="g_8"><g clip-path="url(#clip_path_8)"><path fill="#c8e6ff" d="M197.071,409.892 L376.005,153.16 444.078,157.05 202.906,479.91Z" stroke-opacity="0.27000403" stroke="#00000000" fill-rule="nonzero" fill-opacity="0.27000403"/></g><g><path fill="#c8e6ff" d="M219.233,490.417 L458.989,188.817 479.734,207.618 219.139,514.564Z" stroke-opacity="0.27000403" stroke="#00000000" fill-rule="nonzero" fill-opacity="0.27000403"/></g><g><path fill="#c8e6ff" d="M263.847,549.279C267.089,544.742 500.482,294.492 500.482,294.492L525.765,344.412 425.277,466.295 278.526,559.348 259.626,556.086" stroke-opacity="0.27000403" stroke="#00000000" fill-rule="nonzero" fill-opacity="0.27000403"/></g></g><g id="g_9"><path fill="#00000000" d="m337.106,541.823c0,3.939 -3.193,7.132 -7.131,7.132 -3.939,-0 -7.132,-3.193 -7.132,-7.132 0,-3.939 3.193,-7.132 7.132,-7.132C333.913,534.691 337.106,537.885 337.106,541.823Z" stroke-linejoin="miter" stroke-width="0.486" stroke="#ffffff" stroke-linecap="butt" clip-path="url(#clip_path_9)"/><path fill="#fca9aa" d="m432.018,323.105c0,-0 -21.199,24.732 -19.432,50.349 1.767,25.617 39.749,-11.483 45.049,-31.799C462.934,321.339 451.451,301.905 432.018,323.105" stroke="#00000000" fill-rule="nonzero"/><path fill="#fca9aa" d="m434.08,381.649c0,-0 -22.807,19.349 -24.921,42.829 -2.113,23.48 37.703,-4.645 45.453,-22.297C462.366,384.531 454.774,365.247 434.08,381.649" stroke="#00000000" fill-rule="nonzero"/><path fill="#fca9aa" d="M434.674,431.943C434.674,431.943 413.701,444.388 408.801,462.975 403.899,481.564 439.743,464.382 448.381,451.248 457.019,438.118 453.545,421.58 434.674,431.943" stroke="#00000000" fill-rule="nonzero"/><path fill="#fcc3cb" d="m433.774,375.909c-6.275,7.277 -14.769,10.24 -18.975,6.613 -4.205,-3.625 -2.528,-12.464 3.747,-19.743 6.275,-7.277 12.245,-7.309 16.451,-3.684C439.201,362.72 440.049,368.631 433.774,375.909" stroke="#00000000" fill-rule="nonzero"/><path fill="#fcc3cb" d="m430.38,427.407c-5.832,6.764 -13.728,9.517 -17.637,6.147 -3.908,-3.369 -2.348,-11.584 3.484,-18.349 5.832,-6.765 11.381,-6.795 15.291,-3.425C435.425,415.148 436.212,420.643 430.38,427.407" stroke="#00000000" fill-rule="nonzero"/><path fill="#fcc3cb" d="m424.947,466.253c-4.623,5.361 -10.88,7.543 -13.977,4.872 -3.099,-2.671 -1.861,-9.18 2.76,-14.543 4.623,-5.36 9.021,-5.384 12.119,-2.715C428.946,456.538 429.57,460.892 424.947,466.253" stroke="#00000000" fill-rule="nonzero"/><g><path fill="#FF00FF" d="m346.481,454.625l-147.764,-0c-2.7,-0 -4.888,2.189 -4.888,4.888l0,23.288c0,2.7 2.188,4.888 4.888,4.888l104.337,-0l6.823,8.428 8.027,-8.428L346.481,487.69c2.7,-0 4.888,-2.188 4.888,-4.888L351.369,459.513C351.369,456.815 349.181,454.625 346.481,454.625" stroke-opacity="0.11000103" stroke="#00000000" fill-rule="nonzero" fill-opacity="0.11000103"/></g><path fill="#ffffff" d="m346.481,450.088l-147.764,-0c-2.7,-0 -4.888,2.188 -4.888,4.887l0,23.289c0,2.699 2.188,4.888 4.888,4.888l104.337,-0l6.823,8.428 8.027,-8.428L346.481,483.152c2.7,-0 4.888,-2.189 4.888,-4.888L351.369,454.974C351.369,452.276 349.181,450.088 346.481,450.088" stroke="#00000000" fill-rule="nonzero"/></g><g id="g_10"><path fill="#3ea1de" d="m294.966,378.773 l3.889,39.547l59.645,-0l7.131,-53.161 -42.14,-6.483C323.492,358.675 287.834,355.434 294.966,378.773" stroke="#00000000" fill-rule="nonzero" clip-path="url(#clip_path_10)"/></g><g id="g_11"><g clip-path="url(#clip_path_11)"><path fill="#3ea1de" d="M287.835,362.566C287.097,365.051 363.687,373.587 376.004,359.323 396.353,335.762 293.021,345.06 287.835,362.566" stroke-opacity="0.5" stroke="#00000000" fill-rule="nonzero" fill-opacity="0.5"/></g></g><g id="g_12"><path fill="#fcc3cb" d="m207.444,319.776c0,-0 -4.539,-19.449 0.648,-35.008 0,-0 7.78,-4.539 7.78,5.185C215.872,299.679 207.444,319.776 207.444,319.776" stroke="#00000000" fill-rule="nonzero" clip-path="url(#clip_path_12)"/><path fill="#3ea1de" d="m331.272,207.618c0,-0 -30.471,9.077 -31.767,18.153 -1.297,9.076 0,134.848 0,134.848 0,-0 59.644,5.187 66.127,-0 6.484,-5.185 14.264,-143.276 8.429,-147.815C368.226,208.266 346.832,205.025 346.832,205.025Z" stroke="#00000000" fill-rule="nonzero"/><path fill="#f8fdff" d="m359.149,206.322c0,-0 -13.939,26.905 -12.641,57.376 1.296,30.471 2.592,158.836 2.592,158.836l32.416,-7.78l0,-178.933c0,-0 -5.173,-17.701 -22.367,-29.499" stroke="#00000000" fill-rule="nonzero"/></g><g id="g_13"><g clip-path="url(#clip_path_13)"><path fill="#6fbcff" d="m346.183,316.535 l42.14,-3.889 -10.373,-62.887c0,-0 14.263,36.953 -34.36,42.14C294.558,297.13 347.655,312.443 347.655,312.443" stroke-opacity="0.47000104" stroke="#00000000" fill-rule="nonzero" fill-opacity="0.47000104"/></g></g><g id="g_14"><path fill="#f8fdff" d="M323.712,210.166C323.712,210.166 316.037,228.688 314.74,279.256 313.442,329.826 311.498,422.534 311.498,422.534l-30.471,-2.593c0,-0 11.021,-180.879 18.153,-194.493C306.312,211.832 323.712,210.166 323.712,210.166" stroke="#00000000" fill-rule="nonzero" clip-path="url(#clip_path_14)"/><path fill="#f8fdff" d="m323.816,209.888c0,-0 -23.987,5.187 -32.416,11.669 -8.427,6.483 -25.932,51.217 -29.173,50.568 -3.241,-0.648 -30.471,-34.36 -35.009,-36.305 0,-0 -11.021,16.856 -14.263,17.505 0,-0 33.064,46.029 44.733,53.161 11.671,7.131 39.547,-31.767 39.547,-31.767z" stroke="#00000000" fill-rule="nonzero"/><path fill="#ffc6ba" d="M314.25,143.828C314.25,144.977 308.501,162.228 314.25,181.777 319.999,201.328 330.35,199.028 330.35,199.028c0,-0 -1.151,8.051 -4.6,11.5l5.751,12.651 25.703,-16.208c0,-0 -9.604,-20.592 -1.553,-38.993C363.699,149.577 332.65,120.828 315.399,143.828" stroke="#00000000" fill-rule="nonzero"/><path fill="#FF00FF" d="m352.304,162.228c0,-0 1.037,16.601 -7.263,18.677 -8.301,2.075 -16.601,-6.227 -23.865,-3.113 -7.263,3.113 -8.301,-3.113 -8.301,-3.113 0,-0 -2.075,13.489 -2.075,16.603 0,3.113 6.225,11.413 13.489,11.413 7.263,-0 28.015,-11.413 31.127,-17.639 3.113,-6.227 0,-22.828 0,-22.828z" stroke="#00000000" fill-rule="nonzero"/><path fill="#FF00FF" d="m338.401,147.278c0,-0 -21.759,6.749 -27.6,-1.149 -8.703,-11.769 8.049,-18.401 16.1,-14.951 8.049,3.451 34.5,-4.6 29.9,12.651 0,-0 13.799,3.449 6.9,17.249 -6.9,13.8 -9.2,20.7 -9.2,20.7l0,-14.949C354.501,166.828 346.45,144.978 338.401,147.278" stroke="#00000000" fill-rule="nonzero"/><path fill="#ffc6ba" d="M217.903,235.892C217.903,235.892 213.503,231.261 212.705,227.492 212.587,226.936 211.845,226.814 211.561,227.306 210.384,229.344 209.091,233.046 212.631,236.144 217.817,240.682 217.903,235.892 217.903,235.892" stroke="#00000000" fill-rule="nonzero"/><path fill="#ffc6ba" d="m223.652,244.572c-0.648,-0 -3.241,-8.428 -7.78,-9.076 -4.537,-0.648 -13.615,-0 -14.911,-0 -1.297,-0 -12.317,-7.132 -17.504,-3.241 0,-0 13.613,4.539 15.559,7.131 1.945,2.593 11.021,9.076 20.097,10.373" stroke="#00000000" fill-rule="nonzero"/><g><path fill="#6fbcff" d="m362.415,209.82 l5.487,21.461l-7.131,-0l3.24,14.263 -17.045,32.745 20.936,-30.8 -3.891,-14.911L370.495,232.579Z" stroke-opacity="0.47000104" stroke="#00000000" fill-rule="nonzero" fill-opacity="0.47000104"/></g><g><path fill="#6fbcff" d="m321.547,211.022 l-18.801,16.695l4.539,-0l-5.835,12.967 11.669,27.228 -9.076,-27.228 5.835,-13.615 -3.241,-1.297z" stroke-opacity="0.47000104" stroke="#00000000" fill-rule="nonzero" fill-opacity="0.47000104"/></g><path fill="#FF00FF" d="M258.013,261.105L312.471,261.105L332.569,327.881L278.11,327.881Z" stroke="#00000000" fill-rule="nonzero"/><path fill="#ffc6ba" d="M334.189,300.327C334.189,300.327 329.588,293.215 321.84,292.233L323.602,298.09c0,-0 -13.401,-2.949 -16.643,-5.543 -3.241,-2.593 -1.944,9.724 1.297,12.319 3.241,2.593 8.428,5.835 10.373,7.131 1.944,1.297 16.207,-0.648 16.207,-0.648z" stroke="#00000000" fill-rule="nonzero"/><path fill="#f8fdff" d="m359.473,207.295c0,-0 28.527,7.131 37.601,15.559 9.077,8.428 15.56,67.425 11.671,74.556 -3.891,7.132 -68.397,19.125 -73.583,19.125 0,-0 0,-17.504 -4.54,-20.097 0,-0 47.003,-8.104 48.948,-12.643C381.516,279.257 378.923,220.909 359.473,207.295" stroke="#00000000" fill-rule="nonzero"/><path fill="#00000000" d="m335.998,162.789c0.147,4.695 -2.216,8.579 -5.276,8.675 -3.06,0.095 -5.66,-3.635 -5.807,-8.329 -0.147,-4.696 2.216,-8.58 5.277,-8.676C333.253,154.364 335.853,158.093 335.998,162.789Z" stroke-linejoin="miter" stroke-width="0.80900002" stroke="#453e6b" stroke-linecap="butt"/><path fill="#00000000" d="m319.934,162.703c0.147,4.695 -2.217,8.58 -5.277,8.675 -3.06,0.096 -5.66,-3.633 -5.807,-8.329 -0.147,-4.696 2.216,-8.58 5.277,-8.676C317.188,154.278 319.788,158.007 319.934,162.703Z" stroke-linejoin="miter" stroke-width="0.80900002" stroke="#453e6b" stroke-linecap="butt"/><path fill="#00000000" d="M335.809,162.885 L357.204,166.775" stroke-linejoin="miter" stroke-width="0.80900002" stroke="#453e6b" stroke-linecap="butt"/><path fill="#00000000" d="M319.602,162.237C319.602,162.237 322.196,160.293 324.938,161.945" stroke-linejoin="miter" stroke-width="0.80900002" stroke="#453e6b" stroke-linecap="butt"/><path fill="#ffc6ba" d="m360.987,172.629c-1.541,3.135 -4.408,4.88 -6.403,3.899 -1.995,-0.981 -2.361,-4.317 -0.82,-7.452 1.541,-3.135 4.409,-4.88 6.404,-3.899C362.163,166.159 362.529,169.495 360.987,172.629" stroke="#00000000" fill-rule="nonzero"/></g><g id="g_15"><path fill="#ffffff" d="m388.324,516.215l-119.939,-0c-5.012,-0 -9.076,-4.064 -9.076,-9.077 0,-5.012 4.064,-9.075 9.076,-9.075L388.324,498.063c5.012,-0 9.076,4.063 9.076,9.075C397.4,512.151 393.336,516.215 388.324,516.215" stroke="#00000000" fill-rule="nonzero" clip-path="url(#clip_path_15)"/><path fill="#FF00FF" d="m277.462,507.138c0,3.939 -3.193,7.132 -7.132,7.132 -3.937,-0 -7.131,-3.193 -7.131,-7.132 0,-3.939 3.193,-7.132 7.131,-7.132C274.268,500.006 277.462,503.2 277.462,507.138" stroke="#00000000" fill-rule="nonzero"/><path fill="#FF00FF" d="m224.949,462.56c0,-2.921 -2.369,-5.915 -5.292,-5.915 -2.817,-0 -5.115,2.205 -5.275,4.983L214.366,461.627 214.35,461.628c-0.16,-2.777 -2.457,-4.983 -5.275,-4.983 -2.923,-0 -5.292,2.993 -5.292,5.915 0,0.349 0.036,0.691 0.101,1.021l-0.001,-0c0,-0 1.145,8.005 10.483,11.74 9.337,-3.735 10.483,-11.74 10.483,-11.74L224.847,463.582C224.913,463.251 224.949,462.91 224.949,462.56" stroke="#00000000" fill-rule="nonzero"/><path fill="#FF00FF" d="m332.568,459.163l-99.192,-0l0,1.945l99.192,-0z" stroke="#00000000" fill-rule="nonzero"/><path fill="#FF00FF" d="m332.568,462.837l-99.192,-0l0,1.945l99.192,-0z" stroke="#00000000" fill-rule="nonzero"/><path fill="#FF00FF" d="m332.568,466.511l-99.192,-0l0,1.945l99.192,-0z" stroke="#00000000" fill-rule="nonzero"/><path fill="#FF00FF" d="m269.035,470.185l-35.657,-0l0,1.944l35.657,-0z" stroke="#00000000" fill-rule="nonzero"/><g><path fill="#FF00FF" d="m248.638,397.575l147.764,-0c2.7,-0 4.888,2.188 4.888,4.887l0,23.289c0,2.699 -2.188,4.888 -4.888,4.888L292.064,430.639l-6.823,8.427 -8.027,-8.427L248.638,430.639c-2.7,-0 -4.888,-2.189 -4.888,-4.888L243.75,402.461C243.75,399.763 245.938,397.575 248.638,397.575" stroke-opacity="0.11000103" stroke="#00000000" fill-rule="nonzero" fill-opacity="0.11000103"/></g><path fill="#ffffff" d="m248.638,393.036l147.764,-0c2.7,-0 4.888,2.189 4.888,4.888l0,23.289c0,2.699 -2.188,4.887 -4.888,4.887L292.064,426.1l-6.823,8.428 -8.027,-8.428L248.638,426.1c-2.7,-0 -4.888,-2.188 -4.888,-4.887L243.75,397.924C243.75,395.225 245.938,393.036 248.638,393.036" stroke="#00000000" fill-rule="nonzero"/><path fill="#FF00FF" d="m262.551,402.112l99.192,-0l0,1.945l-99.192,-0z" stroke="#00000000" fill-rule="nonzero"/><path fill="#FF00FF" d="m262.551,405.785l99.192,-0l0,1.945l-99.192,-0z" stroke="#00000000" fill-rule="nonzero"/><path fill="#FF00FF" d="m262.551,409.46l99.192,-0l0,1.944l-99.192,-0z" stroke="#00000000" fill-rule="nonzero"/><path fill="#FF00FF" d="m326.085,413.133l35.657,-0l0,1.945l-35.657,-0z" stroke="#00000000" fill-rule="nonzero"/><path fill="#FF00FF" d="m385.606,402.516c0,2.184 -1.771,3.955 -3.955,3.955 -2.184,-0 -3.955,-1.771 -3.955,-3.955 0,-2.185 1.771,-3.956 3.955,-3.956C383.836,398.56 385.606,400.331 385.606,402.516" stroke="#00000000" fill-rule="nonzero"/></g><g id="g_16"><path fill="#FF00FF" d="m377.697,398.56l7.909,-0l0,7.911l-7.909,-0z" stroke="#00000000" fill-rule="nonzero" clip-path="url(#clip_path_16)"/><path fill="#FF00FF" d="m385.606,402.516c0,2.184 -1.771,3.955 -3.955,3.955 -2.184,-0 -3.955,-1.771 -3.955,-3.955 0,-2.185 1.771,-3.956 3.955,-3.956C383.836,398.56 385.606,400.331 385.606,402.516" stroke="#00000000" fill-rule="nonzero"/><path fill="#FF00FF" d="m385.526,402.516c0,2.139 -1.735,3.873 -3.873,3.873 -2.14,-0 -3.875,-1.735 -3.875,-3.873 0,-2.139 1.735,-3.875 3.875,-3.875C383.791,398.641 385.526,400.377 385.526,402.516" stroke="#00000000" fill-rule="nonzero"/><path fill="#FF00FF" d="m385.445,402.516c0,2.095 -1.697,3.793 -3.793,3.793 -2.095,-0 -3.792,-1.699 -3.792,-3.793 0,-2.095 1.697,-3.795 3.792,-3.795C383.747,398.721 385.445,400.421 385.445,402.516" stroke="#00000000" fill-rule="nonzero"/><path fill="#FF00FF" d="m385.364,402.516c0,2.051 -1.661,3.712 -3.712,3.712 -2.051,-0 -3.713,-1.661 -3.713,-3.712 0,-2.051 1.663,-3.713 3.713,-3.713C383.703,398.803 385.364,400.465 385.364,402.516" stroke="#00000000" fill-rule="nonzero"/><path fill="#FF00FF" d="m385.285,402.516c0,2.005 -1.627,3.632 -3.633,3.632 -2.005,-0 -3.632,-1.627 -3.632,-3.632 0,-2.007 1.627,-3.633 3.632,-3.633C383.658,398.883 385.285,400.509 385.285,402.516" stroke="#00000000" fill-rule="nonzero"/><path fill="#FF00FF" d="m385.204,402.516c0,1.961 -1.591,3.551 -3.552,3.551 -1.963,-0 -3.552,-1.589 -3.552,-3.551 0,-1.963 1.589,-3.552 3.552,-3.552C383.613,398.964 385.204,400.553 385.204,402.516" stroke="#00000000" fill-rule="nonzero"/><path fill="#FF00FF" d="m385.123,402.516c0,1.916 -1.555,3.472 -3.472,3.472 -1.916,-0 -3.471,-1.556 -3.471,-3.472 0,-1.916 1.555,-3.472 3.471,-3.472C383.569,399.044 385.123,400.6 385.123,402.516" stroke="#00000000" fill-rule="nonzero"/><path fill="#FF00FF" d="m385.043,402.516c0,1.872 -1.519,3.391 -3.391,3.391 -1.872,-0 -3.391,-1.519 -3.391,-3.391 0,-1.872 1.519,-3.391 3.391,-3.391C383.524,399.125 385.043,400.644 385.043,402.516" stroke="#00000000" fill-rule="nonzero"/><path fill="#FF00FF" d="m384.962,402.516c0,1.828 -1.481,3.309 -3.309,3.309 -1.829,-0 -3.311,-1.481 -3.311,-3.309 0,-1.828 1.481,-3.309 3.311,-3.309C383.48,399.207 384.962,400.688 384.962,402.516" stroke="#00000000" fill-rule="nonzero"/><path fill="#FF00FF" d="m384.881,402.516c0,1.783 -1.445,3.229 -3.229,3.229 -1.784,-0 -3.229,-1.447 -3.229,-3.229 0,-1.784 1.445,-3.229 3.229,-3.229C383.436,399.287 384.881,400.732 384.881,402.516" stroke="#00000000" fill-rule="nonzero"/><path fill="#FF00FF" d="m384.8,402.516c0,1.739 -1.411,3.148 -3.148,3.148 -1.74,-0 -3.149,-1.409 -3.149,-3.148 0,-1.74 1.409,-3.148 3.149,-3.148C383.39,399.368 384.8,400.776 384.8,402.516" stroke="#00000000" fill-rule="nonzero"/><path fill="#FF00FF" d="m384.72,402.516c0,1.695 -1.373,3.068 -3.068,3.068 -1.693,-0 -3.068,-1.373 -3.068,-3.068 0,-1.695 1.375,-3.068 3.068,-3.068C383.346,399.448 384.72,400.821 384.72,402.516" stroke="#00000000" fill-rule="nonzero"/><path fill="#FF00FF" d="m384.639,402.516c0,1.649 -1.337,2.987 -2.987,2.987 -1.651,-0 -2.987,-1.337 -2.987,-2.987 0,-1.649 1.336,-2.987 2.987,-2.987C383.301,399.529 384.639,400.867 384.639,402.516" stroke="#00000000" fill-rule="nonzero"/><path fill="#FF00FF" d="m384.558,402.516c0,1.605 -1.301,2.907 -2.907,2.907 -1.605,-0 -2.905,-1.301 -2.905,-2.907 0,-1.605 1.3,-2.908 2.905,-2.908C383.257,399.608 384.558,400.911 384.558,402.516" stroke="#00000000" fill-rule="nonzero"/><path fill="#FF00FF" d="m384.477,402.516c0,1.56 -1.264,2.825 -2.825,2.825 -1.561,-0 -2.825,-1.265 -2.825,-2.825 0,-1.561 1.264,-2.827 2.825,-2.827C383.213,399.689 384.477,400.955 384.477,402.516" stroke="#00000000" fill-rule="nonzero"/><path fill="#FF00FF" d="m384.397,402.516c0,1.516 -1.229,2.745 -2.745,2.745 -1.516,-0 -2.745,-1.229 -2.745,-2.745 0,-1.517 1.229,-2.747 2.745,-2.747C383.167,399.769 384.397,400.999 384.397,402.516" stroke="#00000000" fill-rule="nonzero"/><path fill="#FF00FF" d="m384.317,402.516c0,1.472 -1.195,2.664 -2.665,2.664 -1.472,-0 -2.665,-1.192 -2.665,-2.664 0,-1.472 1.193,-2.665 2.665,-2.665C383.123,399.851 384.317,401.044 384.317,402.516" stroke="#00000000" fill-rule="nonzero"/><path fill="#FF00FF" d="m384.237,402.516c0,1.427 -1.157,2.583 -2.584,2.583 -1.428,-0 -2.585,-1.156 -2.585,-2.583 0,-1.427 1.157,-2.584 2.585,-2.584C383.079,399.932 384.237,401.089 384.237,402.516" stroke="#00000000" fill-rule="nonzero"/><path fill="#FF00FF" d="m384.156,402.516c0,1.383 -1.121,2.503 -2.504,2.503 -1.383,-0 -2.504,-1.12 -2.504,-2.503 0,-1.383 1.121,-2.504 2.504,-2.504C383.034,400.012 384.156,401.133 384.156,402.516" stroke="#00000000" fill-rule="nonzero"/><path fill="#FF00FF" d="m384.075,402.516c0,1.337 -1.084,2.423 -2.423,2.423 -1.339,-0 -2.424,-1.085 -2.424,-2.423 0,-1.339 1.085,-2.423 2.424,-2.423C382.991,400.093 384.075,401.177 384.075,402.516" stroke="#00000000" fill-rule="nonzero"/><path fill="#FF00FF" d="m383.994,402.516c0,1.293 -1.049,2.343 -2.343,2.343 -1.295,-0 -2.343,-1.049 -2.343,-2.343 0,-1.295 1.048,-2.343 2.343,-2.343C382.945,400.173 383.994,401.221 383.994,402.516" stroke="#00000000" fill-rule="nonzero"/><path fill="#FF00FF" d="m383.914,402.516c0,1.249 -1.013,2.261 -2.261,2.261 -1.249,-0 -2.263,-1.012 -2.263,-2.261 0,-1.249 1.013,-2.261 2.263,-2.261C382.9,400.255 383.914,401.267 383.914,402.516" stroke="#00000000" fill-rule="nonzero"/><path fill="#FF00FF" d="m383.833,402.516c0,1.204 -0.976,2.181 -2.181,2.181 -1.204,-0 -2.18,-0.977 -2.18,-2.181 0,-1.204 0.976,-2.181 2.18,-2.181C382.857,400.335 383.833,401.312 383.833,402.516" stroke="#00000000" fill-rule="nonzero"/><path fill="#FF00FF" d="m383.752,402.516c0,1.16 -0.94,2.1 -2.1,2.1 -1.16,-0 -2.1,-0.94 -2.1,-2.1 0,-1.16 0.94,-2.1 2.1,-2.1C382.812,400.416 383.752,401.356 383.752,402.516" stroke="#00000000" fill-rule="nonzero"/><path fill="#FF00FF" d="m383.671,402.516c0,1.115 -0.904,2.02 -2.02,2.02 -1.116,-0 -2.019,-0.905 -2.019,-2.02 0,-1.116 0.903,-2.02 2.019,-2.02C382.767,400.496 383.671,401.4 383.671,402.516" stroke="#00000000" fill-rule="nonzero"/><path fill="#FF00FF" d="m383.591,402.516c0,1.071 -0.868,1.939 -1.939,1.939 -1.072,-0 -1.939,-0.868 -1.939,-1.939 0,-1.072 0.867,-1.94 1.939,-1.94C382.723,400.576 383.591,401.444 383.591,402.516" stroke="#00000000" fill-rule="nonzero"/><path fill="#FF00FF" d="m383.51,402.516c0,1.027 -0.832,1.859 -1.859,1.859 -1.025,-0 -1.857,-0.832 -1.857,-1.859 0,-1.028 0.832,-1.86 1.857,-1.86C382.678,400.656 383.51,401.488 383.51,402.516" stroke="#00000000" fill-rule="nonzero"/><path fill="#FF00FF" d="m383.429,402.516c0,0.981 -0.796,1.777 -1.777,1.777 -0.981,-0 -1.777,-0.796 -1.777,-1.777 0,-0.981 0.796,-1.779 1.777,-1.779C382.633,400.737 383.429,401.535 383.429,402.516" stroke="#00000000" fill-rule="nonzero"/><path fill="#FF00FF" d="m383.349,402.516c0,0.937 -0.759,1.696 -1.696,1.696 -0.939,-0 -1.699,-0.759 -1.699,-1.696 0,-0.937 0.76,-1.697 1.699,-1.697C382.59,400.819 383.349,401.579 383.349,402.516" stroke="#00000000" fill-rule="nonzero"/><path fill="#FF00FF" d="m383.269,402.516c0,0.892 -0.724,1.616 -1.617,1.616 -0.893,-0 -1.617,-0.724 -1.617,-1.616 0,-0.893 0.724,-1.617 1.617,-1.617C382.545,400.899 383.269,401.623 383.269,402.516" stroke="#00000000" fill-rule="nonzero"/><path fill="#FF00FF" d="m383.188,402.516c0,0.848 -0.689,1.535 -1.536,1.535 -0.849,-0 -1.537,-0.687 -1.537,-1.535 0,-0.849 0.688,-1.536 1.537,-1.536C382.499,400.98 383.188,401.667 383.188,402.516" stroke="#00000000" fill-rule="nonzero"/><path fill="#FF00FF" d="m383.108,402.516c0,0.804 -0.652,1.455 -1.456,1.455 -0.803,-0 -1.456,-0.651 -1.456,-1.455 0,-0.805 0.653,-1.456 1.456,-1.456C382.456,401.06 383.108,401.711 383.108,402.516" stroke="#00000000" fill-rule="nonzero"/><path fill="#FF00FF" d="m383.027,402.516c0,0.759 -0.616,1.375 -1.375,1.375 -0.76,-0 -1.376,-0.616 -1.376,-1.375 0,-0.759 0.616,-1.375 1.376,-1.375C382.411,401.141 383.027,401.757 383.027,402.516" stroke="#00000000" fill-rule="nonzero"/><path fill="#FF00FF" d="m382.946,402.516c0,0.715 -0.58,1.295 -1.295,1.295 -0.715,-0 -1.293,-0.58 -1.293,-1.295 0,-0.715 0.579,-1.295 1.293,-1.295C382.366,401.221 382.946,401.801 382.946,402.516" stroke="#00000000" fill-rule="nonzero"/><path fill="#FF00FF" d="m382.865,402.516c0,0.669 -0.543,1.213 -1.213,1.213 -0.671,-0 -1.213,-0.544 -1.213,-1.213 0,-0.671 0.543,-1.213 1.213,-1.213C382.323,401.303 382.865,401.845 382.865,402.516" stroke="#00000000" fill-rule="nonzero"/><path fill="#FF00FF" d="m382.785,402.516c0,0.625 -0.508,1.133 -1.133,1.133 -0.625,-0 -1.132,-0.508 -1.132,-1.133 0,-0.627 0.507,-1.133 1.132,-1.133C382.277,401.383 382.785,401.889 382.785,402.516" stroke="#00000000" fill-rule="nonzero"/><path fill="#FF00FF" d="m382.704,402.516c0,0.581 -0.472,1.052 -1.052,1.052 -0.581,-0 -1.052,-0.471 -1.052,-1.052 0,-0.583 0.471,-1.052 1.052,-1.052C382.232,401.464 382.704,401.933 382.704,402.516" stroke="#00000000" fill-rule="nonzero"/><path fill="#FF00FF" d="m382.623,402.516c0,0.536 -0.435,0.972 -0.972,0.972 -0.536,-0 -0.971,-0.436 -0.971,-0.972 0,-0.536 0.435,-0.972 0.971,-0.972C382.189,401.544 382.623,401.98 382.623,402.516" stroke="#00000000" fill-rule="nonzero"/><path fill="#FF00FF" d="m382.543,402.516c0,0.492 -0.399,0.891 -0.891,0.891 -0.492,-0 -0.891,-0.399 -0.891,-0.891 0,-0.492 0.399,-0.892 0.891,-0.892C382.144,401.624 382.543,402.024 382.543,402.516" stroke="#00000000" fill-rule="nonzero"/><path fill="#FF00FF" d="m382.462,402.516c0,0.448 -0.361,0.809 -0.809,0.809 -0.448,-0 -0.811,-0.361 -0.811,-0.809 0,-0.448 0.363,-0.811 0.811,-0.811C382.1,401.705 382.462,402.068 382.462,402.516" stroke="#00000000" fill-rule="nonzero"/><path fill="#FF00FF" d="m382.381,402.516c0,0.403 -0.327,0.729 -0.729,0.729 -0.404,-0 -0.731,-0.327 -0.731,-0.729 0,-0.404 0.327,-0.731 0.731,-0.731C382.054,401.785 382.381,402.112 382.381,402.516" stroke="#00000000" fill-rule="nonzero"/><path fill="#FF00FF" d="m382.3,402.516c0,0.359 -0.291,0.648 -0.648,0.648 -0.359,-0 -0.651,-0.289 -0.651,-0.648 0,-0.36 0.292,-0.649 0.651,-0.649C382.01,401.867 382.3,402.156 382.3,402.516" stroke="#00000000" fill-rule="nonzero"/><path fill="#FF00FF" d="m382.221,402.516c0,0.313 -0.255,0.568 -0.569,0.568 -0.313,-0 -0.569,-0.255 -0.569,-0.568 0,-0.313 0.256,-0.569 0.569,-0.569C381.966,401.947 382.221,402.203 382.221,402.516" stroke="#00000000" fill-rule="nonzero"/><path fill="#FF00FF" d="m382.14,402.516c0,0.269 -0.219,0.487 -0.488,0.487 -0.269,-0 -0.488,-0.217 -0.488,-0.487 0,-0.269 0.219,-0.488 0.488,-0.488C381.921,402.028 382.14,402.247 382.14,402.516" stroke="#00000000" fill-rule="nonzero"/><path fill="#FF00FF" d="m382.059,402.516c0,0.225 -0.183,0.408 -0.408,0.408 -0.225,-0 -0.407,-0.183 -0.407,-0.408 0,-0.225 0.181,-0.408 0.407,-0.408C381.877,402.108 382.059,402.291 382.059,402.516" stroke="#00000000" fill-rule="nonzero"/><path fill="#FF00FF" d="m381.979,402.516c0,0.18 -0.145,0.327 -0.327,0.327 -0.181,-0 -0.327,-0.147 -0.327,-0.327 0,-0.181 0.145,-0.327 0.327,-0.327C381.833,402.189 381.979,402.335 381.979,402.516" stroke="#00000000" fill-rule="nonzero"/><path fill="#FF00FF" d="m381.898,402.516c0,0.136 -0.111,0.247 -0.247,0.247 -0.135,-0 -0.245,-0.111 -0.245,-0.247 0,-0.137 0.111,-0.247 0.245,-0.247C381.787,402.269 381.898,402.379 381.898,402.516" stroke="#00000000" fill-rule="nonzero"/><path fill="#FF00FF" d="m381.817,402.516c0,0.091 -0.075,0.165 -0.165,0.165 -0.091,-0 -0.165,-0.075 -0.165,-0.165 0,-0.091 0.075,-0.165 0.165,-0.165C381.743,402.351 381.817,402.425 381.817,402.516" stroke="#00000000" fill-rule="nonzero"/><path fill="#FF00FF" d="m381.737,402.516c0,0.047 -0.037,0.084 -0.084,0.084 -0.048,-0 -0.085,-0.037 -0.085,-0.084 0,-0.047 0.037,-0.084 0.085,-0.084C381.699,402.432 381.737,402.469 381.737,402.516" stroke="#00000000" fill-rule="nonzero"/></g><g id="g_17"><path fill="#FF00FF" d="M388.962,416.058C388.962,412.086 385.743,408.867 381.771,408.867 377.8,408.867 374.582,412.086 374.582,416.058Z" stroke="#00000000" fill-rule="nonzero" clip-path="url(#clip_path_17)"/></g><g id="g_18"><path fill="#FF00FF" d="m374.581,408.868l14.38,-0l0,7.191l-14.38,-0z" stroke="#00000000" fill-rule="nonzero" clip-path="url(#clip_path_18)"/><path fill="#FF00FF" d="m387.457,412.463c0,3.139 -2.545,5.685 -5.685,5.685 -3.139,-0 -5.684,-2.547 -5.684,-5.685 0,-3.139 2.545,-5.685 5.684,-5.685C384.911,406.777 387.457,409.324 387.457,412.463" stroke="#00000000" fill-rule="nonzero"/><path fill="#FF00FF" d="m387.341,412.463c0,3.076 -2.493,5.569 -5.569,5.569 -3.075,-0 -5.569,-2.493 -5.569,-5.569 0,-3.076 2.495,-5.569 5.569,-5.569C384.847,406.893 387.341,409.387 387.341,412.463" stroke="#00000000" fill-rule="nonzero"/><path fill="#FF00FF" d="m387.225,412.463c0,3.012 -2.441,5.453 -5.453,5.453 -3.012,-0 -5.453,-2.441 -5.453,-5.453 0,-3.012 2.441,-5.453 5.453,-5.453C384.783,407.009 387.225,409.451 387.225,412.463" stroke="#00000000" fill-rule="nonzero"/><path fill="#FF00FF" d="m387.109,412.463c0,2.948 -2.389,5.337 -5.337,5.337 -2.948,-0 -5.337,-2.389 -5.337,-5.337 0,-2.948 2.389,-5.337 5.337,-5.337C384.72,407.125 387.109,409.515 387.109,412.463" stroke="#00000000" fill-rule="nonzero"/><path fill="#FF00FF" d="m386.993,412.463c0,2.884 -2.337,5.221 -5.221,5.221 -2.884,-0 -5.221,-2.337 -5.221,-5.221 0,-2.884 2.337,-5.221 5.221,-5.221C384.656,407.241 386.993,409.579 386.993,412.463" stroke="#00000000" fill-rule="nonzero"/><path fill="#FF00FF" d="m386.877,412.463c0,2.819 -2.287,5.105 -5.105,5.105 -2.819,-0 -5.105,-2.287 -5.105,-5.105 0,-2.819 2.287,-5.105 5.105,-5.105C384.59,407.357 386.877,409.644 386.877,412.463" stroke="#00000000" fill-rule="nonzero"/><path fill="#FF00FF" d="m386.761,412.463c0,2.755 -2.235,4.989 -4.989,4.989 -2.756,-0 -4.989,-2.235 -4.989,-4.989 0,-2.755 2.233,-4.989 4.989,-4.989C384.526,407.473 386.761,409.708 386.761,412.463" stroke="#00000000" fill-rule="nonzero"/><path fill="#FF00FF" d="m386.645,412.463c0,2.692 -2.183,4.873 -4.873,4.873 -2.692,-0 -4.875,-2.181 -4.875,-4.873 0,-2.692 2.183,-4.873 4.875,-4.873C384.463,407.589 386.645,409.771 386.645,412.463" stroke="#00000000" fill-rule="nonzero"/><path fill="#FF00FF" d="m386.529,412.463c0,2.628 -2.131,4.757 -4.757,4.757 -2.628,-0 -4.759,-2.129 -4.759,-4.757 0,-2.628 2.131,-4.757 4.759,-4.757C384.399,407.705 386.529,409.835 386.529,412.463" stroke="#00000000" fill-rule="nonzero"/><path fill="#FF00FF" d="m386.414,412.463c0,2.564 -2.079,4.641 -4.641,4.641 -2.564,-0 -4.643,-2.077 -4.643,-4.641 0,-2.564 2.079,-4.641 4.643,-4.641C384.335,407.821 386.414,409.899 386.414,412.463" stroke="#00000000" fill-rule="nonzero"/><path fill="#FF00FF" d="m386.298,412.463c0,2.5 -2.027,4.527 -4.527,4.527 -2.5,-0 -4.525,-2.027 -4.525,-4.527 0,-2.5 2.025,-4.527 4.525,-4.527C384.271,407.936 386.298,409.963 386.298,412.463" stroke="#00000000" fill-rule="nonzero"/><path fill="#FF00FF" d="m386.182,412.463c0,2.435 -1.975,4.411 -4.411,4.411 -2.435,-0 -4.409,-1.976 -4.409,-4.411 0,-2.435 1.975,-4.411 4.409,-4.411C384.207,408.052 386.182,410.028 386.182,412.463" stroke="#00000000" fill-rule="nonzero"/><path fill="#FF00FF" d="m386.066,412.463c0,2.371 -1.923,4.295 -4.295,4.295 -2.371,-0 -4.293,-1.924 -4.293,-4.295 0,-2.371 1.923,-4.295 4.293,-4.295C384.143,408.168 386.066,410.092 386.066,412.463" stroke="#00000000" fill-rule="nonzero"/><path fill="#FF00FF" d="m385.95,412.463c0,2.307 -1.871,4.179 -4.179,4.179 -2.307,-0 -4.179,-1.872 -4.179,-4.179 0,-2.307 1.872,-4.179 4.179,-4.179C384.079,408.284 385.95,410.156 385.95,412.463" stroke="#00000000" fill-rule="nonzero"/><path fill="#FF00FF" d="m385.834,412.463c0,2.244 -1.819,4.063 -4.063,4.063 -2.243,-0 -4.063,-1.819 -4.063,-4.063 0,-2.244 1.82,-4.063 4.063,-4.063C384.015,408.4 385.834,410.219 385.834,412.463" stroke="#00000000" fill-rule="nonzero"/><path fill="#FF00FF" d="m385.718,412.463c0,2.18 -1.767,3.947 -3.947,3.947 -2.18,-0 -3.947,-1.767 -3.947,-3.947 0,-2.18 1.767,-3.947 3.947,-3.947C383.952,408.516 385.718,410.283 385.718,412.463" stroke="#00000000" fill-rule="nonzero"/><path fill="#FF00FF" d="m385.602,412.463c0,2.116 -1.715,3.831 -3.831,3.831 -2.116,-0 -3.831,-1.715 -3.831,-3.831 0,-2.116 1.715,-3.831 3.831,-3.831C383.888,408.632 385.602,410.347 385.602,412.463" stroke="#00000000" fill-rule="nonzero"/><path fill="#FF00FF" d="m385.487,412.463c0,2.052 -1.663,3.715 -3.715,3.715 -2.052,-0 -3.715,-1.663 -3.715,-3.715 0,-2.052 1.663,-3.715 3.715,-3.715C383.824,408.748 385.487,410.411 385.487,412.463" stroke="#00000000" fill-rule="nonzero"/><path fill="#FF00FF" d="m385.371,412.463c0,1.987 -1.612,3.599 -3.599,3.599 -1.987,-0 -3.599,-1.612 -3.599,-3.599 0,-1.987 1.612,-3.599 3.599,-3.599C383.759,408.864 385.371,410.476 385.371,412.463" stroke="#00000000" fill-rule="nonzero"/><path fill="#FF00FF" d="m385.255,412.463c0,1.923 -1.56,3.483 -3.483,3.483 -1.924,-0 -3.484,-1.56 -3.484,-3.483 0,-1.923 1.56,-3.483 3.484,-3.483C383.695,408.98 385.255,410.54 385.255,412.463" stroke="#00000000" fill-rule="nonzero"/><path fill="#FF00FF" d="m385.139,412.463c0,1.86 -1.508,3.367 -3.367,3.367 -1.86,-0 -3.368,-1.507 -3.368,-3.367 0,-1.86 1.508,-3.367 3.368,-3.367C383.631,409.096 385.139,410.603 385.139,412.463" stroke="#00000000" fill-rule="nonzero"/><path fill="#FF00FF" d="m385.023,412.463c0,1.796 -1.456,3.251 -3.251,3.251 -1.796,-0 -3.252,-1.455 -3.252,-3.251 0,-1.796 1.456,-3.251 3.252,-3.251C383.567,409.212 385.023,410.667 385.023,412.463" stroke="#00000000" fill-rule="nonzero"/><path fill="#FF00FF" d="m384.907,412.463c0,1.732 -1.404,3.136 -3.136,3.136 -1.731,-0 -3.135,-1.404 -3.135,-3.136 0,-1.732 1.404,-3.136 3.135,-3.136C383.503,409.327 384.907,410.731 384.907,412.463" stroke="#00000000" fill-rule="nonzero"/><path fill="#FF00FF" d="m384.791,412.463c0,1.668 -1.352,3.02 -3.02,3.02 -1.668,-0 -3.019,-1.352 -3.019,-3.02 0,-1.668 1.351,-3.02 3.019,-3.02C383.439,409.443 384.791,410.795 384.791,412.463" stroke="#00000000" fill-rule="nonzero"/><path fill="#FF00FF" d="m384.675,412.463c0,1.603 -1.301,2.904 -2.904,2.904 -1.603,-0 -2.903,-1.301 -2.903,-2.904 0,-1.603 1.3,-2.904 2.903,-2.904C383.374,409.559 384.675,410.86 384.675,412.463" stroke="#00000000" fill-rule="nonzero"/><path fill="#FF00FF" d="m384.559,412.463c0,1.539 -1.249,2.788 -2.788,2.788 -1.539,-0 -2.788,-1.249 -2.788,-2.788 0,-1.539 1.249,-2.788 2.788,-2.788C383.31,409.675 384.559,410.924 384.559,412.463" stroke="#00000000" fill-rule="nonzero"/><path fill="#FF00FF" d="m384.443,412.463c0,1.475 -1.196,2.672 -2.672,2.672 -1.475,-0 -2.672,-1.197 -2.672,-2.672 0,-1.475 1.197,-2.672 2.672,-2.672C383.247,409.791 384.443,410.988 384.443,412.463" stroke="#00000000" fill-rule="nonzero"/><path fill="#FF00FF" d="m384.328,412.463c0,1.412 -1.144,2.556 -2.556,2.556 -1.412,-0 -2.556,-1.144 -2.556,-2.556 0,-1.412 1.144,-2.556 2.556,-2.556C383.184,409.907 384.328,411.051 384.328,412.463" stroke="#00000000" fill-rule="nonzero"/><path fill="#FF00FF" d="m384.212,412.463c0,1.348 -1.092,2.44 -2.44,2.44 -1.348,-0 -2.44,-1.092 -2.44,-2.44 0,-1.348 1.092,-2.44 2.44,-2.44C383.12,410.023 384.212,411.115 384.212,412.463" stroke="#00000000" fill-rule="nonzero"/><path fill="#FF00FF" d="m384.096,412.463c0,1.284 -1.04,2.324 -2.324,2.324 -1.284,-0 -2.324,-1.04 -2.324,-2.324 0,-1.284 1.04,-2.324 2.324,-2.324C383.056,410.139 384.096,411.179 384.096,412.463" stroke="#00000000" fill-rule="nonzero"/><path fill="#FF00FF" d="m383.98,412.463c0,1.219 -0.989,2.208 -2.208,2.208 -1.22,-0 -2.209,-0.989 -2.209,-2.208 0,-1.22 0.989,-2.208 2.209,-2.208C382.991,410.255 383.98,411.243 383.98,412.463" stroke="#00000000" fill-rule="nonzero"/><path fill="#FF00FF" d="m383.864,412.463c0,1.155 -0.937,2.092 -2.092,2.092 -1.156,-0 -2.093,-0.937 -2.093,-2.092 0,-1.155 0.937,-2.092 2.093,-2.092C382.927,410.371 383.864,411.308 383.864,412.463" stroke="#00000000" fill-rule="nonzero"/><path fill="#FF00FF" d="m383.748,412.463c0,1.091 -0.885,1.976 -1.976,1.976 -1.092,-0 -1.977,-0.885 -1.977,-1.976 0,-1.091 0.885,-1.976 1.977,-1.976C382.863,410.487 383.748,411.372 383.748,412.463" stroke="#00000000" fill-rule="nonzero"/><path fill="#FF00FF" d="m383.632,412.463c0,1.028 -0.833,1.861 -1.861,1.861 -1.027,-0 -1.86,-0.833 -1.86,-1.861 0,-1.028 0.833,-1.861 1.86,-1.861C382.799,410.601 383.632,411.435 383.632,412.463" stroke="#00000000" fill-rule="nonzero"/><path fill="#FF00FF" d="m383.516,412.463c0,0.964 -0.781,1.745 -1.745,1.745 -0.963,-0 -1.744,-0.781 -1.744,-1.745 0,-0.964 0.781,-1.745 1.744,-1.745C382.735,410.717 383.516,411.499 383.516,412.463" stroke="#00000000" fill-rule="nonzero"/><path fill="#FF00FF" d="m383.401,412.463c0,0.9 -0.729,1.629 -1.629,1.629 -0.899,-0 -1.628,-0.729 -1.628,-1.629 0,-0.9 0.729,-1.629 1.628,-1.629C382.671,410.833 383.401,411.563 383.401,412.463" stroke="#00000000" fill-rule="nonzero"/><path fill="#FF00FF" d="m383.285,412.463c0,0.836 -0.677,1.513 -1.513,1.513 -0.836,-0 -1.513,-0.677 -1.513,-1.513 0,-0.836 0.677,-1.513 1.513,-1.513C382.607,410.949 383.285,411.627 383.285,412.463" stroke="#00000000" fill-rule="nonzero"/><path fill="#FF00FF" d="m383.169,412.463c0,0.771 -0.627,1.397 -1.397,1.397 -0.771,-0 -1.397,-0.627 -1.397,-1.397 0,-0.771 0.627,-1.397 1.397,-1.397C382.542,411.065 383.169,411.692 383.169,412.463" stroke="#00000000" fill-rule="nonzero"/><path fill="#FF00FF" d="m383.053,412.463c0,0.707 -0.575,1.281 -1.281,1.281 -0.707,-0 -1.281,-0.575 -1.281,-1.281 0,-0.707 0.575,-1.281 1.281,-1.281C382.478,411.181 383.053,411.756 383.053,412.463" stroke="#00000000" fill-rule="nonzero"/><path fill="#FF00FF" d="m382.937,412.463c0,0.643 -0.523,1.165 -1.165,1.165 -0.643,-0 -1.165,-0.523 -1.165,-1.165 0,-0.643 0.523,-1.165 1.165,-1.165C382.414,411.297 382.937,411.82 382.937,412.463" stroke="#00000000" fill-rule="nonzero"/><path fill="#FF00FF" d="m382.821,412.463c0,0.58 -0.471,1.049 -1.049,1.049 -0.58,-0 -1.049,-0.469 -1.049,-1.049 0,-0.58 0.469,-1.049 1.049,-1.049C382.35,411.413 382.821,411.883 382.821,412.463" stroke="#00000000" fill-rule="nonzero"/><path fill="#FF00FF" d="m382.705,412.463c0,0.516 -0.417,0.933 -0.933,0.933 -0.516,-0 -0.933,-0.417 -0.933,-0.933 0,-0.516 0.417,-0.933 0.933,-0.933C382.288,411.529 382.705,411.947 382.705,412.463" stroke="#00000000" fill-rule="nonzero"/><path fill="#FF00FF" d="m382.589,412.463c0,0.452 -0.365,0.817 -0.817,0.817 -0.452,-0 -0.819,-0.365 -0.819,-0.817 0,-0.452 0.367,-0.817 0.819,-0.817C382.224,411.645 382.589,412.011 382.589,412.463" stroke="#00000000" fill-rule="nonzero"/><path fill="#FF00FF" d="m382.473,412.463c0,0.387 -0.315,0.701 -0.701,0.701 -0.387,-0 -0.703,-0.315 -0.703,-0.701 0,-0.388 0.316,-0.701 0.703,-0.701C382.159,411.761 382.473,412.075 382.473,412.463" stroke="#00000000" fill-rule="nonzero"/><path fill="#FF00FF" d="m382.358,412.463c0,0.323 -0.263,0.585 -0.585,0.585 -0.324,-0 -0.587,-0.263 -0.587,-0.585 0,-0.323 0.263,-0.585 0.587,-0.585C382.095,411.877 382.358,412.14 382.358,412.463" stroke="#00000000" fill-rule="nonzero"/><path fill="#FF00FF" d="m382.242,412.463c0,0.259 -0.211,0.471 -0.471,0.471 -0.259,-0 -0.469,-0.212 -0.469,-0.471 0,-0.259 0.211,-0.471 0.469,-0.471C382.031,411.992 382.242,412.204 382.242,412.463" stroke="#00000000" fill-rule="nonzero"/><path fill="#FF00FF" d="m382.126,412.463c0,0.195 -0.159,0.355 -0.355,0.355 -0.195,-0 -0.353,-0.16 -0.353,-0.355 0,-0.195 0.159,-0.355 0.353,-0.355C381.967,412.108 382.126,412.268 382.126,412.463" stroke="#00000000" fill-rule="nonzero"/><path fill="#FF00FF" d="m382.01,412.463c0,0.132 -0.107,0.239 -0.239,0.239 -0.131,-0 -0.237,-0.107 -0.237,-0.239 0,-0.132 0.107,-0.239 0.237,-0.239C381.903,412.224 382.01,412.331 382.01,412.463" stroke="#00000000" fill-rule="nonzero"/><path fill="#FF00FF" d="m381.894,412.463c0,0.068 -0.055,0.123 -0.123,0.123 -0.068,-0 -0.123,-0.055 -0.123,-0.123 0,-0.068 0.055,-0.123 0.123,-0.123C381.839,412.34 381.894,412.395 381.894,412.463" stroke="#00000000" fill-rule="nonzero"/></g></svg>