<svg id="vector" xmlns="http://www.w3.org/2000/svg" width="1000" height="666.6667" viewBox="0 0 4000 2666.6667"><path fill="#ebf3fa" fill-rule="nonzero" d="m511.27,2283.92c0,-0 -413.02,-443.45 -69.85,-923.55C745.9,934.4 1100.9,963.52 1361.36,1136.38 1472.28,1210.01 1792.11,1145.46 2064.34,712.01 2435.54,120.9 3722.35,479.41 3487.75,1388.84 3374.18,1828.93 3833.28,1844.93 3599.36,2284.85l-3088.09,-0.93" stroke="#00000000" id="path_0"/><path fill="#a8d29f" fill-rule="nonzero" d="m1304.43,1426.63c0,-0 -204.32,-290.84 -284.17,-253.13C940.4,1211.2 1304.43,1426.63 1304.43,1426.63" stroke="#00000000" id="path_1"/><path fill="#a8d29f" fill-rule="nonzero" d="m1291.43,1348.48c0,-0 -31.21,-218.68 -80.41,-210.11 -49.2,8.59 80.41,210.11 80.41,210.11" stroke="#00000000" id="path_2"/><path fill="#82b378" fill-rule="nonzero" d="m1118.69,2030.08c0,-0 19.64,-97.31 -56.63,-109.53 0,-0 -51.73,-1.81 -82.19,17.69 0,-0 86.51,49.95 76.22,65.47 -10.29,15.52 -92.38,-62.6 -92.38,-62.6 0,-0 -92.73,40.61 -113.43,70.04 0,-0 109.58,19.52 95.79,32.03 -13.79,12.52 -128.77,-2.51 -128.77,-2.51 0,-0 -74.09,59.68 -41.82,107.19 32.27,47.51 69.1,47.16 80.75,38.91 11.66,-8.25 68.72,-76.47 75.98,-67.19 7.26,9.28 -17.85,66.87 -47.56,85.51 0,-0 93.29,31.41 121.39,-8.4 28.1,-39.8 15.1,-70.75 32.91,-95.04 17.81,-24.28 38.24,-35.65 34.59,-19 -3.65,16.65 -40.88,51.67 -41.04,83.49 -0.16,31.83 -3.32,55 33.04,26.85 36.35,-28.15 84.65,-93.24 68.9,-128.07 -15.75,-34.84 -15.75,-34.84 -15.75,-34.84" stroke="#00000000" id="path_3"/><path fill="#82b378" fill-rule="nonzero" d="m816.46,2126.72c0,-0 217.59,-132.8 302.23,-96.64 0,-0 29.03,26.45 79,37.4l13.14,11.29c0,-0 -61.23,-19.11 -76.39,-13.85 0,-0 -22.45,-90.84 -317.97,61.8" stroke="#00000000" id="path_4"/><path fill="#82b378" fill-rule="nonzero" d="m1197.69,2067.48c0,-0 67.45,8.64 106.01,69.85L1295.47,2142.95c0,-0 -51.68,-56.69 -93.48,-66.8 -41.8,-10.12 -4.29,-8.67 -4.29,-8.67" stroke="#00000000" id="path_5"/><path fill="#a8d29f" fill-rule="nonzero" d="m1185.29,1746.15c0,-0 158,-88.48 84.27,-208.56 0,-0 -58.99,-73.73 -122.19,-92.69 0,-0 33.71,179.07 0,183.28 -33.71,4.21 -23.17,-202.24 -23.17,-202.24 0,-0 -166.43,-80.05 -231.73,-73.73 0,-0 103.23,174.85 69.52,170.64 -33.71,-4.21 -149.57,-181.17 -149.57,-181.17 0,-0 -170.64,-31.61 -198.03,69.52 -27.39,101.12 16.85,151.68 42.13,158 25.28,6.32 187.49,4.21 183.28,25.28 -4.21,21.07 -113.76,54.77 -174.85,35.81 0,-0 67.41,166.43 155.89,158 88.48,-8.43 115.87,-63.2 170.64,-67.41 54.77,-4.21 94.8,10.53 67.41,25.28 -27.39,14.75 -120.08,4.83 -164.32,42.44 -44.24,37.61 -80.05,60.79 2.11,77.64 82.16,16.85 229.63,6.32 259.12,-56.88 29.49,-63.2 29.49,-63.2 29.49,-63.2" stroke="#00000000" id="path_6"/><path fill="#82b378" fill-rule="nonzero" d="m692.33,1442.79c0,-0 442.4,143.25 492.96,303.36 0,-0 -2.11,71.63 42.13,153.79l0,31.6c0,-0 -46.35,-107.44 -71.63,-122.19 0,-0 99.01,-139.04 -463.47,-366.56" stroke="#00000000" id="path_7"/><path fill="#82b378" fill-rule="nonzero" d="m1227.43,1899.93c0,-0 68.23,103.6 29.33,229.72l-17.55,-4.72c0,-0 17.04,-138.91 -18.66,-208.77 -35.69,-69.87 6.88,-16.23 6.88,-16.23" stroke="#00000000" id="path_8"/><path fill="#FF00FF" fill-rule="nonzero" d="M1345.88,1005.87 L1109.48,2228.01c-4.81,24.87 14.24,47.95 39.55,47.95l124.68,-0l72.17,-1270.09" stroke="#00000000" id="path_9"/><path fill="#c7dcfb" fill-rule="nonzero" d="m2917.27,1355.72c0,-0 -106.33,-67.84 -50.26,-148.4 0,-0 43.97,-48.92 88.67,-59.58 0,-0 -30.6,123.17 -7.32,127.45 23.28,4.27 24.18,-139.71 24.18,-139.71 0,-0 118.94,-49.02 164.1,-42.02 0,-0 -78.77,117.47 -55.16,115.88 23.62,-1.58 111.25,-120.01 111.25,-120.01 0,-0 119.9,-15.16 134.94,56.25 14.99,71.41 -17.78,104.8 -35.62,108.19 -17.82,3.39 -130.55,-4.55 -128.46,10.26 2.09,14.82 76.92,42.63 120.15,31.88 0,-0 -53.5,113.03 -114.7,103.64 -61.19,-9.39 -78.05,-48.57 -115.97,-53.69 -37.92,-5.11 -66.36,3.55 -47.88,14.89 18.46,11.35 83.3,8.16 112.56,36.08 29.26,27.91 53.24,45.45 -4.57,53.89 -57.79,8.44 -159.93,-4.77 -177.9,-49.89 -18.01,-45.12 -18.01,-45.12 -18.01,-45.12" stroke="#00000000" id="path_10"/><path fill="#c7dcfb" fill-rule="nonzero" d="m3272.19,1164.44c0,-0 -313.35,81.95 -354.9,191.27 0,-0 -1.39,49.88 -35.43,105.25l-1.26,21.97c0,-0 36.52,-72.87 54.68,-82.11 0,-0 -63.3,-100.64 336.92,-236.39" stroke="#00000000" id="path_11"/><path fill="#c7dcfb" fill-rule="nonzero" d="m2881.85,1460.98c0,-0 -51.59,69.32 -29.58,158.56l12.41,-2.57c0,-0 -6.31,-97.27 21.31,-144.42 27.62,-47.16 -4.13,-11.56 -4.13,-11.56" stroke="#00000000" id="path_12"/><path fill="#dfebfd" fill-rule="nonzero" d="m2630.98,1061.28c0,-0 -163.39,-35.88 -130.37,-161.78 0,-0 32.36,-80.99 83.15,-114.68 0,-0 18.18,167.32 49.12,162.02 30.93,-5.31 -33.71,-184.98 -33.71,-184.98 0,-0 125.67,-115.36 185.11,-127.27 0,-0 -44.41,182.22 -15.73,169.46 28.65,-12.76 83.66,-200.23 83.66,-200.23 0,-0 142.38,-73.67 193.68,8.38 51.3,82.05 25.75,138.59 5.09,150.96 -20.65,12.36 -164.61,53.96 -155.24,71.46 9.37,17.49 115.24,17.94 164.15,-15.2 0,-0 -14.97,165.18 -95.46,181.44 -80.47,16.26 -119.37,-24.82 -168.9,-13.87 -49.56,10.95 -80.98,34.71 -52.82,40.41 28.16,5.7 107.45,-27.91 156.63,-6.51 49.19,21.39 87.06,32.28 18.94,69.19 -68.12,36.91 -201.28,67.12 -244.3,19.16 -43,-47.96 -43,-47.96 -43,-47.96" stroke="#00000000" id="path_13"/><path fill="#dfebfd" fill-rule="nonzero" d="m2985.46,661.02c0,-0 -352.69,245.18 -354.48,400.26 0,-0 21.06,62.75 3.96,147.23l8.48,27.93c0,-0 12.18,-107.39 30.57,-127.2 0,-0 -124.77,-96.38 311.48,-448.23" stroke="#00000000" id="path_14"/><path fill="#dfebfd" fill-rule="nonzero" d="m2634.95,1208.52c0,-0 -32.55,109.87 35.63,210.92l14.25,-8.87c0,-0 -52.28,-118.23 -39.45,-189.55 12.83,-71.32 -10.43,-12.51 -10.43,-12.51" stroke="#00000000" id="path_15"/><path fill="#78acea" fill-rule="nonzero" d="M1348.72,1000.92 L1192.03,2200.88c-5.2,39.79 25.78,75.08 65.91,75.08l229.87,-0l-129.6,-1279.37 -9.48,4.33" stroke="#00000000" id="path_16"/><path fill="#699dee" fill-rule="nonzero" d="M1348.72,1000.92 L1278.57,2193.23c-2.64,44.88 33.04,82.73 78,82.73l342.83,-0l-350.68,-1275.04" stroke="#00000000" id="path_17"/><path fill="#5288d8" fill-rule="nonzero" d="m1346.08,1010.65 l34.11,1182.57c-2.64,44.88 33.04,82.73 78,82.73l342.83,-0l-454.93,-1265.31" stroke="#00000000" id="path_18"/><path fill="#d7e9ff" fill-rule="nonzero" d="M2987.45,2275.96L1635.72,2275.96c-33.75,-0 -62.68,-24.12 -68.75,-57.32l-205.68,-1124.83c-9.35,-51.07 29.88,-98.12 81.8,-98.12l1335.81,-0c33.74,-0 62.67,24.12 68.74,57.32l208.54,1140.48c7.86,42.92 -25.1,82.47 -68.74,82.47" stroke="#00000000" id="path_19"/><path fill="#f99746" fill-rule="nonzero" d="M1388.05,1239.9L2882.77,1239.9l-38.32,-212.37c-3.32,-18.42 -19.37,-31.82 -38.1,-31.82L1358.55,995.7c-7.91,-0 -13.88,7.17 -12.47,14.95l41.97,229.24" stroke="#00000000" id="path_20"/><path fill="#78acea" fill-rule="nonzero" d="m1423,931.79c-35.75,-0 -64.81,29.05 -64.81,64.79l12.45,-0c0,-28.87 23.48,-52.35 52.36,-52.35 28.87,-0 52.36,23.48 52.36,52.35 0,5.8 -0.93,11.37 -2.69,16.57 -5.13,15.4 -17.24,27.61 -32.55,32.91 -4.48,1.56 -9.21,2.53 -14.15,2.8l0,12.45c5.76,-0.25 11.29,-1.27 16.56,-2.93 21.03,-6.65 37.44,-23.77 43.12,-45.23 1.4,-5.29 2.15,-10.84 2.15,-16.57 0,-35.73 -29.07,-64.79 -64.8,-64.79" stroke="#00000000" id="path_21"/><path fill="#78acea" fill-rule="nonzero" d="m1443.04,1054.63c0,1.29 -0.19,2.56 -0.51,3.75 -1.64,5.93 -7.07,10.28 -13.52,10.28 -7.75,-0 -14.04,-6.28 -14.04,-14.03 0,-7.75 6.29,-14.04 14.04,-14.04 4.52,-0 8.53,2.16 11.11,5.47 1.84,2.37 2.92,5.35 2.92,8.57" stroke="#00000000" id="path_22"/><path fill="#78acea" fill-rule="nonzero" d="m1655.33,931.79c-35.73,-0 -64.8,29.05 -64.8,64.79l12.44,-0c0,-28.87 23.49,-52.35 52.36,-52.35 28.88,-0 52.36,23.48 52.36,52.35 0,5.8 -0.95,11.37 -2.69,16.57 -5.15,15.4 -17.24,27.61 -32.55,32.91 -4.47,1.56 -9.21,2.53 -14.15,2.8l0,12.45c5.75,-0.25 11.29,-1.27 16.56,-2.93 21.03,-6.65 37.45,-23.77 43.13,-45.23 1.4,-5.29 2.15,-10.84 2.15,-16.57 0,-35.73 -29.08,-64.79 -64.81,-64.79" stroke="#00000000" id="path_23"/><path fill="#78acea" fill-rule="nonzero" d="m1675.36,1054.63c0,1.29 -0.17,2.56 -0.49,3.75 -1.64,5.93 -7.07,10.28 -13.53,10.28 -7.75,-0 -14.03,-6.28 -14.03,-14.03 0,-7.75 6.28,-14.04 14.03,-14.04 4.53,-0 8.56,2.16 11.12,5.47 1.83,2.37 2.91,5.35 2.91,8.57" stroke="#00000000" id="path_24"/><path fill="#78acea" fill-rule="nonzero" d="m1887.68,931.79c-35.73,-0 -64.8,29.05 -64.8,64.79l12.43,-0c0,-28.87 23.48,-52.35 52.37,-52.35 28.87,-0 52.36,23.48 52.36,52.35 0,5.8 -0.95,11.37 -2.71,16.57 -5.13,15.4 -17.24,27.61 -32.53,32.91 -4.48,1.56 -9.23,2.53 -14.16,2.8l0,12.45c5.75,-0.25 11.29,-1.27 16.56,-2.93 21.04,-6.67 37.44,-23.77 43.12,-45.23 1.4,-5.29 2.15,-10.84 2.15,-16.57 0,-35.73 -29.07,-64.79 -64.79,-64.79" stroke="#00000000" id="path_25"/><path fill="#78acea" fill-rule="nonzero" d="m1907.71,1054.63c0,1.29 -0.19,2.56 -0.51,3.75 -1.64,5.93 -7.07,10.28 -13.52,10.28 -7.75,-0 -14.04,-6.28 -14.04,-14.03 0,-7.75 6.29,-14.04 14.04,-14.04 4.52,-0 8.53,2.16 11.12,5.47 1.83,2.37 2.91,5.35 2.91,8.57" stroke="#00000000" id="path_26"/><path fill="#78acea" fill-rule="nonzero" d="m2120,931.79c-35.73,-0 -64.79,29.06 -64.79,64.79l12.44,-0c0,-28.87 23.48,-52.35 52.35,-52.35 28.87,-0 52.37,23.48 52.37,52.35 0,5.79 -0.95,11.37 -2.69,16.57 -5.15,15.39 -17.24,27.61 -32.54,32.91 -4.48,1.55 -9.22,2.52 -14.15,2.8l0,12.45c5.74,-0.27 11.3,-1.26 16.57,-2.94 21.04,-6.68 37.44,-23.78 43.12,-45.22 1.39,-5.29 2.14,-10.86 2.14,-16.57 0,-35.73 -29.07,-64.79 -64.81,-64.79" stroke="#00000000" id="path_27"/><path fill="#78acea" fill-rule="nonzero" d="m2140.05,1054.63c0,1.29 -0.19,2.56 -0.51,3.75 -1.64,5.93 -7.08,10.28 -13.53,10.28 -7.75,-0 -14.03,-6.28 -14.03,-14.03 0,-7.75 6.28,-14.04 14.03,-14.04 4.52,-0 8.55,2.16 11.12,5.47 1.84,2.37 2.92,5.35 2.92,8.57" stroke="#00000000" id="path_28"/><path fill="#78acea" fill-rule="nonzero" d="m2352.33,931.8c-35.72,-0 -64.8,29.05 -64.8,64.79l12.43,-0c0,-28.87 23.52,-52.36 52.38,-52.36 28.87,-0 52.36,23.49 52.36,52.36 0,5.8 -0.95,11.37 -2.7,16.58 -5.15,15.38 -17.25,27.6 -32.55,32.89 -4.46,1.56 -9.22,2.54 -14.13,2.8l0,12.46c5.74,-0.27 11.28,-1.26 16.55,-2.94 21.03,-6.66 37.46,-23.77 43.12,-45.21 1.41,-5.31 2.15,-10.85 2.15,-16.58 0,-35.74 -29.06,-64.79 -64.8,-64.79" stroke="#00000000" id="path_29"/><path fill="#78acea" fill-rule="nonzero" d="m2372.37,1054.64c0,1.3 -0.19,2.55 -0.51,3.74 -1.63,5.94 -7.04,10.29 -13.52,10.29 -7.74,-0 -14.03,-6.29 -14.03,-14.03 0,-7.76 6.29,-14.04 14.03,-14.04 4.54,-0 8.56,2.15 11.11,5.47 1.85,2.37 2.93,5.34 2.93,8.57" stroke="#00000000" id="path_30"/><path fill="#78acea" fill-rule="nonzero" d="m2584.7,931.79c-35.74,-0 -64.81,29.05 -64.81,64.79l12.43,-0c0,-28.88 23.49,-52.36 52.37,-52.36 28.87,-0 52.36,23.47 52.36,52.36 0,5.79 -0.96,11.36 -2.7,16.56 -5.15,15.39 -17.25,27.62 -32.54,32.91 -4.47,1.55 -9.22,2.53 -14.16,2.8l0,12.45c5.77,-0.26 11.3,-1.26 16.56,-2.94 21.02,-6.65 37.45,-23.77 43.12,-45.22 1.4,-5.28 2.15,-10.84 2.15,-16.56 0,-35.74 -29.06,-64.79 -64.79,-64.79" stroke="#00000000" id="path_31"/><path fill="#78acea" fill-rule="nonzero" d="m2604.72,1054.63c0,1.29 -0.19,2.56 -0.51,3.74 -1.63,5.93 -7.08,10.29 -13.53,10.29 -7.73,-0 -14.01,-6.3 -14.01,-14.03 0,-7.75 6.28,-14.05 14.01,-14.05 4.52,-0 8.55,2.16 11.12,5.47 1.84,2.38 2.92,5.35 2.92,8.58" stroke="#00000000" id="path_32"/><path fill="#78acea" fill-rule="nonzero" d="m2817.02,931.79c-35.73,-0 -64.8,29.06 -64.8,64.79l12.43,-0c0,-28.87 23.5,-52.35 52.37,-52.35 28.87,-0 52.37,23.48 52.37,52.35 0,5.8 -0.94,11.37 -2.69,16.57 -5.14,15.39 -17.24,27.61 -32.57,32.9 -4.47,1.55 -9.19,2.53 -14.13,2.8l0,12.45c5.75,-0.26 11.28,-1.26 16.55,-2.94 21.02,-6.65 37.45,-23.77 43.12,-45.22 1.4,-5.3 2.14,-10.85 2.14,-16.57 0,-35.73 -29.07,-64.79 -64.8,-64.79" stroke="#00000000" id="path_33"/><path fill="#78acea" fill-rule="nonzero" d="m2837.05,1054.63c0,1.29 -0.17,2.56 -0.49,3.74 -1.65,5.94 -7.08,10.29 -13.54,10.29 -7.75,-0 -14.03,-6.29 -14.03,-14.03 0,-7.75 6.28,-14.03 14.03,-14.03 4.53,-0 8.53,2.15 11.1,5.47 1.84,2.37 2.92,5.34 2.92,8.57" stroke="#00000000" id="path_34"/><path fill="#afcdfb" fill-rule="nonzero" d="m2252.43,1638.85l-75.56,-0c-8.73,-0 -17.26,-7.13 -18.94,-15.88l-14.58,-75.56c-1.68,-8.73 4.07,-15.88 12.82,-15.88l75.56,-0c8.73,-0 17.26,7.15 18.93,15.88l14.59,75.56c1.68,8.75 -4.09,15.88 -12.82,15.88" stroke="#00000000" id="path_35"/><path fill="#afcdfb" fill-rule="nonzero" d="m2443.1,1638.85l-75.57,-0c-8.73,-0 -17.25,-7.13 -18.92,-15.88l-14.59,-75.56c-1.67,-8.73 4.1,-15.88 12.83,-15.88l75.55,-0c8.74,-0 17.26,7.15 18.95,15.88l14.58,75.56c1.67,8.75 -4.09,15.88 -12.83,15.88" stroke="#00000000" id="path_36"/><path fill="#78acea" fill-rule="nonzero" d="m2633.78,1638.85l-75.57,-0c-8.74,-0 -17.25,-7.13 -18.94,-15.88l-14.57,-75.56c-1.69,-8.73 4.08,-15.88 12.82,-15.88l75.55,-0c8.74,-0 17.25,7.15 18.96,15.88l14.57,75.56c1.67,8.75 -4.09,15.88 -12.82,15.88" stroke="#00000000" id="path_37"/><path fill="#afcdfb" fill-rule="nonzero" d="m1680.43,1638.85l-75.56,-0c-8.73,-0 -17.27,-7.13 -18.95,-15.88l-14.57,-75.56c-1.69,-8.73 4.08,-15.88 12.81,-15.88l75.56,-0c8.73,-0 17.27,7.15 18.95,15.88l14.57,75.56c1.69,8.75 -4.08,15.88 -12.81,15.88" stroke="#00000000" id="path_38"/><path fill="#FF00FF" fill-rule="nonzero" d="m1597.61,1412.01l-32.48,-0c-3.75,-0 -7.41,-3.07 -8.13,-6.83l-6.27,-32.47c-0.72,-3.76 1.76,-6.83 5.51,-6.83l32.47,-0c3.76,-0 7.43,3.07 8.15,6.83l6.27,32.47c0.72,3.76 -1.76,6.83 -5.51,6.83" stroke="#00000000" id="path_39"/><path fill="#afcdfb" fill-rule="nonzero" d="m1871.09,1638.85l-75.56,-0c-8.73,-0 -17.27,-7.13 -18.95,-15.88l-14.57,-75.56c-1.68,-8.73 4.08,-15.88 12.81,-15.88l75.56,-0c8.73,-0 17.27,7.15 18.95,15.88l14.57,75.56c1.69,8.75 -4.08,15.88 -12.81,15.88" stroke="#00000000" id="path_40"/><path fill="#afcdfb" fill-rule="nonzero" d="m2061.76,1638.85l-75.56,-0c-8.73,-0 -17.25,-7.13 -18.95,-15.88l-14.57,-75.56c-1.68,-8.73 4.08,-15.88 12.81,-15.88l75.56,-0c8.75,-0 17.27,7.15 18.95,15.88l14.57,75.56c1.69,8.75 -4.08,15.88 -12.81,15.88" stroke="#00000000" id="path_41"/><path fill="#78acea" fill-rule="nonzero" d="m2824.43,1638.86l-75.55,-0c-8.74,-0 -17.28,-7.13 -18.95,-15.88l-14.58,-75.56c-1.69,-8.73 4.08,-15.88 12.82,-15.88l75.55,-0c8.74,-0 17.28,7.15 18.95,15.88l14.58,75.56c1.69,8.74 -4.08,15.88 -12.82,15.88" stroke="#00000000" id="path_42"/><path fill="#afcdfb" fill-rule="nonzero" d="m2220.76,1474.75l-75.56,-0c-8.74,-0 -17.27,-7.15 -18.94,-15.88l-14.58,-75.56c-1.69,-8.73 4.07,-15.88 12.81,-15.88l75.56,-0c8.74,-0 17.27,7.15 18.95,15.88l14.56,75.56c1.7,8.73 -4.07,15.88 -12.81,15.88" stroke="#00000000" id="path_43"/><path fill="#afcdfb" fill-rule="nonzero" d="m2411.43,1474.75l-75.56,-0c-8.72,-0 -17.25,-7.15 -18.95,-15.88l-14.57,-75.56c-1.68,-8.73 4.08,-15.88 12.81,-15.88l75.56,-0c8.75,-0 17.26,7.15 18.95,15.88l14.59,75.56c1.68,8.73 -4.09,15.88 -12.83,15.88" stroke="#00000000" id="path_44"/><path fill="#78acea" fill-rule="nonzero" d="m2602.09,1474.75l-75.56,-0c-8.73,-0 -17.24,-7.15 -18.93,-15.88l-14.59,-75.56c-1.67,-8.73 4.09,-15.88 12.83,-15.88l75.56,-0c8.73,-0 17.26,7.15 18.94,15.88l14.58,75.56c1.69,8.73 -4.09,15.88 -12.83,15.88" stroke="#00000000" id="path_45"/><path fill="#78acea" fill-rule="nonzero" d="m2792.77,1474.75l-75.56,-0c-8.75,-0 -17.26,-7.15 -18.94,-15.88l-14.59,-75.56c-1.67,-8.73 4.1,-15.88 12.83,-15.88l75.56,-0c8.73,-0 17.26,7.15 18.94,15.88l14.57,75.56c1.69,8.73 -4.06,15.88 -12.81,15.88" stroke="#00000000" id="path_46"/><path fill="#afcdfb" fill-rule="nonzero" d="m2285.98,1812.8l-75.56,-0c-8.74,-0 -17.26,-7.15 -18.94,-15.88l-14.58,-75.56c-1.69,-8.73 4.08,-15.88 12.81,-15.88l75.56,-0c8.74,-0 17.26,7.15 18.94,15.88l14.58,75.56c1.68,8.73 -4.08,15.88 -12.81,15.88" stroke="#00000000" id="path_47"/><path fill="#afcdfb" fill-rule="nonzero" d="m2476.66,1812.8l-75.56,-0c-8.74,-0 -17.27,-7.15 -18.95,-15.88l-14.56,-75.56c-1.7,-8.73 4.08,-15.88 12.81,-15.88l75.56,-0c8.73,-0 17.27,7.15 18.95,15.88l14.56,75.56c1.7,8.73 -4.08,15.88 -12.81,15.88" stroke="#00000000" id="path_48"/><path fill="#78acea" fill-rule="nonzero" d="m2667.32,1812.8l-75.55,-0c-8.74,-0 -17.26,-7.15 -18.95,-15.88l-14.58,-75.56c-1.68,-8.73 4.08,-15.88 12.82,-15.88l75.57,-0c8.74,-0 17.26,7.15 18.94,15.88l14.58,75.56c1.69,8.73 -4.08,15.88 -12.82,15.88" stroke="#00000000" id="path_49"/><path fill="#afcdfb" fill-rule="nonzero" d="m1713.97,1812.8l-75.56,-0c-8.73,-0 -17.25,-7.15 -18.95,-15.88l-14.57,-75.56c-1.68,-8.73 4.08,-15.88 12.83,-15.88l75.56,-0c8.73,-0 17.25,7.15 18.93,15.88l14.59,75.56c1.68,8.73 -4.09,15.88 -12.83,15.88" stroke="#00000000" id="path_50"/><path fill="#afcdfb" fill-rule="nonzero" d="m1904.64,1812.8l-75.56,-0c-8.73,-0 -17.25,-7.15 -18.95,-15.88l-14.57,-75.56c-1.68,-8.73 4.09,-15.88 12.83,-15.88l75.56,-0c8.73,-0 17.25,7.15 18.95,15.88l14.57,75.56c1.68,8.73 -4.08,15.88 -12.83,15.88" stroke="#00000000" id="path_51"/><path fill="#afcdfb" fill-rule="nonzero" d="m2095.32,1812.8l-75.56,-0c-8.75,-0 -17.27,-7.15 -18.95,-15.88l-14.59,-75.56c-1.68,-8.73 4.09,-15.88 12.83,-15.88l75.56,-0c8.73,-0 17.25,7.15 18.95,15.88l14.57,75.56c1.68,8.73 -4.08,15.88 -12.81,15.88" stroke="#00000000" id="path_52"/><path fill="#78acea" fill-rule="nonzero" d="m2857.99,1812.8l-75.57,-0c-8.72,-0 -17.25,-7.15 -18.94,-15.88l-14.57,-75.56c-1.67,-8.73 4.09,-15.88 12.81,-15.88l75.58,-0c8.72,-0 17.25,7.15 18.93,15.88l14.59,75.56c1.67,8.73 -4.11,15.88 -12.83,15.88" stroke="#00000000" id="path_53"/><path fill="#afcdfb" fill-rule="nonzero" d="M2319.52,1986.74L2243.96,1986.74c-8.73,-0 -17.25,-7.15 -18.94,-15.88l-14.58,-75.56c-1.68,-8.73 4.08,-15.88 12.82,-15.88l75.58,-0c8.73,-0 17.25,7.15 18.93,15.88l14.59,75.56c1.68,8.73 -4.1,15.88 -12.83,15.88" stroke="#00000000" id="path_54"/><path fill="#afcdfb" fill-rule="nonzero" d="m2510.18,1986.74l-75.56,-0c-8.74,-0 -17.25,-7.15 -18.94,-15.88l-14.58,-75.56c-1.67,-8.73 4.07,-15.88 12.82,-15.88l75.56,-0c8.74,-0 17.25,7.15 18.94,15.88l14.59,75.56c1.67,8.73 -4.1,15.88 -12.84,15.88" stroke="#00000000" id="path_55"/><path fill="#78acea" fill-rule="nonzero" d="m2700.85,1986.74l-75.56,-0c-8.73,-0 -17.24,-7.15 -18.92,-15.88l-14.59,-75.56c-1.68,-8.73 4.1,-15.88 12.83,-15.88l75.56,-0c8.73,-0 17.26,7.15 18.94,15.88l14.58,75.56c1.68,8.73 -4.08,15.88 -12.83,15.88" stroke="#00000000" id="path_56"/><path fill="#afcdfb" fill-rule="nonzero" d="m1747.53,1986.73l-75.56,-0c-8.75,-0 -17.27,-7.15 -18.95,-15.88l-14.57,-75.56c-1.69,-8.73 4.08,-15.88 12.81,-15.88l75.56,-0c8.73,-0 17.25,7.15 18.95,15.88l14.57,75.56c1.68,8.73 -4.08,15.88 -12.81,15.88" stroke="#00000000" id="path_57"/><path fill="#FF00FF" fill-rule="nonzero" d="m1938.2,1986.73l-75.56,-0c-8.73,-0 -17.27,-7.15 -18.95,-15.88l-14.57,-75.56c-1.69,-8.73 4.08,-15.88 12.81,-15.88l75.56,-0c8.73,-0 17.27,7.15 18.95,15.88l14.57,75.56c1.69,8.73 -4.08,15.88 -12.81,15.88" stroke="#00000000" id="path_58"/><path fill="#afcdfb" fill-rule="nonzero" d="m2128.87,1986.73l-75.56,-0c-8.73,-0 -17.27,-7.15 -18.95,-15.88l-14.57,-75.56c-1.68,-8.73 4.08,-15.88 12.81,-15.88l75.56,-0c8.73,-0 17.27,7.15 18.95,15.88l14.57,75.56c1.69,8.73 -4.08,15.88 -12.81,15.88" stroke="#00000000" id="path_59"/><path fill="#78acea" fill-rule="nonzero" d="m2891.56,1986.73l-75.56,-0c-8.74,-0 -17.28,-7.15 -18.95,-15.88l-14.57,-75.56c-1.69,-8.73 4.08,-15.88 12.8,-15.88l75.58,-0c8.72,-0 17.26,7.15 18.93,15.88l14.58,75.56c1.68,8.73 -4.08,15.88 -12.82,15.88" stroke="#00000000" id="path_60"/><path fill="#afcdfb" fill-rule="nonzero" d="m2351.18,2150.85l-75.56,-0c-8.72,-0 -17.26,-7.15 -18.94,-15.88l-14.57,-75.56c-1.68,-8.75 4.09,-15.89 12.82,-15.89l75.57,-0c8.72,-0 17.24,7.15 18.94,15.89l14.57,75.56c1.68,8.73 -4.08,15.88 -12.83,15.88" stroke="#00000000" id="path_61"/><path fill="#afcdfb" fill-rule="nonzero" d="m2541.87,2150.85l-75.56,-0c-8.75,-0 -17.27,-7.15 -18.95,-15.88l-14.59,-75.56c-1.68,-8.75 4.09,-15.89 12.83,-15.89l75.56,-0c8.72,-0 17.25,7.15 18.95,15.89l14.57,75.56c1.68,8.73 -4.08,15.88 -12.81,15.88" stroke="#00000000" id="path_62"/><path fill="#78acea" fill-rule="nonzero" d="m2732.53,2150.85l-75.55,-0c-8.75,-0 -17.27,-7.15 -18.96,-15.88l-14.56,-75.56c-1.7,-8.75 4.08,-15.89 12.81,-15.89l75.55,-0c8.75,-0 17.27,7.15 18.96,15.89l14.56,75.56c1.69,8.73 -4.08,15.88 -12.81,15.88" stroke="#00000000" id="path_63"/><path fill="#afcdfb" fill-rule="nonzero" d="m1779.19,2150.85l-75.56,-0c-8.73,-0 -17.27,-7.15 -18.95,-15.88l-14.57,-75.56c-1.69,-8.75 4.08,-15.89 12.81,-15.89l75.56,-0c8.73,-0 17.27,7.15 18.95,15.89l14.57,75.56c1.69,8.73 -4.08,15.88 -12.81,15.88" stroke="#00000000" id="path_64"/><path fill="#afcdfb" fill-rule="nonzero" d="m1969.85,2150.85l-75.56,-0c-8.73,-0 -17.27,-7.15 -18.95,-15.88l-14.57,-75.56c-1.68,-8.75 4.08,-15.89 12.81,-15.89l75.56,-0c8.75,-0 17.27,7.15 18.95,15.89l14.57,75.56c1.69,8.73 -4.08,15.88 -12.81,15.88" stroke="#00000000" id="path_65"/><path fill="#afcdfb" fill-rule="nonzero" d="M2160.52,2150.85L2084.96,2150.85c-8.73,-0 -17.25,-7.15 -18.95,-15.88l-14.57,-75.56c-1.68,-8.75 4.08,-15.89 12.82,-15.89l75.57,-0c8.74,-0 17.25,7.15 18.93,15.89l14.58,75.56c1.68,8.73 -4.1,15.88 -12.82,15.88" stroke="#00000000" id="path_66"/><path fill="#afcdfb" fill-rule="nonzero" d="m1826.63,1382.19l-200.17,-0c-2.96,-0 -5.37,-2.41 -5.37,-5.36l0,-0c0,-2.95 2.41,-5.36 5.37,-5.36l200.17,-0c2.95,-0 5.36,2.41 5.36,5.36l0,-0c0,2.95 -2.41,5.36 -5.36,5.36" stroke="#00000000" id="path_67"/><path fill="#afcdfb" fill-rule="nonzero" d="M1832.72,1406.44L1632.53,1406.44c-2.95,-0 -5.36,-2.41 -5.36,-5.37l0,-0c0,-2.95 2.41,-5.36 5.36,-5.36l200.19,-0c2.95,-0 5.36,2.41 5.36,5.36l0,-0c0,2.96 -2.41,5.37 -5.36,5.37" stroke="#00000000" id="path_68"/><path fill="#ffffff" fill-rule="nonzero" d="m1611.93,1201.67l-68.69,-0c-5.63,-0 -10.23,-4.61 -10.23,-10.24l0,-0c0,-5.61 4.6,-10.23 10.23,-10.23l68.69,-0c5.63,-0 10.23,4.61 10.23,10.23l0,-0c0,5.63 -4.6,10.24 -10.23,10.24" stroke="#00000000" id="path_69"/><path fill="#ffffff" fill-rule="nonzero" d="M1800.43,1201.67L1731.73,1201.67c-5.63,-0 -10.24,-4.61 -10.24,-10.24l0,-0c0,-5.61 4.61,-10.23 10.24,-10.23l68.69,-0c5.63,-0 10.23,4.61 10.23,10.23l0,-0c0,5.63 -4.6,10.24 -10.23,10.24" stroke="#00000000" id="path_70"/><path fill="#ffffff" fill-rule="nonzero" d="m1988.92,1201.67l-68.69,-0c-5.63,-0 -10.24,-4.61 -10.24,-10.24l0,-0c0,-5.61 4.61,-10.23 10.24,-10.23l68.69,-0c5.63,-0 10.23,4.61 10.23,10.23l0,-0c0,5.63 -4.6,10.24 -10.23,10.24" stroke="#00000000" id="path_71"/><path fill="#ffffff" fill-rule="nonzero" d="m2177.39,1201.66l-68.69,-0c-5.64,-0 -10.23,-4.6 -10.23,-10.23l0,-0c0,-5.62 4.59,-10.23 10.23,-10.23l68.69,-0c5.62,-0 10.24,4.6 10.24,10.23l0,-0c0,5.62 -4.62,10.23 -10.24,10.23" stroke="#00000000" id="path_72"/><path fill="#ffffff" fill-rule="nonzero" d="m2365.89,1201.66l-68.69,-0c-5.63,-0 -10.22,-4.61 -10.22,-10.23l0,-0c0,-5.63 4.59,-10.23 10.22,-10.23l68.69,-0c5.63,-0 10.23,4.61 10.23,10.23l0,-0c0,5.63 -4.61,10.23 -10.23,10.23" stroke="#00000000" id="path_73"/><path fill="#ffffff" fill-rule="nonzero" d="m2554.39,1201.66l-68.69,-0c-5.63,-0 -10.24,-4.6 -10.24,-10.23l0,-0c0,-5.63 4.61,-10.23 10.24,-10.23l68.69,-0c5.63,-0 10.23,4.6 10.23,10.23l0,-0c0,5.63 -4.59,10.23 -10.23,10.23" stroke="#00000000" id="path_74"/><path fill="#ffffff" fill-rule="nonzero" d="m2742.89,1201.66l-68.71,-0c-5.62,-0 -10.24,-4.6 -10.24,-10.23l0,-0c0,-5.63 4.61,-10.23 10.24,-10.23l68.71,-0c5.62,-0 10.22,4.6 10.22,10.23l0,-0c0,5.63 -4.59,10.23 -10.22,10.23" stroke="#00000000" id="path_75"/><path fill="#c65447" fill-rule="nonzero" d="m2308.41,1476.24c-15.15,-0 -26.21,-4.81 -32.22,-14.16 -11.55,-17.92 -2.65,-43.04 26.48,-74.65 21.26,-23.09 46.1,-41.39 46.34,-41.57 0.97,-0.72 2.35,-0.51 3.07,0.47 0.71,0.97 0.5,2.35 -0.47,3.07 -0.98,0.72 -96.69,71.59 -71.75,110.32 7.9,12.27 24.82,13.08 37.64,11.6 23.72,-2.75 54.63,-15.52 82.72,-34.17 29.06,-19.31 49.55,-41.05 56.18,-59.69 4.36,-12.21 3.01,-20.87 -4.01,-25.72 -9.05,-6.27 -27.97,-6.28 -50.59,-0.01 -21.69,5.99 -43.5,16.77 -56.94,28.15 -0.92,0.79 -2.3,0.67 -3.09,-0.25 -0.79,-0.92 -0.68,-2.31 0.24,-3.09 13.89,-11.76 36.35,-22.88 58.6,-29.03 24.23,-6.71 44.01,-6.47 54.27,0.63 6.08,4.21 11.99,12.97 5.65,30.81 -6.95,19.51 -28.04,42.05 -57.89,61.87 -28.62,19.01 -60.26,32.05 -84.63,34.87 -3.36,0.39 -6.57,0.59 -9.61,0.59" stroke="#00000000" id="path_76"/><path fill="#ffb27d" fill-rule="nonzero" d="m2705.06,1351.68 l-7.8,-14.71c0,-0 3.87,-26.22 -28.98,-42.81 0,-0 -12.02,-4.89 -18.79,4.9 -6.24,9.02 11.9,7.39 10.92,22.82 -0.98,15.43 6.36,24.48 16.55,29.51l8.43,9.76 19.67,-9.48" stroke="#00000000" id="path_77"/><path fill="#233862" fill-rule="nonzero" d="m3015.48,1316.51c0,-0 -28.19,138.45 -183.44,183.69 -48.45,14.12 -158.54,-145.41 -158.54,-145.41 0,-0 3.87,-14.71 28.12,-11.33 0,-0 107.19,70.96 120.67,78.68 11.99,6.84 90.72,-87.93 126.63,-103.22 35.89,-15.29 66.56,-2.4 66.56,-2.4" stroke="#00000000" id="path_78"/><path fill="#c65447" fill-rule="nonzero" d="m2730.56,1282.73 l6.21,33.59 -168.96,31.28 -6.23,-33.59 168.97,-31.29" stroke="#00000000" id="path_79"/><path fill="#ffb27d" fill-rule="nonzero" d="m2525.4,1338.1 l42.39,9.52 -6.22,-33.58 -36.17,24.06" stroke="#00000000" id="path_80"/><path fill="#ffb27d" fill-rule="nonzero" d="m2752.24,1290.25 l1.96,10.62c1.22,6.53 -3.11,12.81 -9.64,14.02l-7.81,1.45 -6.22,-33.59 8.5,-1.58c6.15,-1.14 12.05,2.93 13.2,9.08" stroke="#00000000" id="path_81"/><path fill="#233862" fill-rule="nonzero" d="m3200.81,2186.87c0,-0 19.26,17.57 15.51,30.07 -3.75,12.49 -21.14,20.81 -23.49,36.08 -2.35,15.25 -11.75,23.59 -20.19,23.59 -8.46,-0 -40.32,-0 -40.32,-0 0,-0 -6.22,-10.75 8.81,-13.99 15.03,-3.23 20.7,-21.17 19.77,-37.81 -0.95,-16.65 1.4,-38.85 1.4,-38.85l31.94,-7.4 6.56,8.32" stroke="#00000000" id="path_82"/><path fill="#233862" fill-rule="nonzero" d="m2964.55,2232.33c0,-0 3.46,39.99 -4.99,44.15l-108.2,-0.21c0,-0 0,-12.49 17.37,-15.27 17.37,-2.77 47.91,-12.95 53.08,-35.61 5.15,-22.65 42.74,6.95 42.74,6.95" stroke="#00000000" id="path_83"/><path fill="#FF00FF" fill-rule="nonzero" d="m2873.2,1667.35c0,-0 5.69,70.11 12.41,154.37 9.12,114.49 20.08,255.11 21.17,281.75 1.86,46.25 9.4,120.25 9.4,120.25 0,-0 17.84,17.57 53.53,10.17 0,-0 31.83,-105.63 40.91,-217.39 0.15,-1.84 0.3,-3.68 0.43,-5.53 8.45,-113.77 21.6,-353.35 21.6,-353.35l-159.45,9.72" stroke="#00000000" id="path_84"/><path fill="#FF00FF" fill-rule="nonzero" d="m2873.2,1667.35c0,-0 5.69,70.11 12.41,154.37l125.01,194.79c0.15,-1.84 0.3,-3.68 0.43,-5.53 8.45,-113.77 21.6,-353.35 21.6,-353.35l-159.45,9.72" stroke="#00000000" id="path_85"/><path fill="#FF00FF" fill-rule="nonzero" d="m2899.28,1675.67c0,-0 102.86,253.91 170.49,373.23 67.65,119.33 88.78,152.63 88.78,152.63 0,-0 38.76,-15.27 42.28,-25.67 0,-0 -25.86,-230.36 -71.16,-286.52 -25.59,-31.72 -55.65,-126.95 -57.06,-160.25 -1.41,-33.29 -9.15,-99.2 -9.15,-99.2l-164.16,45.79" stroke="#00000000" id="path_86"/><path fill="#ffb27d" fill-rule="nonzero" d="m3034.6,1284.37c0,-0 -69.59,33.58 -109.71,21.12 0,-0 9.87,-12.46 27.14,-21.73 -1.38,-8.05 -2.46,-15.04 -3.07,-20.97 -1.71,-13.68 -1.71,-21.43 -1.71,-21.43l26.86,-21.12 25.47,-20.21c-2.01,56.83 35.02,84.33 35.02,84.33" stroke="#00000000" id="path_87"/><path fill="#2b478b" fill-rule="nonzero" d="m2868.82,1673.13c1.22,1.07 2.6,1.67 4.16,1.67 15.13,-0.31 59.11,8.04 96.29,4.24 31.47,-3.04 59.26,-12.15 89.05,-25.2 4.01,-1.83 13.11,-6.69 12.96,-10.95 -0.17,-4.87 -0.62,-11.69 -1.24,-20.52 -1.24,-17.36 -3,-42.01 -3.56,-71.24 -0.4,-21.67 -0.17,-45.84 1.39,-71.45 0.09,-1.72 0.19,-3.45 0.26,-5.19 0.45,-9.39 0.66,-18.84 0.66,-28.08 0.17,-29.79 -2,-58.2 -6.31,-83.57 -7.57,-44.07 -21.76,-78.56 -42.74,-93.91 -2.79,-2.13 -20.09,6.22 -36.12,13.98 -14.68,7.14 -29.32,7.9 -43.21,5.17l-13.89,12.15c-16.85,15.34 -35.37,36.46 -43.53,68.38 -6.78,27.05 -10.8,75.97 -12.96,126.73 -1.07,23.09 -1.85,46.19 -2.15,68.21l0,0.76c-0.17,2.28 -0.17,4.57 -0.17,6.85 -0.77,56.38 0,101.2 1.09,101.96" stroke="#00000000" id="path_88"/><path fill="#ed985f" fill-rule="nonzero" d="m3000.05,1221.77c0,-0 -17.6,32.06 -51.07,41.03 -1.71,-13.68 -1.71,-21.43 -1.71,-21.43l26.85,-21.12 25.93,1.52" stroke="#00000000" id="path_89"/><path fill="#ffb27d" fill-rule="nonzero" d="m2935.01,1240.44c0,-0 66.4,10.86 72.64,-29.96 6.24,-40.82 19,-66.91 -23.12,-75.57 -42.13,-8.66 -52.77,5.69 -58.21,18.82 -5.44,13.13 -8.41,82.83 8.69,86.7" stroke="#00000000" id="path_90"/><path fill="#2c3a64" fill-rule="nonzero" d="m3031.78,1130.03c0.6,-0.69 1.99,-1.25 5.09,-1.42 0,-0 -2.48,-1.54 -5.8,-1.63 -0.63,-4.3 -2.93,-11.92 -10.32,-13.77 0,-0 3.97,2.12 4.49,6.7 -8.57,-8.81 -26.95,-15.22 -77.84,-11.2 -67.05,5.29 -44.95,48.23 -36.27,53.35 8.68,5.12 30.54,-8.91 46.7,-7.63 16.18,1.28 19.27,24.66 24.75,27.86 5.48,3.21 3.32,-2.46 10.75,-5.82 7.42,-3.36 8.13,8.95 5.98,16.95 -2.14,8 8.05,18.55 8.05,18.55 0,-0 0,-0 10.31,-11.1 10.31,-11.1 20.03,-58.13 15.36,-68.15 -0.41,-0.89 -0.82,-1.78 -1.25,-2.68" stroke="#00000000" id="path_91"/><path fill="#ffb27d" fill-rule="nonzero" d="m2697.12,1336.26c0,-0 2.29,-9.02 -3.97,-13.08 -6.26,-4.06 -12.02,-15.09 -14.66,-13.59 -5.47,3.1 2.98,12.72 1.44,24.72 -0.53,4.21 9.24,15.23 17.19,1.95" stroke="#00000000" id="path_92"/><path fill="#233862" fill-rule="nonzero" d="m3066.5,1551.13c-0.41,-21.67 -0.19,-45.84 1.39,-71.45 0.09,-1.72 0.17,-3.45 0.24,-5.19 -6.31,-31.27 -15.85,-59.01 -29.91,-59.92 0,-0 -41.86,65.8 28.27,136.56" stroke="#00000000" id="path_93"/><path fill="#ffb27d" fill-rule="nonzero" d="m3121.86,1664.59c0,-0 -3.49,33.93 -7.32,40.35 -3.83,6.41 -20.13,26.92 -27.06,30.95 -6.95,4.03 4.23,-27.03 2.8,-33.07 -1.4,-6.04 -5.69,11.03 -8.77,11.43 -3.05,0.4 -2.26,-14.96 -2.36,-20.55 -0.13,-5.59 14.86,-19.39 20.17,-31.28 5.29,-11.91 22.54,2.17 22.54,2.17" stroke="#00000000" id="path_94"/><path fill="#2b478b" fill-rule="nonzero" d="m3019.7,1268.59c0,-0 42.02,19.89 62.16,50.47 31.26,47.44 67.46,220.32 68.14,236.34 0.66,16 -26.44,129.03 -26.44,129.03 0,-0 -27.49,-1.8 -34.58,-15.68 0,-0 5.49,-116.13 2.01,-123.6 -3.48,-7.47 -114.58,-155.77 -102.1,-187.43 12.51,-31.64 30.81,-89.13 30.81,-89.13" stroke="#00000000" id="path_95"/><path fill="#c65447" fill-rule="nonzero" d="m2547.12,1323.64 l2.22,19.82 -23.93,-5.37 21.71,-14.45" stroke="#00000000" id="path_96"/><path fill="#82b378" fill-rule="nonzero" d="m3456.17,2275.96l-121.06,-0c-6.5,-5.51 4.48,-18 15.94,-18.84 4.99,-0.39 11.3,0.67 18.48,2.19 1.68,-22.13 11.19,-121.6 47.04,-117.61 40.32,4.48 0,43.81 -11.38,67.09 -8.44,17.25 -17.35,41.99 -21.44,53.65 3.28,0.72 6.67,1.42 10.15,2.04 5.33,-16.4 25.21,-71.59 50.49,-68.38 29.69,3.76 17.78,25.9 -3.28,39.03 -15.43,9.65 -34.38,23.38 -43.39,30.01 7.63,1.26 15.6,2.1 23.68,1.91 20.72,-0.49 30.86,5.61 34.78,8.91" stroke="#00000000" id="path_97"/><path fill="#82b378" fill-rule="nonzero" d="m692.56,2270.2c-6.42,-10.08 -25.72,-36.24 -51.44,-32.77 -28.02,3.77 30.95,22.25 49,32.85 -4.01,0.05 -7.46,-0.27 -9.99,-1.17 -12.07,-4.29 -32.74,3.96 -39.35,6.85l114.9,-0c-0.79,-2.75 -2.86,-7.24 -8.21,-10.51 -1.89,-1.16 -5.68,-1.32 -10.58,-0.95 6.83,-8.05 11.58,-33.79 -7.44,-27.16 -13.89,4.84 -13.86,20.56 -12.49,29.85 -2.96,0.47 -5.95,0.93 -8.92,1.36 -5.72,-29.16 -25.95,-114.6 -66.97,-116.88 -41.58,-2.31 35.26,88.61 60.84,117.69 -3.28,0.4 -6.43,0.69 -9.36,0.83" stroke="#00000000" id="path_98"/><path fill="#2e3552" fill-rule="nonzero" d="M3837.25,2284.31L240.61,2284.31c-2.25,-0 -4.08,-1.84 -4.08,-4.08l0,-1.4c0,-2.24 1.84,-4.08 4.08,-4.08L3837.25,2274.75c2.24,-0 4.08,1.84 4.08,4.08l0,1.4c0,2.24 -1.84,4.08 -4.08,4.08" stroke="#00000000" id="path_99"/></svg>