<svg id="vector" xmlns="http://www.w3.org/2000/svg" width="500" height="500" viewBox="0 0 666.6667 666.6667"><defs><clipPath id="clip_path_0"><path d="M0,0L666.667,0L666.667,666.667L0,666.667Z"/></clipPath><clipPath id="clip_path_1"><path d="M0,0L666.667,0L666.667,666.667L0,666.667Z"/></clipPath><clipPath id="clip_path_2"><path d="M0,0L666.667,0L666.667,666.667L0,666.667Z"/></clipPath><clipPath id="clip_path_3"><path d="M0,0L666.667,0L666.667,666.667L0,666.667Z"/></clipPath><clipPath id="clip_path_4"><path d="M0,0L666.667,0L666.667,666.667L0,666.667Z"/></clipPath><clipPath id="clip_path_5"><path d="M0,0L666.667,0L666.667,666.667L0,666.667Z"/></clipPath><clipPath id="clip_path_6"><path d="M0,0L666.667,0L666.667,666.667L0,666.667Z"/></clipPath><clipPath id="clip_path_7"><path d="M0,0L666.667,0L666.667,666.667L0,666.667Z"/></clipPath><clipPath id="clip_path_8"><path d="M0,0L666.667,0L666.667,666.667L0,666.667Z"/></clipPath><clipPath id="clip_path_9"><path d="M0,0L666.667,0L666.667,666.667L0,666.667Z"/></clipPath><clipPath id="clip_path_10"><path d="M0,0L666.667,0L666.667,666.667L0,666.667Z"/></clipPath><clipPath id="clip_path_11"><path d="M0,0L666.667,0L666.667,666.667L0,666.667Z"/></clipPath><clipPath id="clip_path_12"><path d="m95.409,276.495c0,54.276 44,98.277 98.276,98.277l0,-0c54.276,-0 98.277,-44.001 98.277,-98.277l0,-0c0,-54.276 -44.001,-98.276 -98.277,-98.276l0,-0c-54.276,-0 -98.276,44 -98.276,98.276"/></clipPath><clipPath id="clip_path_13"><path d="m95.409,276.495c0,54.276 44,98.277 98.276,98.277 54.276,-0 98.277,-44.001 98.277,-98.277 0,-54.276 -44.001,-98.276 -98.277,-98.276 -54.276,-0 -98.276,44 -98.276,98.276"/></clipPath><clipPath id="clip_path_14"><path d="m95.409,276.495c0,54.276 44,98.277 98.276,98.277 54.276,-0 98.277,-44.001 98.277,-98.277 0,-54.276 -44.001,-98.276 -98.277,-98.276 -54.276,-0 -98.276,44 -98.276,98.276"/></clipPath><clipPath id="clip_path_15"><path d="m95.409,276.495c0,54.276 44,98.277 98.276,98.277l0,-0c54.276,-0 98.277,-44.001 98.277,-98.277l0,-0c0,-54.276 -44.001,-98.276 -98.277,-98.276l0,-0c-54.276,-0 -98.276,44 -98.276,98.276"/></clipPath><clipPath id="clip_path_16"><path d="m95.409,276.495c0,54.276 44,98.277 98.276,98.277l0,-0c54.276,-0 98.277,-44.001 98.277,-98.277l0,-0c0,-54.276 -44.001,-98.276 -98.277,-98.276l0,-0c-54.276,-0 -98.276,44 -98.276,98.276"/></clipPath><clipPath id="clip_path_17"><path d="m95.409,276.495c0,54.276 44,98.277 98.276,98.277 54.276,-0 98.277,-44.001 98.277,-98.277 0,-54.276 -44.001,-98.276 -98.277,-98.276 -54.276,-0 -98.276,44 -98.276,98.276"/></clipPath><clipPath id="clip_path_18"><path d="m95.409,276.495c0,54.276 44,98.277 98.276,98.277l0,-0c54.276,-0 98.277,-44.001 98.277,-98.277l0,-0c0,-54.276 -44.001,-98.276 -98.277,-98.276l0,-0c-54.276,-0 -98.276,44 -98.276,98.276"/></clipPath><clipPath id="clip_path_19"><path d="M0,0L666.667,0L666.667,666.667L0,666.667Z"/></clipPath><clipPath id="clip_path_20"><path d="M0,0L666.667,0L666.667,666.667L0,666.667Z"/></clipPath></defs><g id="g_0"><path fill="#a1c2ff" fill-rule="nonzero" d="m389.394,557.006c0,-0 -8.607,-70.084 52.604,-91.395 8.653,-0.739 -26.613,35.692 -21.069,27.533 0,-0 22.303,-25.163 36.339,-25.689l5.407,1.705c0,-0 -30.067,25.439 -23.681,32.283 7.808,2.339 27.903,-29.961 35.655,-30.981l7.753,-1.023c0,-0 -26.167,26.421 -24.576,32.372 5.357,-1.283 25.477,-32.088 34.155,-31.333 8.677,0.757 12.38,7.868 12.38,7.868 0,-0 -26.693,12.385 -26.881,19.261 -0.187,6.876 7.971,12.421 14.392,3.053 6.424,-9.367 10.191,-16.6 20.029,-17.955 9.84,-1.355 25.489,5.563 30.968,11.751 5.171,5.592 -37.123,14.048 -28.681,18.691 8.443,4.645 32.952,-13.383 41.395,-8.737 8.441,4.644 38.612,40.909 35.956,43.044 -2.655,2.136 -30.701,4.681 -30.701,4.681 0,-0 -11.291,-14.459 -23.289,-17.253 -11.997,-2.793 -0.901,9.235 -0.901,9.235L500.441,531.599 442.567,537.616Z" stroke="#00000000" clip-path="url(#clip_path_0)"/><path fill="#8ba5ef" fill-rule="nonzero" d="m403.291,566.342c0,-0 -20.768,4.595 -31.087,-9.805 -10.319,-14.399 -6.496,-13.564 -4.309,-16.961 2.187,-3.397 15.225,12.975 16.736,9.364 1.511,-3.609 -15.92,-14.308 -16.9,-19.448 -0.979,-5.137 -0.875,-12.535 2.699,-13.265 3.575,-0.731 36.783,29.435 44.339,25.503 7.557,-3.932 -7.651,-15.789 -15.779,-19.467 -8.127,-3.677 -23.171,-5.451 -20.309,-8.635 2.861,-3.184 14.931,-19.068 49.963,-14.705 10.173,5.439 11.267,31.417 16.424,31.559 5.156,0.14 -10.555,-28.964 -6.075,-29.037 4.483,-0.073 6.492,-0.553 8.84,6.132 2.349,6.685 5.095,23.899 13.38,23.539 8.287,-0.357 -7.564,-24.304 -2.64,-24.609 4.925,-0.303 13.924,1.792 16.451,5.56 2.525,3.769 1.393,16.787 7.883,16.233 6.491,-0.553 -2.013,-13.639 4.957,-12.183 6.971,1.456 50.672,28.985 50.672,28.985 0,-0 -32.027,-21.657 -135.244,21.241" stroke="#00000000"/><path fill="#e7e8fa" fill-rule="nonzero" d="m360.059,107.916c0,-0 65.001,-49.525 150.123,-1.548 85.121,47.977 89.764,199.648 10.833,260.007 -78.929,60.359 -58.811,187.267 -154.765,213.576 -95.955,26.311 -202.744,-0 -255.363,-95.953 -52.621,-95.955 0,-179.528 60.357,-205.839 60.359,-26.311 108.336,-49.525 119.171,-85.121C301.249,157.441 330.654,118.749 360.059,107.916" stroke="#00000000"/><path fill="#8ba5ef" d="M310.872,460.95C306.812,457.57 309.953,452.758 313.488,456.11 317.021,459.46 310.872,460.95 310.872,460.95m8.113,12.273c2.101,5.633 -3.271,7.429 -3.271,7.429 -4.543,1.056 -6.367,-4.824 -6.059,-11.108 0.309,-6.284 7.229,-1.953 9.329,3.679m26.027,-58.508c-2.509,-1.163 -2.112,11.619 -6.391,20.309 -4.277,8.689 -9.624,12.98 -11.523,9.811 -1.897,-3.169 11.536,-20.528 11.912,-28.163 0.376,-7.635 -9.004,-15.309 -11.052,-15.425 -2.049,-0.116 -2.695,28.683 -6.479,32.553 -3.785,3.868 -5.097,-0.8 -2.261,-6.253 2.836,-5.455 6.465,-21.836 3.569,-25.571 -2.899,-3.737 -12.209,-7.581 -13.065,-5.844C308.868,397.87 313.1,405.764 314.093,411.691 315.085,417.616 314.029,423.426 309.009,421.1c-5.021,-2.325 0.9,-18.323 0.051,-21.944 -0.848,-3.62 -11.696,-7.551 -14.013,-7.427 -2.316,0.125 -19.236,15.245 -19.461,19.825 2.479,7.031 16.829,18.049 20.413,18.252 3.585,0.203 8.237,4.804 2.261,6.252 -6.708,0.641 -22.513,-17.351 -23.512,-17.916 -0.999,-0.567 -3.735,2.851 -3.741,8.209 -0.007,5.357 14.712,14.101 20.295,15.439 5.584,1.336 17.624,7.12 6.695,10.076 -10.929,2.953 -26.516,-14.26 -29.664,-12.907 -3.148,1.352 -1.524,10.121 -0.919,13.472 0.605,3.353 6.088,6.724 12.208,7.581 6.12,0.856 23.757,-2.74 21.652,3.52 -2.105,6.263 -30.895,-3.532 -33.017,-2.12 -2.124,1.409 -2.205,8.295 2.128,14.155 4.089,5.589 30.539,-4.908 32.337,0.299 -4.279,8.688 -25.563,2.891 -28.516,5.532 -2.955,2.639 1.061,9.756 3.933,14.003 2.872,4.244 6.239,3.669 13.827,0.781 7.588,-2.888 15.845,-14.16 16.376,-9.281 -1.787,5.003 -17.551,12.277 -19.748,15.215 -0.471,4.312 7.448,10.373 9.64,12.795 2.192,2.42 17.033,-27.873 18.881,-23.685 1.848,4.188 -13.56,19.904 -14.172,21.911 -0.612,2.007 5.92,4.928 9.899,2.345 20.575,-14.068 16.148,-32.703 13.667,-39.385 8.78,19.513 19.936,17.707 24.481,15.513 4.735,-2.284 9.112,-13.011 7.701,-15.64 -1.411,-2.633 -6.371,4.231 -14.347,4.547 -7.973,0.315 -10.772,-5.459 -10.671,-7.493 0.1,-2.037 16.824,2.481 22.201,-7.676 5.379,-10.159 1.863,-27.456 0.109,-28.32 -1.755,-0.865 -10.8,15.976 -14.972,17.272 -4.171,1.295 -5.901,-0.08 -4.652,-4.601 1.249,-4.524 16.308,-13.113 16.095,-19.251 -0.211,-6.136 -4.932,-14.569 -7.443,-15.732" stroke="#00000000"/><path fill="#00000000" d="m342.842,152.239c0,30.932 -25.076,56.008 -56.008,56.008 -30.933,-0 -56.008,-25.076 -56.008,-56.008 0,-30.932 25.075,-56.008 56.008,-56.008C317.766,96.231 342.842,121.307 342.842,152.239Z" stroke-width="2" stroke="#c2d6ff" stroke-linecap="round" stroke-linejoin="round"/><path fill="#00000000" d="m526.11,324.588l-135.42,-0c-6.197,-0 -11.22,-5.024 -11.22,-11.221l0,-126.133c0,-6.197 5.023,-11.22 11.22,-11.22L526.11,176.013c6.196,-0 11.22,5.023 11.22,11.22L537.33,313.366C537.33,319.564 532.306,324.588 526.11,324.588Z" stroke-width="1" stroke="#ffffff" stroke-linecap="butt" stroke-linejoin="miter"/></g><path fill="#D8E2F6FF" d="M261.508,158.913L261.508,298.771c0,6.809 5.519,12.329 12.328,12.329l0,-0l241.104,-0c6.811,-0 12.331,-5.52 12.331,-12.329l0,-0 0,-139.857z" stroke="#00000000" id="path_0"/><path fill="#6060E7FF" d="m273.836,131.059c-6.809,-0 -12.328,5.52 -12.328,12.329l0,-0 0,24.936l265.763,-0l0,-24.936c0,-6.809 -5.52,-12.329 -12.331,-12.329l0,-0z" stroke="#00000000" id="path_1"/><path fill="#D8E2F6FF" d="m283.653,122.839l0,20.916c0,3.279 2.659,5.936 5.937,5.936l0,-0c3.277,-0 5.936,-2.657 5.936,-5.936l0,-0 0,-20.916c0,-3.279 -2.659,-5.936 -5.936,-5.936l0,-0c-3.279,-0 -5.937,2.657 -5.937,5.936" stroke="#00000000" id="path_2"/><path fill="#D8E2F6FF" d="m353.52,122.839l0,20.916c0,3.279 2.657,5.936 5.936,5.936l0,-0c3.279,-0 5.937,-2.657 5.937,-5.936l0,-0 0,-20.916c0,-3.279 -2.659,-5.936 -5.937,-5.936l0,-0c-3.279,-0 -5.936,2.657 -5.936,5.936" stroke="#00000000" id="path_3"/><path fill="#D8E2F6FF" d="m423.385,122.839l0,20.916c0,3.279 2.657,5.936 5.936,5.936l0,-0c3.279,-0 5.937,-2.657 5.937,-5.936l0,-0 0,-20.916c0,-3.279 -2.659,-5.936 -5.937,-5.936l0,-0c-3.279,-0 -5.936,2.657 -5.936,5.936" stroke="#00000000" id="path_4"/><path fill="#D8E2F6FF" d="m493.251,122.839l0,20.916c0,3.279 2.657,5.936 5.936,5.936l0,-0c3.279,-0 5.936,-2.657 5.936,-5.936l0,-0 0,-20.916c0,-3.279 -2.657,-5.936 -5.936,-5.936l0,-0c-3.279,-0 -5.936,2.657 -5.936,5.936" stroke="#00000000" id="path_5"/><g id="g_1"><path fill="#c2d6ff" fill-rule="nonzero" d="m325.962,216.954l-28.231,-0c-1.14,-0 -2.064,-0.924 -2.064,-2.064l0,-28.231c0,-1.14 0.924,-2.064 2.064,-2.064L325.962,184.596c1.14,-0 2.064,0.924 2.064,2.064L328.026,214.89C328.026,216.03 327.102,216.954 325.962,216.954" stroke="#00000000" clip-path="url(#clip_path_1)"/><path fill="#a6c7ff" fill-rule="nonzero" d="m367.234,216.954l-28.232,-0c-1.139,-0 -2.063,-0.924 -2.063,-2.064l0,-28.231c0,-1.14 0.924,-2.064 2.063,-2.064L367.234,184.596c1.139,-0 2.063,0.924 2.063,2.064L369.297,214.89C369.297,216.03 368.373,216.954 367.234,216.954" stroke="#00000000"/><path fill="#c2d6ff" fill-rule="nonzero" d="m408.505,216.954l-28.232,-0c-1.139,-0 -2.063,-0.924 -2.063,-2.064l0,-28.231c0,-1.14 0.924,-2.064 2.063,-2.064L408.505,184.596c1.139,-0 2.063,0.924 2.063,2.064L410.567,214.89C410.567,216.03 409.643,216.954 408.505,216.954" stroke="#00000000"/><path fill="#c2d6ff" fill-rule="nonzero" d="m449.776,216.954l-28.232,-0c-1.139,-0 -2.063,-0.924 -2.063,-2.064l0,-28.231c0,-1.14 0.924,-2.064 2.063,-2.064L449.776,184.596c1.139,-0 2.063,0.924 2.063,2.064L451.838,214.89C451.838,216.03 450.914,216.954 449.776,216.954" stroke="#00000000"/><path fill="#c2d6ff" fill-rule="nonzero" d="m491.046,216.954l-28.232,-0c-1.139,-0 -2.063,-0.924 -2.063,-2.064l0,-28.231c0,-1.14 0.924,-2.064 2.063,-2.064L491.046,184.596c1.139,-0 2.064,0.924 2.064,2.064L493.11,214.89C493.11,216.03 492.185,216.954 491.046,216.954" stroke="#00000000"/><path fill="#c2d6ff" fill-rule="nonzero" d="m325.962,256.161l-28.231,-0c-1.14,-0 -2.064,-0.924 -2.064,-2.063l0,-28.232c0,-1.139 0.924,-2.063 2.064,-2.063L325.962,223.804c1.14,-0 2.064,0.924 2.064,2.063L328.026,254.099C328.026,255.237 327.102,256.161 325.962,256.161" stroke="#00000000"/></g><path fill="#6060E7FF" d="m339.003,223.804c-1.14,-0 -2.063,0.923 -2.063,2.063l0,-0 0,28.232c0,1.139 0.923,2.063 2.063,2.063l0,-0l28.231,-0c1.14,-0 2.063,-0.924 2.063,-2.063l0,-0 0,-28.232c0,-1.14 -0.923,-2.063 -2.063,-2.063l0,-0z" stroke="#00000000" id="path_6"/><g id="g_2"><path fill="#c2d6ff" fill-rule="nonzero" d="m408.505,256.161l-28.232,-0c-1.139,-0 -2.063,-0.924 -2.063,-2.063l0,-28.232c0,-1.139 0.924,-2.063 2.063,-2.063L408.505,223.804c1.139,-0 2.063,0.924 2.063,2.063L410.567,254.099C410.567,255.237 409.643,256.161 408.505,256.161" stroke="#00000000" clip-path="url(#clip_path_2)"/><path fill="#d4e5ff" fill-rule="nonzero" d="m449.776,256.161l-28.232,-0c-1.139,-0 -2.063,-0.924 -2.063,-2.063l0,-28.232c0,-1.139 0.924,-2.063 2.063,-2.063L449.776,223.804c1.139,-0 2.063,0.924 2.063,2.063L451.838,254.099C451.838,255.237 450.914,256.161 449.776,256.161" stroke="#00000000"/><path fill="#d4e5ff" fill-rule="nonzero" d="m491.046,256.161l-28.232,-0c-1.139,-0 -2.063,-0.924 -2.063,-2.063l0,-28.232c0,-1.139 0.924,-2.063 2.063,-2.063L491.046,223.804c1.139,-0 2.064,0.924 2.064,2.063L493.11,254.099C493.11,255.237 492.185,256.161 491.046,256.161" stroke="#00000000"/><path fill="#a6c7ff" fill-rule="nonzero" d="m325.962,295.369l-28.231,-0c-1.14,-0 -2.064,-0.924 -2.064,-2.064l0,-28.231c0,-1.14 0.924,-2.064 2.064,-2.064L325.962,263.01c1.14,-0 2.064,0.924 2.064,2.064L328.026,293.305C328.026,294.445 327.102,295.369 325.962,295.369" stroke="#00000000"/><path fill="#c2d6ff" fill-rule="nonzero" d="m367.234,295.369l-28.232,-0c-1.139,-0 -2.063,-0.924 -2.063,-2.064l0,-28.231c0,-1.14 0.924,-2.064 2.063,-2.064L367.234,263.01c1.139,-0 2.063,0.924 2.063,2.064L369.297,293.305C369.297,294.445 368.373,295.369 367.234,295.369" stroke="#00000000"/><path fill="#c2d6ff" fill-rule="nonzero" d="m408.505,295.369l-28.232,-0c-1.139,-0 -2.063,-0.924 -2.063,-2.064l0,-28.231c0,-1.14 0.924,-2.064 2.063,-2.064L408.505,263.01c1.139,-0 2.063,0.924 2.063,2.064L410.567,293.305C410.567,294.445 409.643,295.369 408.505,295.369" stroke="#00000000"/><path fill="#c2d6ff" fill-rule="nonzero" d="m449.776,295.369l-28.232,-0c-1.139,-0 -2.063,-0.924 -2.063,-2.064l0,-28.231c0,-1.14 0.924,-2.064 2.063,-2.064L449.776,263.01c1.139,-0 2.063,0.924 2.063,2.064L451.838,293.305C451.838,294.445 450.914,295.369 449.776,295.369" stroke="#00000000"/><path fill="#c2d6ff" fill-rule="nonzero" d="m491.046,295.369l-28.232,-0c-1.139,-0 -2.063,-0.924 -2.063,-2.064l0,-28.231c0,-1.14 0.924,-2.064 2.063,-2.064L491.046,263.01c1.139,-0 2.064,0.924 2.064,2.064L493.11,293.305C493.11,294.445 492.185,295.369 491.046,295.369" stroke="#00000000"/><path fill="#00000000" d="M193.599,387.352C131.346,387.352 80.878,336.884 80.878,274.629" stroke-width="2" stroke="#8182ee" stroke-linecap="round" stroke-linejoin="round"/><path fill="#00000000" d="M550.421,190.458L550.421,232.76" stroke-width="2" stroke="#8182ee" stroke-linecap="round" stroke-linejoin="round"/></g><path fill="#6060E7FF" d="m429.247,345.464c-3.109,-0 -5.631,2.523 -5.631,5.632l0,-0 0,23.467c0,3.111 2.521,5.632 5.631,5.632l0,-0l124.844,-0c3.111,-0 5.632,-2.521 5.632,-5.632l0,-0 0,-23.467c0,-3.109 -2.521,-5.632 -5.632,-5.632l0,-0z" stroke="#00000000" id="path_7"/><g id="g_3"><path fill="#ffffff" fill-rule="nonzero" d="m539.588,359.797l-93.248,-0c-1.495,-0 -2.708,-1.213 -2.708,-2.708 0,-1.496 1.213,-2.708 2.708,-2.708L539.588,354.381C541.083,354.381 542.296,355.593 542.296,357.089 542.296,358.584 541.083,359.797 539.588,359.797" stroke="#00000000" clip-path="url(#clip_path_3)"/><path fill="#ffffff" fill-rule="nonzero" d="m464.268,370.888l-17.927,-0c-1.495,-0 -2.709,-1.212 -2.709,-2.708 0,-1.496 1.215,-2.708 2.709,-2.708L464.268,365.472C465.764,365.472 466.976,366.684 466.976,368.18 466.976,369.676 465.764,370.888 464.268,370.888" stroke="#00000000"/></g><path fill="#6060E7FF" d="m482.323,293.119c0,23.079 18.709,41.787 41.789,41.787l0,-0c23.077,-0 41.787,-18.708 41.787,-41.787l0,-0c0,-23.079 -18.709,-41.787 -41.787,-41.787l0,-0c-23.08,-0 -41.789,18.708 -41.789,41.787" stroke="#00000000" id="path_8"/><path fill="#D8E2F6FF" d="m489.545,293.119c0,19.089 15.476,34.565 34.567,34.565l0,-0c19.088,-0 34.564,-15.476 34.564,-34.565l0,-0c0,-19.089 -15.476,-34.565 -34.564,-34.565l0,-0c-19.091,-0 -34.567,15.476 -34.567,34.565" stroke="#00000000" id="path_9"/><g id="g_4"><path fill="#00000000" d="m523.594,269.388l0,27.341l12.639,-12.639" stroke-width="2" stroke-linecap="round" stroke-linejoin="round" stroke="#6060E7FF" clip-path="url(#clip_path_4)"/><path fill="#00000000" d="m488.515,412.03c0,4.273 -3.465,7.739 -7.739,7.739 -4.275,-0 -7.737,-3.465 -7.737,-7.739 0,-4.273 3.463,-7.739 7.737,-7.739C485.05,404.292 488.515,407.757 488.515,412.03Z" stroke-width="2" stroke-linecap="round" stroke-linejoin="round" stroke="#6060E7FF"/><path fill="#00000000" d="m487.483,436.019c0,1.709 -1.385,3.095 -3.095,3.095 -1.711,-0 -3.096,-1.385 -3.096,-3.095 0,-1.709 1.385,-3.095 3.096,-3.095C486.097,432.924 487.483,434.309 487.483,436.019Z" stroke-width="1" stroke-linecap="round" stroke-linejoin="round" stroke="#6060E7FF"/></g><path fill="#6060E7FF" d="m85.093,368.953c0,5.129 4.157,9.287 9.285,9.287l0,-0c5.128,-0 9.285,-4.157 9.285,-9.287l0,-0c0,-5.127 -4.157,-9.285 -9.285,-9.285l0,-0c-5.128,-0 -9.285,4.159 -9.285,9.285" stroke="#00000000" id="path_10"/><path fill="#6060E7FF" d="m234.7,120.297c0,2.848 2.308,5.159 5.159,5.159l0,-0c2.848,-0 5.159,-2.311 5.159,-5.159l0,-0c0,-2.849 -2.311,-5.159 -5.159,-5.159l0,-0c-2.851,-0 -5.159,2.309 -5.159,5.159" stroke="#00000000" id="path_11"/><path fill="#6060E7FF" d="m513.277,394.748c0,2.849 2.309,5.159 5.159,5.159l0,-0c2.849,-0 5.159,-2.309 5.159,-5.159l0,-0c0,-2.849 -2.309,-5.159 -5.159,-5.159l0,-0c-2.849,-0 -5.159,2.309 -5.159,5.159" stroke="#00000000" id="path_12"/><g id="g_5"><path fill="#a1c2ff" fill-rule="nonzero" d="m307.297,573.984c0,-0 22.307,-82.005 -46.945,-117.921 -10.181,-2.368 25.565,47.096 20.363,36.423 0,-0 -22.24,-33.811 -38.869,-36.853l-6.733,1.101c0,-0 31.441,35.476 22.657,42.531 -9.703,1.443 -28.085,-40.489 -37.145,-43.04l-9.06,-2.551c0,-0 26.627,35.973 23.708,42.788 -6.161,-2.448 -24.829,-42.605 -35.297,-43.197 -10.468,-0.592 -16.1,7.243 -16.1,7.243 0,-0 29.668,19.344 28.708,27.568 -0.959,8.223 -11.631,13.427 -17.671,1.161 -6.039,-12.263 -9.283,-21.527 -20.771,-24.833 -11.487,-3.305 -31.321,2.244 -38.912,8.669 -7.121,5.775 41.808,23.121 30.953,27.203 -10.857,4.08 -36.952,-21.611 -47.808,-17.531 -10.856,4.08 -53.035,42.092 -50.24,45.092 2.796,3 35.769,10.857 35.769,10.857 0,-0 15.937,-15.283 30.711,-16.547 14.773,-1.264 -2.933,12.003 -2.933,12.003l47.701,-9.531 67.905,17.123z" stroke="#00000000" clip-path="url(#clip_path_5)"/><path fill="#8ba5ef" fill-rule="nonzero" d="m289.136,582.715c0,-0 23.949,9.045 38.719,-6.333 14.768,-15.379 10.071,-15.043 8.051,-19.467 -2.02,-4.421 -20.371,12.839 -21.548,8.279 -1.179,-4.561 21.425,-14.307 23.476,-20.26 2.052,-5.953 3.2,-14.784 -0.932,-16.268 -4.132,-1.484 -48.881,28.739 -57.207,22.753 -8.324,-5.984 11.831,-17.492 22.145,-20.475 10.316,-2.983 28.543,-2.508 25.68,-6.793 -2.861,-4.285 -14.505,-25.283 -56.989,-26.112 -13.053,4.729 -18.824,35.488 -24.992,34.769 -6.168,-0.72 17.555,-32.687 12.229,-33.545 -5.325,-0.856 -7.636,-1.776 -11.585,5.784 -3.948,7.56 -10.179,27.592 -19.988,25.74 -9.809,-1.852 13.193,-27.653 7.379,-28.863 -5.816,-1.209 -16.896,-0.26 -20.553,3.795 -3.657,4.056 -4.547,19.756 -12.183,17.981 -7.636,-1.776 4.745,-15.901 -3.809,-15.365 -8.555,0.535 -65.348,25.813 -65.348,25.813 0,-0 67.047,-31.277 157.456,48.567" stroke="#00000000"/></g><path fill="#FF8D02FF" d="m302.796,473.163c-11.349,18.572 -43.335,47.461 -70.16,37.144l0,-0c-26.827,-10.317 -48.493,-56.748 -59.843,-58.812l0,-0c-11.351,-2.063 -21.668,6.192 -15.477,21.668l0,-0c6.191,15.477 42.303,74.287 93.891,86.668l0,-0c51.589,12.381 92.861,-26.825 92.861,-26.825l0,-0c0,-0 19.601,-67.065 -8.256,-86.669l0,-0c0,-0 -21.667,8.256 -33.016,26.827" stroke="#00000000" id="path_13"/><path fill="#410C2BFF" d="m331.685,377.208c-1.032,10.317 -16.508,25.793 -9.285,44.367l0,-0c7.221,18.572 19.604,16.508 29.921,34.048l0,-0c10.317,17.54 4.128,54.684 52.62,84.605l0,-0c48.493,29.92 105.24,-7.223 104.209,-41.271l0,-0c-1.032,-34.049 -23.732,-46.429 -36.112,-52.621l0,-0c-12.381,-6.189 -6.192,-39.207 -27.857,-46.429l0,-0c-21.669,-7.221 -24.764,-4.127 -37.144,-29.921l0,-0c-12.381,-25.793 -34.051,-26.825 -34.051,-26.825l0,-0c-2.969,-0.743 -5.759,-1.081 -8.385,-1.081l0,-0c-22.924,0.004 -32.989,25.873 -33.916,35.129" stroke="#00000000" id="path_14"/><path fill="#842C01FF" d="m322.257,357.407c-26.223,24 -14.667,60.889 15.112,82.223l0,-0c24.444,-12.889 48,-89.333 48,-89.333l0,-0l-8,-6.667c0,-0 -6.116,-2.163 -15.268,-2.164l0,-0c-10.747,-0 -25.683,2.98 -39.844,15.941" stroke="#00000000" id="path_15"/><path fill="#FF8D02FF" d="m325.237,453.817c-9.285,8.512 -17.024,38.691 -17.024,38.691l0,-0c0,-0 -20.12,27.084 -20.12,39.465l0,-0c0,12.381 10.06,22.441 10.06,29.407l0,-0c0,5.312 -0.452,19.623 -2.384,28.176l0,-0c23.516,0.021 47.313,-3.252 70.48,-9.605l0,-0c31.229,-8.563 50.157,-27.784 64.213,-51.896l0,-0c0.593,-16.812 -0.935,-39.337 -10.819,-55.667l0,-0c-17.797,-29.405 -48.752,-34.048 -48.752,-34.048l0,-0c-1.861,-0.392 -3.833,-0.572 -5.879,-0.572l0,-0c-14.111,-0 -31.665,8.615 -39.776,16.049" stroke="#00000000" id="path_16"/><g id="g_6"><g clip-path="url(#clip_path_6)"><path fill="#ffffff" fill-opacity="0.539993" fill-rule="nonzero" d="m387.018,443.597c-0.243,-0.111 -0.481,-0.217 -0.721,-0.324 -22.413,32.452 -53.451,37.513 -56.913,37.977 -3.051,-10.268 -2.755,-21.617 -1.988,-29.252 -0.295,0.232 -0.567,0.461 -0.844,0.693 -0.721,7.772 -0.897,18.972 2.185,29.097l0.092,0.303 0.316,-0.031C329.507,482.023 363.16,478.241 387.018,443.597" stroke-opacity="0.539993" stroke="#00000000"/></g></g><path fill="#FFB58EFF" d="m347.131,411.373c0,-0 -14.917,17.105 -14.413,62.82l0,-0c8.604,-1.079 25.032,-8.285 38.479,-21.649l0,-0c5.671,-5.636 5.64,-9.385 3.097,-16.965l0,-0c-1.251,-3.733 -0.073,-13.065 1.831,-23.629l0,-0c-0.057,-5.211 -3.467,-6.925 -7.927,-6.925l0,-0c-8.585,-0.001 -21.067,6.349 -21.067,6.349" stroke="#00000000" id="path_17"/><path fill="#FFB58EFF" d="m340.44,357.632c-1.217,1.116 -2.271,2.408 -3.176,3.791l0,-0c-3.337,5.085 -11.699,18.475 -15.864,30.929l0,-0c-3.648,10.904 2.216,22.876 13.151,26.428l0,-0c15.712,5.105 38.485,6.017 44.543,-1.915l0,-0c8.991,-11.775 29.203,-31.7 15.828,-53.444l0,-0c-7.201,-11.707 -17.093,-17.779 -27.844,-17.78l0,-0c-8.64,-0.001 -17.833,3.92 -26.637,11.991" stroke="#00000000" id="path_18"/><g id="g_7"><path fill="#ff6e77" fill-rule="nonzero" d="m366.813,403.24c0,4.141 -3.359,7.5 -7.5,7.5 -4.141,-0 -7.5,-3.359 -7.5,-7.5 0,-4.141 3.359,-7.5 7.5,-7.5C363.455,395.74 366.813,399.099 366.813,403.24" stroke="#00000000" clip-path="url(#clip_path_7)"/><path fill="#ff6e77" fill-rule="nonzero" d="m320.361,399.991c3.644,-0.511 6.452,-3.633 6.452,-7.417 0,-2.528 -1.255,-4.759 -3.171,-6.117C322.819,388.421 322.053,390.398 321.399,392.353 320.553,394.881 320.24,397.465 320.361,399.991" stroke="#00000000"/></g><path fill="#842C01FF" d="m331.813,380.407c0,1.472 1.193,2.667 2.667,2.667l0,-0c1.473,-0 2.667,-1.195 2.667,-2.667l0,-0c0,-1.472 -1.193,-2.667 -2.667,-2.667l0,-0c-1.473,-0 -2.667,1.195 -2.667,2.667" stroke="#00000000" id="path_19"/><path fill="#842C01FF" d="m350.813,386.073c0,1.472 1.193,2.667 2.667,2.667l0,-0c1.473,-0 2.667,-1.195 2.667,-2.667l0,-0c0,-1.472 -1.193,-2.667 -2.667,-2.667l0,-0c-1.473,-0 -2.667,1.195 -2.667,2.667" stroke="#00000000" id="path_20"/><g id="g_8"><path fill="#ffffff" fill-rule="nonzero" d="M332.48,398.24C332.48,398.24 339.813,399.907 342.813,399.907 342.813,402.907 338.992,406.245 333.98,403.74 330.647,402.073 332.48,398.24 332.48,398.24" stroke="#00000000" clip-path="url(#clip_path_8)"/></g><path fill="#842C01FF" d="m345.5,351.224c0,-0 -10.696,24.145 36.256,51.152l0,-0l5.993,3.9c0,-0 16.308,-12.427 13.548,-29.892l0,-0c-2.759,-17.465 -12.18,-25.643 -21.224,-31.257l0,-0c-2.483,-1.543 -5.855,-2.177 -9.536,-2.177l0,-0c-9.723,-0 -21.611,4.429 -25.037,8.275" stroke="#00000000" id="path_21"/><path fill="#FFB58EFF" d="m381.239,406.076c0,-0 -6.473,7.137 -4.284,10.696l0,-0c2.189,3.563 16.371,-1.305 15.159,-8.973l0,-0c-0.475,-3.005 -2.249,-3.92 -4.231,-3.919l0,-0c-3.072,-0 -6.644,2.196 -6.644,2.196" stroke="#00000000" id="path_22"/><g id="g_9"><g clip-path="url(#clip_path_9)"><path fill="#ffffff" fill-opacity="0.539993" fill-rule="nonzero" d="M383.127,573.773C394.374,539.349 388.244,505.437 388.162,505.005L386.642,505.293C386.723,505.725 392.928,540.166 381.203,574.631 381.846,574.346 382.495,574.067 383.127,573.773" stroke-opacity="0.539993" stroke="#00000000"/></g><g><path fill="#FF8D02FF" d="m377.119,439.849 l-0.036,0.039c0,-0 52.227,47.44 38.224,109.519 5.703,-6.5 10.681,-13.675 15.156,-21.352 0.593,-16.812 -0.935,-39.337 -10.819,-55.667 -12.855,-21.236 -32.565,-29.556 -42.525,-32.539" stroke="#00000000"/></g></g><path fill="#FFB58EFF" d="m136.167,421.235c-4.263,2.715 -2.325,6.589 -2.325,11.239l0,-0c0,4.652 0,17.051 7.364,20.151l0,-0c7.361,3.101 13.175,1.163 13.175,1.163l0,-0l1.939,-25.577c0,-0 -12.228,-7.453 -18.107,-7.455l0,-0c-0.824,-0 -1.523,0.147 -2.045,0.48" stroke="#00000000" id="path_23"/><g id="g_10"><path fill="#ff957a" fill-rule="nonzero" d="m151.996,442.398c-2.772,0.96 -5.52,1.233 -8.04,1.153 -0.037,-0.007 -0.083,-0.019 -0.117,-0.024l-0.004,0.021c-4.065,-0.148 -7.479,-1.229 -9.379,-1.965 0.103,0.6 0.229,1.197 0.369,1.793 2.117,0.748 5.295,1.613 9.02,1.731 0.716,0.157 2.904,0.772 2.785,2.425 -0.033,0.461 -0.293,0.824 -0.797,1.107 -1.577,0.888 -5.183,0.731 -9.756,-1.495 0.361,0.804 0.787,1.557 1.277,2.251 2.187,0.847 4.275,1.3 6.029,1.3 1.271,-0 2.369,-0.232 3.209,-0.705 0.952,-0.535 1.513,-1.369 1.585,-2.348 0.08,-1.136 -0.403,-1.987 -1.093,-2.625 1.756,-0.167 3.575,-0.516 5.416,-1.153z" stroke="#00000000" clip-path="url(#clip_path_10)"/><path fill="#ff957a" fill-rule="nonzero" d="M133.951,423.635C133.687,424.199 133.553,424.799 133.483,425.423 135.955,427.901 141.621,432.003 153.451,434.396l0.307,-1.52C141.027,430.301 135.743,425.679 133.951,423.635" stroke="#00000000"/><path fill="#ff957a" fill-rule="nonzero" d="m151.927,438.864 l-0.131,-1.543c-8.264,0.675 -14.98,-2.6 -17.953,-4.377 0,0.536 0.004,1.139 0.019,1.813 3.076,1.741 8.635,4.208 15.627,4.208 0.796,-0 1.609,-0.031 2.439,-0.101" stroke="#00000000"/></g><path fill="#FFB58EFF" d="m154.38,415.033c-0.387,4.264 0,7.752 -0.387,11.24l0,-0c-0.388,3.487 -5.427,10.852 -4.651,16.663l0,-0c0.775,5.813 -1.163,9.688 2.325,12.401l0,-0c3.487,2.713 6.2,2.713 6.2,2.713l0,-0l4.263,5.037 11.239,-8.527c0,-0 -8.139,-6.975 -9.3,-10.463l0,-0c-1.163,-3.488 -0.389,-11.237 -2.713,-14.725l0,-0c-2.325,-3.488 -2.325,-13.176 -1.551,-16.664l0,-0c0.147,-1.323 -0.543,-1.92 -1.476,-1.92l0,-0c-1.528,-0.001 -3.709,1.6 -3.949,4.244" stroke="#00000000" id="path_24"/><path fill="#6060E7FF" d="m168.536,448.4c-1.547,6.579 -13.609,8.557 -13.928,9.673l0,-0c-0.773,2.708 -0.388,8.125 6.191,7.739l0,-0c6.577,-0.387 12.768,-5.803 13.543,-10.06l0,-0c0.668,-3.684 -2.139,-7.657 -4.661,-7.657l0,-0c-0.393,-0 -0.779,0.097 -1.144,0.305" stroke="#00000000" id="path_25"/><path fill="#6060E7FF" d="m95.409,276.495c0,54.276 44,98.277 98.276,98.277l0,-0c54.276,-0 98.277,-44.001 98.277,-98.277l0,-0c0,-54.276 -44.001,-98.276 -98.277,-98.276l0,-0c-54.276,-0 -98.276,44 -98.276,98.276" stroke="#00000000" id="path_26"/><path fill="#FFB58EFF" d="m350.779,255.305c-1.549,2.841 -2.841,2.325 -10.596,6.461l0,-0c-4.092,2.181 -5.16,3.356 -5.256,3.979l0,-0c-0.235,-0.759 0.884,-3.145 1.123,-5.531l0,-0c0.257,-2.584 -1.035,-7.495 -2.585,-5.428l0,-0c0,-0 -3.617,6.98 -4.911,10.856l0,-0c-1.292,3.876 -1.292,8.528 -1.292,8.528l0,-0l9.305,4.135c0,-0 0.773,-1.809 2.067,-3.36l0,-0c1.292,-1.549 6.72,-0.775 12.663,-6.72l0,-0c5.944,-5.943 3.359,-11.112 3.359,-14.212l0,-0c0,-1.203 -0.309,-1.707 -0.796,-1.707l0,-0c-0.767,0.001 -1.972,1.257 -3.08,2.999" stroke="#00000000" id="path_27"/><g id="g_11"><path fill="#ffffff" fill-rule="nonzero" d="m236.378,291.055c0,-0 4.824,-1.379 15.161,9.648 10.339,11.027 24.121,24.121 37.904,23.432 13.784,-0.689 35.837,-52.377 35.837,-52.377 0,-0 6.203,0.689 13.093,6.204 0,-0 -6.729,65.003 -31.012,77.185C286.656,365.535 259.121,362.039 241.892,347.567 224.662,333.094 207.434,292.434 236.378,291.055" stroke="#00000000" clip-path="url(#clip_path_11)"/></g><g id="g_12"><path fill="#a1caff" fill-rule="nonzero" d="M139.886,549.437L252.564,549.437L191.056,427.455 148.155,502.918Z" stroke="#00000000" clip-path="url(#clip_path_12)"/></g><g id="g_13"><path fill="#25437FFF" d="m234.564,400.321c0,-0 9.813,72.628 13.74,106.98 3.925,34.352 9.815,123.665 9.815,123.665 0,-0 -4.908,4.908 -16.685,1.963 0,-0 -25.517,-106.981 -29.444,-121.703 -3.925,-14.723 -42.204,-105.017 -42.204,-105.017z" stroke="#00000000" clip-path="url(#clip_path_13)"/></g><g id="g_14"><path fill="#6060E7FF" d="m136.416,420.932c0,-0 0.981,63.795 3.925,91.277 0,-0 -22.573,111.887 -23.555,121.701 0,-0 8.833,5.889 17.667,1.964 0,-0 35.332,-100.111 42.203,-123.665 6.871,-23.556 23.556,-106.981 23.556,-106.981 0,-0 -34.352,-15.704 -57.907,-3.927 0,-0 -6.871,3.927 -5.889,19.631" stroke="#00000000" clip-path="url(#clip_path_14)"/></g><path fill="#FFB58EFF" d="m175.675,279.6l29.936,-0l-3.927,-31.407 -20.611,-6.871z" stroke="#00000000" id="path_28"/><g id="g_15"><path fill="#ff6746" fill-rule="nonzero" d="m202.106,251.564 l-21.643,-5.913 -1.02,7.225c0.905,3.801 3.664,10.341 12.131,14.865 5.383,2.344 9.796,2.672 12.857,2.424z" stroke="#00000000" clip-path="url(#clip_path_15)"/></g><path fill="#FFB58EFF" d="m193.224,208.216c-12.524,1.179 -21.723,12.285 -20.544,24.808l0,-0c1.177,12.523 17.389,34.313 29.913,33.136l0,-0c12.523,-1.179 16.615,-24.876 15.437,-37.401l0,-0c-1.111,-11.796 -11.033,-20.643 -22.648,-20.644l0,-0c-0.715,-0 -1.433,0.033 -2.159,0.101" stroke="#00000000" id="path_29"/><path fill="#6060E7FF" d="m213.967,198.596c-7.477,9.347 -28.041,4.361 -35.831,8.1l0,-0c-7.788,3.739 -6.387,14.799 -6.387,14.799l0,-0c0,-0 -5.452,0.468 -5.14,11.06l0,-0c0.312,10.593 14.955,21.809 15.889,20.251l0,-0c0.935,-1.557 -0.311,-3.425 -0.311,-3.425l0,-0c-3.74,-1.247 -9.036,-10.593 -4.675,-11.528l0,-0c4.363,-0.935 5.609,5.919 6.544,7.165l0,-0c0.933,1.248 3.427,1.248 3.427,-0.312l0,-0c0,-1.557 -4.051,-7.788 -4.673,-11.527l0,-0c-0.623,-3.739 1.869,-11.528 13.396,-9.659l0,-0c23.423,3.797 25.548,-4.673 30.221,-12.151l0,-0c3.604,-5.767 -1.315,-15.797 -7.184,-15.795l0,-0c-1.741,-0 -3.568,0.883 -5.277,3.021" stroke="#00000000" id="path_30"/><path fill="#1196C3FF" d="m171.381,278.127c0,-0 -37.173,13.987 -37.909,17.667l0,-0c-0.411,2.053 5.364,35.952 10.551,65.524l0,-0c14.573,8.552 31.545,13.455 49.663,13.455l0,-0c15.584,-0 30.32,-3.628 43.412,-10.084l0,-0l0.821,-70.413 -28.628,-14.675 -3.68,-6.624 -9.571,4.416 -19.139,-5.891z" stroke="#00000000" id="path_31"/><path fill="#6060E7FF" d="m182.516,242.299c1.963,3.189 2.208,8.097 3.189,13.251l0,-0c0.983,5.152 7.607,12.268 16.152,11.592l0,-0c8.544,-0.677 14.273,-12.328 14.52,-16.745l0,-0c0.244,-4.417 -5.644,-8.097 -13.496,-6.135l0,-0c-7.852,1.963 -11.777,9.569 -13.496,4.172l0,-0c-1.716,-5.397 -4.171,-8.097 -4.171,-8.097l0,-0c0,-0 -0.471,-0.157 -1.02,-0.157l0,-0c-0.825,-0 -1.825,0.353 -1.679,2.12" stroke="#00000000" id="path_32"/><g id="g_16"><path fill="#254da1" fill-rule="nonzero" d="m197.268,288.187 l6.379,77.781 -6.133,9.079 -6.871,-9.079 3.191,-78.272z" stroke="#00000000" clip-path="url(#clip_path_16)"/><path fill="#ffffff" fill-rule="nonzero" d="m167.796,279.112c0,-0 18.608,51.169 6.72,126.117 -11.888,74.947 -17.575,151.444 -17.575,151.444 0,-0 -39.281,0.517 -49.103,-2.068 0,-0 12.405,-71.845 22.227,-125.083 9.82,-53.239 8.787,-48.588 8.787,-50.137 0,-1.551 -6.203,-60.473 -6.203,-60.473l-3.595,-24.591c0,-0 26.337,-12.108 38.741,-15.209" stroke="#00000000"/><path fill="#ffffff" fill-rule="nonzero" d="m214.66,282.386c0,-0 22.743,212.952 22.743,277.044l35.837,-0c0,-0 -4.825,-86.835 -15.163,-129.564C247.74,387.138 240.16,292.034 240.16,292.034 240.16,292.034 231.889,286.521 214.66,282.386" stroke="#00000000"/><path fill="#00000000" d="m174.258,279.629 l11.629,12.923 9.563,-5.428 7.495,6.203 6.719,-11.888" stroke-width="0.25" stroke="#218498" stroke-linecap="butt" stroke-linejoin="miter"/></g><g id="g_17"><path fill="#FFB58EFF" d="m106.547,464.928c0,-0 -0.775,12.664 2.068,18.349 1.809,2.325 11.371,8.528 11.889,6.203 0.516,-2.325 -3.103,-12.663 -2.844,-13.956 0,-0 2.584,4.911 4.393,4.135 1.809,-0.776 -0.259,-5.944 -1.809,-8.787 -1.549,-2.843 -4.135,-6.203 -4.135,-6.203z" stroke="#00000000" clip-path="url(#clip_path_17)"/></g><g id="g_18"><path fill="#ffffff" fill-rule="nonzero" d="m129.055,294.322c0,-0 -26.04,29.413 -26.04,96.952 0,66.849 1.033,75.119 1.033,75.119l15.507,-0c0,-0 6.891,-62.025 11.716,-89.592 4.824,-27.565 29.633,-44.795 27.567,-65.471C156.77,290.655 138.555,288.339 129.055,294.322" stroke="#00000000" clip-path="url(#clip_path_18)"/><path fill="#00000000" d="m132.649,438.826l23.777,-0l-5.687,34.113 -23.776,-0.517z" stroke-width="0.25" stroke="#a6d0f4" stroke-linecap="butt" stroke-linejoin="miter"/><path fill="#00000000" d="m233.698,435.467 l21.709,-0.259c0,-0 3.876,28.171 3.876,30.753L236.799,466.479Z" stroke-width="0.25" stroke="#a6d0f4" stroke-linecap="butt" stroke-linejoin="miter"/><path fill="#ffffff" fill-rule="nonzero" d="m240.159,292.034c0,-0 14.185,7.237 18.185,42.793l4,35.555 -29.777,0.889z" stroke="#00000000"/></g><path fill="#FF8D02FF" d="m96.313,212.383c-8.192,-0 -14.832,6.641 -14.832,14.832l0,-0 0,19.861c0,8.191 6.64,14.832 14.832,14.832l0,-0l37.272,-0l10.06,10.06l0,-10.06l1.161,-0c8.191,-0 14.831,-6.641 14.831,-14.832l0,-0 0,-19.861c0,-8.191 -6.64,-14.832 -14.831,-14.832l0,-0z" stroke="#00000000" id="path_33"/><g id="g_19"><path fill="#ffffff" fill-rule="nonzero" d="m143.774,234.437l-47.977,-0c-1.496,-0 -2.708,-1.212 -2.708,-2.708 0,-1.496 1.212,-2.708 2.708,-2.708L143.774,229.021C145.27,229.021 146.482,230.233 146.482,231.729 146.482,233.225 145.27,234.437 143.774,234.437" stroke="#00000000" clip-path="url(#clip_path_19)"/><path fill="#ffffff" fill-rule="nonzero" d="m113.724,245.528l-17.927,-0c-1.496,-0 -2.709,-1.213 -2.709,-2.708 0,-1.496 1.213,-2.708 2.709,-2.708L113.724,240.112C115.22,240.112 116.432,241.324 116.432,242.82 116.432,244.315 115.22,245.528 113.724,245.528" stroke="#00000000"/></g><path fill="#6060E7FF" d="M354.703,541.851C334.257,543.629 334.257,561.407 334.257,561.407l0,-0c0,-0 -7.999,-9.777 -19.555,-2.667l0,-0c-11.556,7.111 -10.667,16.889 -10.667,16.889l0,-0c0,-0 -10.667,-6.223 -18.668,1.777l0,-0c-7.999,8 -6.221,12.444 -6.221,12.444l0,-0c0,-0 59.223,4.225 102.056,-15.22l0,-0c0,-0 -5.757,-32.845 -24.989,-32.845l0,-0c-0.495,-0 -0.997,0.021 -1.511,0.065" stroke="#00000000" id="path_34"/><path fill="#6060E7FF" d="m438.257,502.74c-14.221,0.889 -15.111,16 -15.111,16l0,-0c0,-0 -1.777,-8 -8,-7.111l0,-0c-11.556,7.111 -5.333,22.221 -5.333,22.221l0,-0l32.753,8.211c0,-0 16.136,-9.099 13.469,-16.211l0,-0c-2.667,-7.111 -11.556,-5.333 -11.556,-5.333l0,-0c0,-0 7.633,-17.809 -5.267,-17.808l0,-0c-0.307,-0 -0.625,0.009 -0.956,0.031" stroke="#00000000" id="path_35"/><g id="g_20"><path fill="#a1c2ff" fill-rule="nonzero" d="M415.147,564.073C412.495,568.493 409.841,574.673 407.845,579.769 421.603,581.385 431.895,583.265 444.147,586.74c2.888,-3.995 10.14,-7.823 13.667,-9.333 0.479,2.393 -0.848,8.139 -2.173,12.929 27.56,8.645 47.252,18.851 47.252,18.851 -1.051,-10.652 -6.624,-26.571 -6.624,-26.571C489.681,563.808 479.753,551.236 465.813,541.407 462.055,542.187 455.117,543.256 452.147,544.74c1.077,-3.232 3.464,-8.131 4.916,-9.917 -20.107,-11.269 -43.728,-13.035 -63.795,-3.105 -37.061,18.337 -39.565,52.079 -39.565,52.079 12.084,-3.047 26.971,-5.692 39.76,-5.177C397.023,575.092 406.647,566.199 415.147,564.073" stroke="#00000000" clip-path="url(#clip_path_20)"/></g></svg>